<svg id="svg" version="1.1" xmlns="http://www.w3.org/2000/svg" xmlns:xlink="http://www.w3.org/1999/xlink" width="400" height="442.80936454849495" viewBox="0, 0, 400,442.80936454849495"><g id="svgg"><path id="path0" d="M100.200 5.570 C 74.179 9.800,59.243 38.463,70.899 61.800 C 75.518 71.049,81.675 77.401,88.932 80.405 C 92.912 82.052,93.233 82.630,92.223 86.327 C 90.105 94.080,89.155 97.975,88.427 101.882 C 79.424 150.255,99.547 187.408,144.600 205.598 C 180.136 219.945,233.229 218.390,264.000 202.102 C 286.193 190.354,293.709 183.012,304.749 162.297 C 314.682 143.656,316.744 117.958,310.214 94.200 C 306.546 80.857,306.380 82.112,312.076 80.174 C 319.844 77.532,328.343 67.289,331.763 56.446 C 338.396 35.419,325.395 11.555,304.439 6.292 C 287.610 2.066,270.534 9.368,262.800 24.097 C 260.420 28.632,259.218 29.034,255.260 26.622 C 248.197 22.318,233.870 17.988,219.200 15.725 C 213.374 14.827,192.570 14.703,186.000 15.528 C 169.933 17.546,155.874 21.166,146.073 25.809 C 140.414 28.490,139.993 28.374,137.643 23.488 C 132.061 11.883,114.135 3.305,100.200 5.570 M270.371 29.028 C 278.735 31.512,290.344 41.107,298.290 52.104 C 302.893 58.474,303.394 59.146,305.798 62.169 C 308.375 65.409,308.506 66.300,306.787 68.893 C 304.496 72.353,303.673 72.031,299.707 66.123 C 294.025 57.659,290.490 53.944,275.231 40.400 C 268.870 34.754,264.289 30.103,264.597 29.604 C 265.362 28.367,267.444 28.159,270.371 29.028 M134.399 29.900 C 134.396 31.153,132.966 32.990,130.417 35.015 C 114.754 47.458,106.754 55.993,98.648 68.909 C 96.519 72.301,95.526 72.611,93.556 70.500 C 92.700 69.582,92.000 68.451,92.000 67.987 C 92.000 66.793,95.742 59.259,97.486 56.942 C 105.049 46.893,112.228 39.008,116.226 36.357 C 125.149 30.440,127.455 29.391,131.800 29.272 C 134.037 29.210,134.400 29.298,134.399 29.900 M153.092 109.425 C 156.978 111.010,160.392 116.050,160.392 120.200 C 160.392 129.528,149.036 134.285,141.856 127.965 C 132.888 120.072,142.065 104.928,153.092 109.425 M255.549 109.774 C 264.468 114.294,263.376 127.779,253.862 130.604 C 242.410 134.005,234.195 119.201,243.238 111.460 C 246.509 108.661,251.896 107.923,255.549 109.774 M209.400 118.590 C 231.645 123.292,247.853 141.619,247.699 161.897 C 247.526 184.608,224.094 197.985,190.719 194.426 C 165.073 191.691,147.596 172.461,152.921 152.836 C 159.376 129.041,185.088 113.451,209.400 118.590 M191.203 129.826 C 174.200 133.512,174.622 146.465,192.062 156.148 C 195.493 158.053,195.519 158.092,196.072 161.998 C 197.378 171.238,186.289 175.066,179.947 167.565 C 175.983 162.878,175.407 162.400,173.717 162.400 C 168.842 162.400,169.221 169.927,174.322 174.428 C 180.675 180.032,189.121 181.076,196.791 177.204 C 199.777 175.697,199.869 175.700,203.855 177.412 C 214.937 182.172,227.324 176.680,229.447 166.064 C 230.042 163.089,225.431 161.509,223.530 164.037 C 215.143 175.191,204.000 174.357,204.000 162.576 C 204.000 158.019,204.223 157.696,209.223 155.000 C 225.711 146.109,224.990 132.575,207.882 129.800 C 203.324 129.061,194.671 129.075,191.203 129.826 M208.460 130.974 C 223.759 133.702,223.750 145.904,208.442 154.200 C 203.240 157.019,203.243 157.015,203.082 161.938 C 202.639 175.409,215.213 177.361,224.330 165.237 C 225.816 163.262,228.153 163.708,228.089 165.955 C 227.994 169.292,223.712 174.504,219.277 176.682 C 215.008 178.778,208.114 178.311,202.721 175.560 C 200.666 174.511,199.372 174.606,196.731 175.998 C 186.181 181.559,171.600 175.991,171.600 166.401 C 171.600 161.886,174.404 162.500,178.752 167.970 C 185.712 176.723,198.525 172.668,197.235 162.120 C 196.716 157.876,196.300 157.225,192.906 155.354 C 182.252 149.479,178.276 143.829,180.570 137.822 C 182.849 131.856,195.706 128.699,208.460 130.974 M284.354 201.521 C 279.193 205.423,267.923 210.963,255.600 215.654 C 235.654 223.247,199.028 229.680,191.874 226.846 C 191.255 226.601,189.979 226.400,189.039 226.400 C 184.363 226.400,172.321 223.689,155.049 218.748 C 142.197 215.071,133.926 211.671,121.549 204.980 C 113.829 200.805,114.298 200.804,109.600 205.000 C 107.510 206.867,105.589 208.395,105.331 208.397 C 104.618 208.402,102.400 210.395,102.400 211.030 C 102.400 211.338,101.748 211.862,100.951 212.195 C 99.222 212.917,99.604 213.814,101.817 214.230 C 104.268 214.689,112.880 217.868,124.400 222.564 C 130.670 225.120,138.050 228.126,140.800 229.244 C 155.467 235.208,158.378 236.631,168.237 242.659 C 185.483 253.205,190.972 258.077,198.133 269.195 C 200.236 272.461,200.808 272.588,202.489 270.163 C 209.331 260.292,218.990 251.106,228.637 245.293 C 230.377 244.245,232.790 242.639,234.000 241.724 C 244.187 234.018,283.852 218.499,299.188 216.218 C 305.038 215.347,305.902 214.180,302.119 212.258 C 301.063 211.722,298.670 209.950,296.800 208.322 C 288.487 201.081,286.426 199.955,284.354 201.521 M344.230 208.700 C 343.531 210.880,339.401 212.544,325.600 216.202 C 321.090 217.398,315.330 218.990,312.800 219.741 C 310.270 220.492,302.591 222.746,295.736 224.750 C 247.129 238.958,215.163 258.260,203.374 280.523 C 201.749 283.592,201.099 283.799,199.805 281.658 C 196.234 275.746,184.225 263.120,176.428 257.081 C 162.095 245.977,131.887 232.148,102.000 223.008 C 98.590 221.965,94.290 220.412,92.445 219.556 C 90.083 218.461,88.543 217.999,87.245 217.998 C 84.743 217.995,74.948 215.378,66.207 212.376 C 59.816 210.182,58.876 209.956,57.779 210.353 C 57.099 210.599,55.826 210.800,54.950 210.800 C 53.697 210.800,53.040 211.089,51.878 212.154 C 50.499 213.418,50.213 213.513,50.367 212.658 C 50.400 212.470,49.892 212.740,49.236 213.258 C 48.581 213.776,48.034 214.528,48.022 214.929 C 47.992 215.914,46.943 216.955,46.577 216.363 C 46.408 216.090,45.330 216.884,43.771 218.429 C 42.378 219.809,41.349 221.118,41.485 221.337 C 41.629 221.570,41.466 221.634,41.095 221.492 C 40.745 221.357,40.243 221.507,39.980 221.824 C 39.604 222.278,39.619 222.401,40.051 222.406 C 40.493 222.411,40.487 222.484,40.018 222.780 C 39.527 223.091,39.519 223.301,39.966 224.136 C 40.256 224.679,40.383 225.305,40.246 225.526 C 39.453 226.808,41.342 228.035,46.800 229.782 C 48.670 230.380,54.520 232.540,59.800 234.581 C 65.080 236.622,70.120 238.519,71.000 238.797 C 71.880 239.075,78.090 241.333,84.800 243.815 C 97.333 248.452,100.269 249.488,121.200 256.666 C 127.910 258.967,137.720 262.387,143.000 264.266 C 148.280 266.144,157.864 269.442,164.297 271.593 C 177.462 275.995,177.744 276.133,178.851 278.726 C 180.357 282.253,182.569 283.855,187.400 284.917 C 198.107 287.272,210.254 286.713,216.700 283.569 C 219.150 282.374,219.500 282.044,221.330 279.200 C 222.807 276.904,222.640 276.975,249.000 267.573 C 266.953 261.170,282.995 255.556,296.000 251.126 C 301.830 249.140,308.220 246.891,310.200 246.127 C 316.324 243.767,333.845 237.402,341.200 234.867 C 355.650 229.886,360.525 228.052,361.209 227.336 C 361.919 226.593,362.598 222.231,361.940 222.637 C 361.753 222.753,361.600 222.646,361.600 222.400 C 361.600 222.154,361.420 222.064,361.200 222.200 C 360.980 222.336,360.800 222.221,360.800 221.944 C 360.800 221.568,360.685 221.555,360.346 221.894 C 360.007 222.233,360.057 222.515,360.546 223.003 C 361.281 223.739,361.402 224.400,360.800 224.400 C 360.580 224.400,360.400 224.670,360.400 225.000 C 360.400 225.330,360.580 225.600,360.800 225.600 C 361.489 225.600,361.236 226.753,360.456 227.170 C 359.380 227.746,348.676 231.631,339.400 234.813 C 335.000 236.322,326.720 239.293,321.000 241.414 C 315.280 243.535,300.340 248.834,287.800 253.190 C 275.260 257.546,263.020 261.840,260.600 262.731 C 252.648 265.661,247.105 267.631,239.600 270.195 C 224.891 275.221,221.683 276.686,220.573 278.882 C 218.466 283.049,207.630 286.960,203.034 285.213 L 201.984 284.814 203.593 281.615 C 212.170 264.555,234.279 248.177,265.600 235.681 C 279.408 230.172,279.828 230.037,314.600 219.924 C 318.340 218.837,323.830 217.323,326.800 216.560 C 339.059 213.411,344.800 210.819,344.800 208.431 C 344.800 207.768,344.480 207.919,344.230 208.700 M348.219 210.500 C 348.589 211.105,348.748 211.600,348.571 211.600 C 348.395 211.600,348.762 212.134,349.386 212.786 C 350.011 213.438,350.670 213.881,350.849 213.769 C 351.029 213.658,351.291 214.025,351.432 214.584 C 351.572 215.143,351.894 215.600,352.147 215.600 C 352.401 215.600,353.092 216.048,353.683 216.596 C 354.295 217.164,354.863 217.422,355.002 217.196 C 355.137 216.978,355.046 216.800,354.800 216.800 C 354.554 216.800,354.467 216.616,354.606 216.390 C 354.745 216.165,354.621 216.030,354.330 216.090 C 354.038 216.151,353.845 215.975,353.900 215.700 C 353.955 215.425,353.864 215.245,353.698 215.300 C 353.532 215.355,352.080 214.050,350.471 212.400 C 348.862 210.750,347.849 209.895,348.219 210.500 M62.000 211.615 C 71.703 215.097,84.736 218.800,87.285 218.800 C 87.893 218.800,89.878 219.412,91.695 220.159 C 93.513 220.906,98.060 222.463,101.800 223.617 C 128.829 231.962,158.928 245.270,172.200 254.743 C 182.772 262.289,195.437 275.228,199.203 282.332 C 201.100 285.909,200.209 286.232,191.897 284.985 C 183.767 283.765,181.616 282.655,179.623 278.647 C 177.999 275.381,177.818 275.289,164.256 270.830 C 158.786 269.032,150.236 266.113,145.256 264.343 C 140.275 262.574,127.380 258.099,116.600 254.399 C 105.820 250.699,93.310 246.287,88.800 244.596 C 84.290 242.904,77.630 240.467,74.000 239.181 C 70.370 237.894,64.340 235.642,60.600 234.177 C 56.860 232.712,51.173 230.587,47.961 229.456 C 41.542 227.195,40.654 226.689,41.031 225.502 C 41.168 225.071,41.280 224.104,41.280 223.354 C 41.280 222.468,41.546 221.803,42.037 221.459 C 42.454 221.167,42.682 220.815,42.543 220.676 C 42.405 220.538,42.811 220.573,43.446 220.755 C 44.081 220.936,44.780 220.929,45.000 220.739 C 45.220 220.549,46.480 219.411,47.800 218.209 C 49.120 217.007,50.431 216.018,50.713 216.012 C 50.994 216.005,51.329 215.730,51.455 215.400 C 51.582 215.070,51.957 214.800,52.289 214.800 C 52.704 214.800,52.825 214.539,52.676 213.968 C 52.519 213.368,52.614 213.196,53.018 213.351 C 53.325 213.469,53.807 213.339,54.088 213.061 C 54.370 212.783,54.870 212.423,55.200 212.262 C 55.530 212.101,56.250 211.708,56.800 211.390 C 58.136 210.617,59.367 210.671,62.000 211.615 M373.400 231.392 C 372.520 231.684,366.040 233.908,359.000 236.334 C 351.960 238.759,337.020 243.890,325.800 247.736 C 293.622 258.766,288.486 260.582,277.000 264.992 C 271.060 267.272,263.230 270.219,259.600 271.540 C 249.233 275.314,234.376 280.634,232.424 281.271 C 228.996 282.390,228.795 283.639,230.651 292.312 C 231.221 294.976,231.167 319.082,230.589 320.018 C 229.610 321.602,230.163 362.723,231.177 363.737 C 231.780 364.340,232.705 362.963,233.016 361.000 C 233.338 358.969,237.600 356.078,237.600 357.890 C 237.600 358.076,238.628 358.271,239.885 358.324 C 241.142 358.376,242.603 358.703,243.133 359.050 C 245.132 360.360,246.254 357.213,247.184 347.691 C 247.426 345.211,247.799 342.262,248.012 341.137 C 248.225 340.011,248.400 338.228,248.400 337.174 C 248.400 334.783,249.328 333.556,250.357 334.586 C 250.884 335.113,251.009 336.287,251.049 341.114 C 251.076 344.351,251.324 350.870,251.601 355.600 C 252.452 370.166,251.520 386.899,249.748 388.857 C 248.142 390.632,246.009 389.130,245.989 386.211 C 245.955 380.907,244.220 378.202,241.661 379.463 C 240.746 379.914,239.200 379.201,239.200 378.328 C 239.200 378.167,238.482 377.262,237.605 376.317 C 236.636 375.274,236.008 374.207,236.005 373.600 C 235.995 371.685,233.831 366.800,232.993 366.800 C 232.764 366.800,232.246 366.412,231.840 365.938 C 230.738 364.651,230.367 365.646,229.970 370.952 C 229.787 373.398,229.445 377.779,229.210 380.687 C 228.674 387.314,228.610 396.617,229.090 398.200 C 229.435 399.337,231.200 400.224,231.200 399.261 C 231.200 398.563,234.771 397.411,235.299 397.939 C 236.186 398.826,238.543 398.482,239.680 397.300 C 241.732 395.167,242.279 394.799,243.272 394.881 C 243.837 394.928,245.159 394.397,246.304 393.662 C 247.420 392.945,248.844 392.278,249.467 392.179 C 250.090 392.081,251.230 391.895,252.000 391.767 C 252.770 391.639,255.200 390.664,257.400 389.600 C 265.038 385.905,276.828 381.625,287.600 378.635 C 291.230 377.628,295.456 376.442,296.991 376.002 C 298.527 375.561,300.289 375.200,300.907 375.200 C 301.526 375.200,302.772 374.822,303.677 374.360 C 304.583 373.899,306.780 373.087,308.562 372.557 C 321.758 368.630,329.530 364.195,331.825 359.281 C 335.893 350.570,337.600 346.301,337.600 344.835 C 337.600 340.973,340.926 338.239,342.882 340.495 C 344.021 341.808,345.074 341.113,344.084 339.702 C 337.610 330.473,335.705 310.379,340.027 296.904 C 345.860 278.718,355.809 267.789,368.414 265.720 C 374.100 264.787,373.938 265.098,375.175 252.800 C 375.429 250.270,375.993 245.734,376.427 242.720 C 377.317 236.542,377.534 232.162,376.976 231.641 C 376.242 230.956,374.979 230.868,373.400 231.392 M23.907 232.300 C 22.562 233.824,22.594 235.160,24.156 242.600 C 24.479 244.140,25.029 248.910,25.377 253.200 C 25.725 257.490,26.079 261.799,26.164 262.776 C 26.361 265.032,27.129 265.600,29.984 265.600 C 38.390 265.600,46.535 271.284,53.330 281.890 C 62.793 296.660,65.248 310.884,61.165 327.277 C 59.740 332.998,59.740 332.853,61.143 335.800 C 62.250 338.127,62.985 339.192,69.800 348.350 C 71.560 350.715,73.566 353.472,74.258 354.477 C 75.725 356.608,81.170 361.408,83.200 362.360 C 83.970 362.721,85.320 363.488,86.200 364.066 C 87.080 364.643,88.445 365.227,89.233 365.363 C 90.021 365.500,91.675 366.219,92.909 366.962 C 94.143 367.705,95.219 368.248,95.299 368.168 C 95.379 368.088,96.694 368.479,98.222 369.037 C 99.750 369.595,102.530 370.466,104.400 370.973 C 106.270 371.479,108.880 372.286,110.200 372.767 C 111.520 373.247,113.860 373.985,115.400 374.406 C 118.202 375.172,123.316 376.957,131.200 379.920 C 133.510 380.788,138.460 382.893,142.200 384.597 C 145.940 386.301,150.440 388.315,152.200 389.072 C 159.421 392.177,161.908 395.717,156.545 395.255 C 154.391 395.069,154.546 397.687,156.800 399.551 C 158.753 401.167,158.901 402.009,157.184 401.739 C 154.692 401.346,153.492 402.327,153.748 404.548 C 153.955 406.339,153.878 406.579,152.787 407.537 C 152.104 408.136,151.600 408.977,151.600 409.518 C 151.600 411.455,149.528 412.267,148.233 410.836 C 147.575 410.110,147.580 410.060,148.331 409.822 C 149.563 409.431,149.767 407.799,148.733 406.609 C 147.660 405.375,147.106 405.350,145.593 406.468 C 144.592 407.209,144.267 407.268,143.390 406.868 C 141.976 406.224,139.456 406.247,139.707 406.902 C 139.901 407.407,139.301 408.139,138.584 408.271 C 135.592 408.826,136.647 409.773,142.042 411.375 C 143.175 411.712,144.317 412.165,144.580 412.383 C 145.042 412.767,147.191 413.548,156.774 416.815 C 161.429 418.403,164.588 419.028,164.120 418.271 C 163.966 418.022,164.139 417.968,164.564 418.131 C 164.968 418.286,165.511 418.147,165.858 417.799 C 166.188 417.469,166.309 417.195,166.129 417.188 C 165.948 417.181,166.115 416.992,166.500 416.768 C 166.885 416.544,167.200 415.919,167.200 415.380 C 167.200 414.841,167.359 414.400,167.553 414.400 C 167.748 414.400,168.018 413.995,168.153 413.500 C 168.342 412.813,168.482 412.728,168.749 413.140 C 169.011 413.547,169.229 413.383,169.627 412.483 C 169.919 411.824,170.348 411.358,170.580 411.448 C 172.301 412.108,173.098 397.352,172.463 376.600 C 172.207 368.240,171.972 344.210,171.942 323.200 C 171.908 299.530,171.738 284.583,171.496 283.904 C 170.919 282.282,169.040 281.321,161.448 278.765 C 141.409 272.016,137.004 270.456,122.000 264.795 C 104.250 258.099,88.478 252.597,69.310 246.418 C 65.081 245.054,57.341 242.317,52.110 240.336 C 31.557 232.549,25.267 230.757,23.907 232.300 M212.814 234.330 C 214.471 234.766,217.981 236.118,220.614 237.333 C 223.246 238.548,226.390 239.828,227.600 240.177 C 231.626 241.339,231.649 241.798,227.794 244.004 C 220.848 247.978,207.228 260.854,202.607 267.815 C 200.791 270.552,200.369 270.543,198.763 267.736 C 194.689 260.614,186.735 253.047,175.076 245.200 C 166.895 239.693,166.997 239.871,171.691 239.286 C 177.485 238.564,177.905 238.480,178.881 237.851 C 184.705 234.101,204.241 232.074,212.814 234.330 M368.400 273.953 C 355.959 277.968,347.330 292.825,347.464 310.000 C 347.607 328.266,351.794 337.018,361.992 340.366 C 376.771 345.218,389.472 332.108,394.413 306.903 C 398.263 287.266,383.824 268.976,368.400 273.953 M22.200 274.230 C 15.414 275.703,10.924 278.938,8.387 284.181 C -0.771 303.100,8.146 332.931,25.200 340.432 C 35.260 344.857,49.413 336.236,51.430 324.455 C 51.567 323.655,51.936 322.100,52.251 321.000 C 54.569 312.904,53.219 300.898,48.999 292.091 C 41.843 277.155,33.705 271.732,22.200 274.230 M329.610 283.426 C 331.494 288.380,329.750 289.953,318.481 293.465 C 314.648 294.659,309.057 296.605,306.056 297.788 C 303.055 298.971,298.080 300.869,295.000 302.004 C 291.920 303.140,287.240 304.868,284.600 305.845 C 275.352 309.267,267.193 311.438,265.992 310.796 C 264.917 310.221,264.971 308.459,266.115 306.759 C 267.173 305.188,269.803 303.965,281.080 299.800 C 292.404 295.618,295.457 294.553,301.184 292.785 C 304.145 291.870,308.195 290.402,310.184 289.523 C 312.173 288.643,315.060 287.417,316.600 286.800 C 318.140 286.182,321.020 284.949,323.000 284.060 C 327.346 282.107,329.047 281.944,329.610 283.426 M179.680 289.680 C 178.997 290.363,179.080 291.271,180.046 293.685 C 180.616 295.111,180.931 296.907,181.011 299.200 C 181.077 301.070,181.250 306.470,181.396 311.200 C 181.542 315.930,181.724 320.970,181.801 322.400 C 182.188 329.595,182.501 345.822,182.769 372.600 C 183.102 405.856,182.992 404.677,185.886 405.834 C 186.719 406.167,189.020 407.228,191.000 408.191 C 202.504 413.788,214.284 412.815,216.855 406.056 C 217.891 403.332,218.444 391.843,218.783 366.000 C 219.199 334.353,220.345 296.717,221.046 291.703 C 221.329 289.682,220.620 289.171,218.641 289.970 C 209.769 293.554,190.076 293.684,183.209 290.205 C 180.984 289.077,180.374 288.986,179.680 289.680 M236.709 294.512 C 237.365 297.335,237.342 298.029,236.600 297.745 C 236.135 297.566,236.000 297.839,236.000 298.957 C 236.000 299.751,235.820 300.400,235.600 300.400 C 235.380 300.400,235.200 300.670,235.200 301.000 C 235.200 301.330,234.865 301.600,234.456 301.600 C 233.684 301.600,233.212 299.462,233.203 295.926 C 233.194 291.822,235.836 290.756,236.709 294.512 M251.402 293.929 C 252.343 297.603,252.234 321.108,251.264 323.639 C 251.045 324.210,250.928 325.949,251.004 327.502 C 251.094 329.359,250.967 330.566,250.631 331.025 C 249.928 331.986,249.203 331.411,249.184 329.876 C 249.170 328.699,248.139 323.614,247.141 319.800 C 246.911 318.920,246.632 317.300,246.520 316.200 C 246.409 315.100,246.134 313.975,245.910 313.700 C 245.633 313.360,245.633 313.040,245.913 312.700 C 246.388 312.121,247.158 307.067,247.603 301.600 C 248.243 293.732,250.292 289.594,251.402 293.929 M183.508 293.525 C 183.606 293.818,183.423 293.907,183.033 293.757 C 182.685 293.624,182.400 293.339,182.400 293.124 C 182.400 292.598,183.309 292.927,183.508 293.525 M234.436 310.293 C 234.046 310.962,234.024 310.962,234.012 310.300 C 234.005 309.915,233.817 309.600,233.592 309.600 C 233.078 309.600,233.556 307.510,234.162 307.111 C 234.752 306.723,234.979 309.360,234.436 310.293 M318.257 307.403 C 319.149 309.728,317.663 311.477,313.524 312.973 C 281.387 324.586,276.800 325.822,276.800 322.871 C 276.800 321.029,278.651 319.882,283.760 318.559 C 285.102 318.212,289.980 316.485,294.600 314.722 C 299.220 312.960,305.160 310.800,307.800 309.922 C 310.440 309.045,313.410 307.989,314.400 307.577 C 316.595 306.661,317.949 306.600,318.257 307.403 M336.820 381.183 C 335.408 382.407,336.851 385.197,338.900 385.203 C 340.380 385.207,346.798 383.037,346.799 382.532 C 346.800 381.883,344.756 381.497,343.032 381.820 C 342.059 382.003,341.307 381.902,340.698 381.508 C 339.071 380.455,337.784 380.347,336.820 381.183 M65.737 382.329 C 65.254 383.102,66.120 384.000,67.348 384.000 C 68.427 384.000,68.422 382.389,67.342 381.978 C 66.107 381.508,66.272 381.472,65.737 382.329 M329.913 382.678 C 328.926 382.931,329.898 384.400,331.053 384.400 C 331.758 384.400,332.710 383.333,332.309 382.992 C 331.988 382.719,330.510 382.525,329.913 382.678 M262.176 404.187 C 261.419 404.760,261.423 404.775,262.300 404.787 C 262.839 404.795,263.200 404.559,263.200 404.200 C 263.200 403.459,263.141 403.458,262.176 404.187 M255.900 406.691 C 254.326 406.856,253.788 407.600,255.243 407.600 C 255.811 407.600,256.014 407.787,255.865 408.174 C 255.744 408.490,255.860 408.821,256.122 408.909 C 256.952 409.188,255.592 410.415,253.212 411.534 C 251.996 412.106,250.557 412.980,250.017 413.476 L 249.033 414.377 250.617 414.131 C 252.616 413.820,258.917 411.910,261.011 410.979 C 261.885 410.591,263.761 409.789,265.180 409.198 C 269.148 407.544,268.129 406.506,264.057 408.054 C 262.495 408.648,256.486 408.419,257.335 407.798 C 258.000 407.312,258.266 406.340,257.700 406.467 C 257.535 406.504,256.725 406.605,255.900 406.691 M134.200 408.386 C 135.174 408.821,136.240 408.907,135.852 408.518 C 135.697 408.363,135.082 408.190,134.485 408.132 C 133.549 408.043,133.510 408.078,134.200 408.386 M163.995 415.603 C 163.636 415.825,163.706 416.024,164.252 416.341 C 164.959 416.752,164.954 416.776,164.147 416.788 C 163.227 416.801,162.550 415.359,163.342 415.073 C 164.029 414.825,164.558 415.255,163.995 415.603 " stroke="none" fill="#af7853" fill-rule="evenodd"></path><path id="path1" d="M83.763 0.916 C 78.936 3.012,72.044 9.042,68.400 14.361 C 67.850 15.164,67.005 16.322,66.523 16.935 C 66.040 17.548,65.433 18.714,65.172 19.525 C 64.912 20.336,64.474 21.270,64.200 21.600 C 63.925 21.930,62.881 24.180,61.879 26.600 C 55.021 43.166,55.957 53.915,65.813 71.800 C 68.471 76.623,72.339 82.339,73.289 82.847 C 77.776 85.248,79.665 89.064,78.142 92.651 C 77.651 93.808,77.488 95.415,77.499 99.000 C 77.507 101.780,77.289 104.642,76.980 105.800 C 75.330 111.990,75.089 136.498,76.646 139.761 C 76.951 140.400,77.200 141.576,77.200 142.374 C 77.200 143.173,77.479 144.810,77.821 146.013 C 78.162 147.216,78.604 148.830,78.803 149.600 C 79.488 152.248,81.918 159.004,83.190 161.800 C 85.428 166.717,85.600 167.116,85.600 167.396 C 85.600 168.276,88.163 172.978,89.372 174.317 C 90.158 175.186,90.809 176.055,90.819 176.248 C 90.830 176.442,91.552 177.590,92.423 178.800 C 93.295 180.010,94.919 182.317,96.034 183.926 C 97.148 185.536,99.577 188.453,101.430 190.409 C 103.284 192.365,104.800 194.071,104.800 194.202 C 104.800 194.727,102.509 196.365,101.140 196.818 C 99.513 197.357,94.238 201.463,88.247 206.854 C 83.168 211.425,80.804 211.727,76.539 208.348 C 75.431 207.470,74.629 207.247,71.713 207.004 C 69.743 206.840,66.552 206.194,64.408 205.526 C 58.445 203.668,56.491 204.101,53.766 207.885 C 52.905 209.081,50.040 212.008,47.400 214.389 C 44.760 216.770,42.060 219.293,41.400 219.995 C 38.435 223.153,38.023 223.184,28.590 220.973 C 26.332 220.443,25.929 220.469,22.190 221.371 C 14.412 223.248,11.222 229.164,12.720 238.929 C 12.984 240.650,13.211 243.800,13.225 245.929 C 13.238 248.058,13.418 251.150,13.625 252.800 C 13.831 254.450,14.165 257.635,14.366 259.878 C 14.568 262.122,14.850 264.328,14.994 264.781 C 15.214 265.476,14.954 265.734,13.328 266.428 C 7.175 269.054,4.893 270.970,2.021 275.918 L 0.001 279.400 0.006 301.600 C 0.012 326.379,-0.184 324.477,3.037 331.038 C 7.797 340.736,13.313 346.325,21.000 349.238 C 27.814 351.821,29.169 353.464,29.210 359.200 C 29.220 360.687,29.473 362.228,29.800 362.800 C 30.153 363.417,30.387 365.026,30.411 367.000 C 30.480 372.698,32.044 383.459,33.035 385.060 C 36.146 390.081,38.981 391.442,59.200 397.621 C 67.668 400.209,69.663 400.856,75.769 402.988 C 88.721 407.510,107.376 413.600,108.277 413.600 C 108.492 413.600,111.443 414.503,114.834 415.607 C 118.225 416.712,121.990 417.905,123.200 418.259 C 125.601 418.962,131.890 421.120,136.000 422.650 C 137.430 423.182,140.220 424.166,142.200 424.836 C 144.180 425.506,146.790 426.484,148.000 427.010 C 150.897 428.270,157.396 430.844,163.600 433.190 C 169.317 435.352,172.073 436.685,175.200 438.798 C 180.943 442.679,181.687 442.800,199.781 442.800 L 214.697 442.800 218.848 440.961 C 221.132 439.950,224.080 438.521,225.400 437.786 C 229.643 435.423,235.853 432.913,246.727 429.165 C 249.876 428.080,254.376 426.403,256.727 425.440 C 259.077 424.477,263.160 423.019,265.800 422.200 C 268.440 421.381,271.912 420.190,273.515 419.554 C 275.118 418.917,277.638 418.057,279.115 417.642 C 280.592 417.227,286.210 415.497,291.600 413.798 C 296.990 412.098,304.010 409.898,307.200 408.908 C 316.744 405.947,326.483 402.780,328.400 402.016 C 329.390 401.621,331.190 401.081,332.400 400.816 C 334.516 400.353,335.829 399.962,342.400 397.845 C 344.050 397.313,346.210 396.668,347.200 396.411 C 355.373 394.290,363.566 389.431,364.417 386.200 C 364.648 385.320,365.273 383.778,365.804 382.773 C 368.451 377.769,369.600 372.826,369.600 366.448 C 369.600 362.064,369.758 360.120,370.200 359.062 C 370.530 358.272,370.800 356.844,370.800 355.889 C 370.800 353.521,371.372 352.929,374.400 352.165 C 377.716 351.327,379.780 350.281,381.844 348.392 C 382.748 347.564,384.278 346.536,385.244 346.107 C 387.655 345.035,389.420 343.459,390.673 341.258 C 391.255 340.236,392.133 338.950,392.624 338.400 C 394.073 336.776,396.541 332.460,398.227 328.600 L 399.800 325.000 399.910 304.048 L 400.021 283.095 397.863 278.648 C 394.988 272.723,393.677 271.011,391.091 269.812 C 387.487 268.142,384.185 265.500,384.293 264.373 C 384.948 257.531,385.275 254.641,385.606 252.776 C 386.468 247.914,386.106 236.290,384.993 233.092 C 382.556 226.093,376.701 220.819,372.590 221.918 C 370.404 222.503,363.683 222.554,362.126 221.998 C 361.076 221.622,361.052 221.636,361.776 222.198 C 362.204 222.529,362.768 222.800,363.031 222.800 C 363.623 222.800,363.457 226.772,362.815 227.971 C 362.114 229.281,357.881 230.920,337.000 237.964 C 326.294 241.576,315.198 245.861,312.890 247.275 C 312.169 247.717,310.729 248.313,309.690 248.600 C 308.650 248.888,305.718 249.862,303.174 250.764 C 300.630 251.667,296.220 253.111,293.374 253.974 C 290.528 254.836,286.580 256.099,284.600 256.781 C 282.620 257.463,277.040 259.349,272.200 260.972 C 264.195 263.656,259.746 265.239,246.600 270.082 C 244.180 270.973,240.310 272.384,238.000 273.216 C 225.008 277.900,223.618 278.629,222.862 281.152 C 222.339 282.896,219.817 284.879,216.366 286.260 C 215.505 286.605,214.800 287.065,214.800 287.284 C 214.800 287.795,217.813 287.478,219.429 286.796 C 222.516 285.495,223.980 287.605,223.254 292.310 C 223.025 293.790,222.731 299.770,222.600 305.600 C 222.469 311.430,222.181 320.520,221.960 325.800 C 221.739 331.080,221.395 348.450,221.196 364.400 C 220.958 383.470,220.634 395.728,220.249 400.200 C 219.928 403.940,219.537 411.866,219.381 417.812 C 219.071 429.607,218.845 430.939,216.931 432.225 C 210.115 436.807,193.753 437.276,185.887 433.115 C 182.685 431.421,182.401 430.766,181.962 424.062 C 180.989 409.220,180.735 400.475,180.397 370.200 C 180.196 352.160,179.845 332.900,179.618 327.400 C 179.390 321.900,179.008 312.450,178.769 306.400 C 178.449 298.332,178.167 294.945,177.709 293.692 C 177.262 292.469,177.150 291.214,177.313 289.269 C 177.590 285.965,175.980 281.615,175.041 283.133 C 174.153 284.571,174.126 377.803,175.013 383.600 C 175.131 384.370,175.290 393.985,175.366 404.966 L 175.504 424.932 174.588 425.848 C 173.522 426.914,173.257 426.867,168.000 424.686 C 164.020 423.035,156.487 420.240,142.600 415.264 C 137.100 413.293,128.010 410.025,122.400 408.002 C 107.412 402.595,99.264 399.866,89.404 396.948 C 46.382 384.215,43.084 383.070,42.065 380.515 C 41.820 379.902,41.066 375.080,40.389 369.800 C 39.712 364.520,38.907 358.670,38.601 356.800 C 37.391 349.419,37.870 347.983,42.266 345.813 C 51.554 341.227,56.077 335.942,58.552 326.782 C 61.974 314.122,60.521 299.908,54.710 289.200 C 46.789 274.604,40.934 269.703,29.654 268.228 C 24.809 267.595,23.990 267.054,23.770 264.345 C 23.692 263.385,23.426 259.810,23.179 256.400 C 22.730 250.229,21.957 242.953,21.221 238.000 C 20.601 233.819,21.654 230.894,24.235 229.631 C 25.890 228.821,34.181 231.246,46.000 235.996 C 64.568 243.460,81.590 248.756,87.023 248.759 C 88.576 248.761,90.376 248.973,91.023 249.232 C 92.892 249.979,95.253 250.359,95.096 249.887 C 94.922 249.367,79.763 243.229,70.242 239.825 C 66.259 238.401,60.390 236.213,57.200 234.963 C 54.010 233.714,50.050 232.270,48.400 231.756 C 40.742 229.368,40.273 229.133,39.316 227.193 C 38.015 224.553,38.119 223.113,39.700 221.884 C 40.989 220.882,42.546 219.484,46.269 215.985 C 47.331 214.987,49.622 212.937,51.361 211.430 L 54.522 208.690 58.290 208.955 C 60.422 209.105,62.437 209.466,62.930 209.786 C 63.408 210.096,65.150 210.800,66.800 211.348 C 68.450 211.897,70.811 212.711,72.047 213.158 C 77.211 215.024,83.579 216.415,86.601 216.337 C 89.378 216.266,89.706 216.352,91.969 217.748 C 94.698 219.433,96.418 220.069,105.185 222.634 C 108.603 223.634,113.597 225.160,116.283 226.026 C 118.969 226.892,121.574 227.600,122.072 227.600 L 122.978 227.600 122.089 226.977 C 121.600 226.635,121.200 225.941,121.200 225.436 C 121.200 223.791,113.619 220.633,100.577 216.844 C 91.647 214.250,93.057 212.043,111.795 199.285 C 114.357 197.541,115.025 197.651,120.417 200.714 C 127.027 204.468,131.518 206.616,135.159 207.764 C 137.006 208.347,138.986 209.073,139.559 209.377 C 141.791 210.562,148.668 212.823,149.803 212.745 C 150.461 212.700,151.450 212.800,152.000 212.969 C 155.231 213.956,147.892 210.378,142.200 208.191 C 140.112 207.388,137.196 205.816,124.912 198.871 C 100.777 185.226,83.727 154.878,83.857 125.800 C 83.920 111.961,85.370 101.850,89.096 89.290 C 90.794 83.566,90.861 83.769,86.675 82.003 C 77.218 78.013,67.656 64.428,64.969 51.163 C 61.859 35.818,72.376 15.069,87.000 7.698 C 97.371 2.470,111.124 1.846,120.847 6.163 C 121.591 6.493,123.222 7.043,124.472 7.385 C 128.049 8.363,135.249 15.186,138.826 20.989 C 141.397 25.158,141.691 25.290,145.043 23.776 C 176.719 9.469,226.782 9.687,255.717 24.259 C 258.959 25.892,258.720 26.003,261.766 21.459 C 270.746 8.064,279.491 3.352,295.200 3.446 C 313.191 3.553,326.607 13.376,333.221 31.282 C 340.175 50.111,330.094 75.426,312.893 82.328 C 309.487 83.695,309.471 83.803,311.589 91.114 C 316.657 108.610,317.583 129.791,313.936 144.800 C 309.166 164.428,294.537 186.442,280.113 195.696 C 271.405 201.283,268.340 203.054,261.600 206.390 C 258.850 207.752,256.240 209.061,255.800 209.300 C 250.129 212.379,231.879 216.583,219.878 217.576 C 213.520 218.102,188.407 218.099,183.000 217.571 C 175.969 216.884,169.968 216.672,169.546 217.094 C 169.011 217.629,170.139 218.731,171.528 219.029 C 172.118 219.156,173.590 219.596,174.800 220.007 C 187.563 224.341,217.014 223.843,233.029 219.023 C 234.113 218.697,237.520 217.709,240.600 216.827 C 245.698 215.368,256.073 212.024,261.600 210.058 C 265.853 208.545,272.019 205.668,278.329 202.251 C 287.158 197.470,287.643 197.591,299.217 207.462 C 301.756 209.628,304.301 211.645,304.873 211.944 C 308.769 213.983,306.775 216.938,300.797 217.984 C 297.349 218.587,287.355 221.629,283.600 223.217 C 281.950 223.915,279.250 225.029,277.600 225.693 C 275.950 226.358,273.700 227.310,272.600 227.810 C 271.500 228.310,268.440 229.389,265.800 230.209 C 249.061 235.405,229.201 245.758,220.281 253.938 C 218.916 255.189,216.593 257.253,215.119 258.524 C 209.394 263.458,202.000 273.341,202.000 276.059 C 202.000 278.001,202.828 277.357,207.800 271.551 C 215.203 262.906,222.524 256.192,229.200 251.925 C 233.714 249.039,240.197 245.200,240.557 245.200 C 240.715 245.200,242.552 244.195,244.640 242.966 C 248.047 240.961,259.055 235.795,261.600 235.007 C 262.150 234.837,265.120 233.662,268.200 232.397 C 274.903 229.644,280.474 227.812,294.928 223.608 C 300.908 221.869,308.196 219.626,311.124 218.623 C 314.052 217.620,316.850 216.800,317.342 216.800 C 318.532 216.800,329.463 214.039,335.651 212.175 C 339.581 210.992,340.844 210.429,341.784 209.442 C 342.435 208.759,343.021 208.248,343.086 208.307 C 343.403 208.595,345.213 207.853,344.916 207.556 C 341.994 204.634,334.583 203.843,330.338 206.000 C 328.840 206.761,327.358 207.203,326.288 207.209 C 325.360 207.214,323.790 207.592,322.800 208.050 C 321.810 208.507,319.920 208.973,318.600 209.085 L 316.200 209.289 313.467 207.044 C 311.964 205.810,310.601 204.800,310.439 204.800 C 310.277 204.800,309.359 204.125,308.399 203.300 C 307.440 202.475,305.815 201.260,304.788 200.600 C 294.556 194.021,294.799 194.358,297.907 191.036 C 299.223 189.629,300.811 187.785,301.435 186.939 C 302.059 186.092,303.267 184.680,304.119 183.800 C 304.971 182.920,306.000 181.558,306.405 180.773 C 306.810 179.989,307.448 179.092,307.823 178.781 C 308.443 178.266,312.930 171.599,313.994 169.611 C 314.238 169.156,314.787 167.413,315.216 165.738 C 315.736 163.703,316.858 161.190,318.597 158.160 C 321.016 153.947,321.200 153.456,321.200 151.202 C 321.200 148.979,321.927 146.516,323.621 143.000 C 323.833 142.560,323.972 139.950,323.929 137.200 C 323.886 134.450,324.086 130.822,324.374 129.138 C 324.784 126.738,324.800 125.251,324.449 122.269 C 324.202 120.176,323.999 116.424,323.998 113.932 C 323.996 110.801,323.820 109.064,323.427 108.312 C 323.115 107.714,322.661 105.237,322.418 102.808 C 322.176 100.379,321.802 97.931,321.588 97.370 C 321.375 96.808,321.199 95.505,321.198 94.474 C 321.196 93.443,320.926 92.084,320.598 91.454 C 319.482 89.315,319.789 88.310,321.897 87.199 C 324.460 85.849,333.219 77.194,335.054 74.200 C 340.228 65.755,342.875 58.247,342.812 52.201 C 342.786 49.780,342.882 46.890,343.026 45.779 C 343.195 44.469,343.073 42.920,342.680 41.379 C 342.346 40.070,341.956 38.100,341.812 37.000 C 341.669 35.900,341.310 34.280,341.015 33.400 C 340.720 32.520,340.367 31.173,340.230 30.406 C 339.074 23.902,325.631 6.791,317.638 1.648 L 315.076 0.000 294.038 0.009 L 273.000 0.018 270.600 1.346 C 265.275 4.293,264.133 4.997,262.600 6.276 C 259.674 8.718,258.920 9.583,257.660 11.948 C 255.753 15.526,255.706 15.543,252.086 13.888 C 250.380 13.108,248.087 12.287,246.992 12.063 C 245.896 11.840,243.740 11.205,242.200 10.652 C 236.584 8.637,233.576 7.902,231.989 8.155 C 231.145 8.290,230.009 8.232,229.466 8.025 C 226.168 6.771,200.575 4.550,199.202 5.399 C 199.059 5.487,195.984 5.675,192.371 5.816 C 188.757 5.957,185.094 6.251,184.231 6.470 C 183.367 6.689,181.297 7.019,179.631 7.204 C 177.964 7.388,175.610 7.724,174.400 7.950 C 171.838 8.430,167.141 9.174,164.000 9.599 C 162.790 9.763,160.680 10.370,159.312 10.948 C 157.944 11.527,156.390 12.000,155.860 12.000 C 154.767 12.000,150.359 13.577,147.470 15.000 C 145.162 16.138,144.921 16.066,143.487 13.808 C 142.875 12.844,141.741 11.548,140.967 10.928 C 140.193 10.308,138.894 9.197,138.080 8.460 C 137.266 7.723,136.060 6.842,135.400 6.502 C 134.740 6.162,133.374 5.145,132.364 4.242 C 131.006 3.027,129.540 2.262,126.726 1.300 L 122.923 0.000 104.362 0.016 C 86.111 0.032,85.766 0.047,83.763 0.916 M349.429 210.838 C 350.073 211.629,350.681 212.208,350.779 212.125 C 350.878 212.042,350.351 211.395,349.609 210.687 L 348.258 209.400 349.429 210.838 M355.000 216.400 C 357.192 218.600,359.075 220.400,359.185 220.400 C 359.295 220.400,357.592 218.600,355.400 216.400 C 353.208 214.200,351.325 212.400,351.215 212.400 C 351.105 212.400,352.808 214.200,355.000 216.400 M377.780 229.264 C 379.848 230.206,379.969 232.223,378.607 243.082 C 378.061 247.437,377.336 253.700,376.995 257.000 C 375.958 267.060,376.073 266.893,369.380 268.020 C 359.949 269.608,350.906 276.913,347.619 285.600 C 347.328 286.370,346.323 288.530,345.385 290.400 C 340.849 299.449,339.236 309.281,340.562 319.800 C 342.374 334.178,346.636 340.686,357.973 346.387 C 362.621 348.724,362.900 349.337,361.829 354.857 C 361.113 358.543,360.107 365.382,359.777 368.800 C 358.954 377.334,358.087 381.364,356.836 382.483 C 355.232 383.918,344.673 387.276,323.800 392.991 C 303.004 398.684,297.746 400.404,274.400 409.153 C 266.565 412.089,255.548 415.976,248.200 418.398 C 244.680 419.557,239.370 421.454,236.400 422.611 C 229.329 425.368,228.319 425.633,227.140 425.045 L 226.200 424.576 226.103 405.388 C 226.049 394.835,226.186 383.680,226.407 380.600 C 226.627 377.520,226.981 362.670,227.194 347.600 C 227.407 332.530,227.766 314.530,227.993 307.600 C 228.426 294.386,228.169 288.509,227.019 285.252 C 225.922 282.147,227.780 280.378,234.400 278.229 C 236.050 277.693,239.830 276.340,242.800 275.222 C 245.770 274.104,250.270 272.478,252.800 271.609 C 262.482 268.281,266.513 266.766,276.200 262.817 C 287.504 258.208,291.461 256.708,295.200 255.613 C 296.630 255.195,299.870 254.140,302.400 253.269 C 304.930 252.398,308.170 251.298,309.600 250.825 C 317.047 248.361,327.273 245.052,332.600 243.384 C 335.900 242.350,341.030 240.557,344.000 239.398 C 346.970 238.240,353.990 235.756,359.600 233.879 C 365.210 232.002,370.790 230.098,372.000 229.648 C 374.509 228.714,376.311 228.594,377.780 229.264 M138.800 234.280 C 139.350 234.724,141.960 236.035,144.600 237.195 C 147.240 238.355,151.380 240.420,153.800 241.783 C 156.220 243.146,160.270 245.402,162.800 246.796 C 173.334 252.600,184.099 260.759,190.789 268.010 C 195.543 273.161,196.215 273.329,194.568 268.954 C 190.468 258.062,164.354 239.117,150.211 236.774 C 148.260 236.451,140.217 234.371,138.600 233.771 C 137.968 233.537,138.010 233.644,138.800 234.280 M96.620 250.778 C 97.255 251.409,104.061 253.584,103.902 253.105 C 103.820 252.859,102.338 252.150,100.609 251.529 C 97.373 250.367,95.934 250.096,96.620 250.778 M113.553 257.276 C 114.239 257.978,114.800 258.665,114.800 258.802 C 114.800 259.473,128.974 265.486,135.600 267.625 C 136.810 268.016,142.030 269.803,147.200 271.597 C 152.370 273.392,159.478 275.838,162.997 277.033 C 166.515 278.229,170.428 279.737,171.693 280.384 L 173.993 281.561 175.237 280.425 C 176.824 278.975,176.561 277.843,174.481 277.170 C 173.666 276.906,172.190 276.289,171.200 275.799 C 170.210 275.308,166.109 273.789,162.088 272.421 C 158.066 271.054,152.576 269.118,149.888 268.119 C 138.512 263.891,114.447 256.020,112.853 256.005 C 112.538 256.002,112.836 256.543,113.553 257.276 M34.681 272.586 C 39.156 274.634,46.829 281.943,49.318 286.528 C 50.057 287.887,50.953 289.540,51.309 290.200 C 56.522 299.846,57.207 318.751,52.734 329.497 C 47.689 341.615,33.400 347.374,22.314 341.756 C 0.043 330.471,-4.828 283.458,15.336 274.412 C 22.633 271.138,30.000 270.443,34.681 272.586 M378.179 271.811 C 392.815 275.623,399.805 291.348,395.799 311.445 C 390.630 337.378,374.561 349.647,357.493 340.691 C 345.684 334.495,341.466 315.737,347.218 295.000 C 347.890 292.580,348.585 289.811,348.764 288.847 C 348.943 287.883,349.389 286.926,349.756 286.720 C 350.123 286.515,350.898 285.594,351.477 284.674 C 357.748 274.717,368.833 269.377,378.179 271.811 " stroke="none" fill="#2f1b13" fill-rule="evenodd"></path><path id="path2" d="M346.461 209.299 C 346.208 209.552,346.000 209.622,346.000 209.453 C 346.000 208.990,343.531 210.834,342.467 212.091 C 341.414 213.336,337.309 214.736,325.800 217.779 C 322.060 218.767,314.050 221.026,308.000 222.798 C 301.950 224.569,294.431 226.732,291.291 227.603 C 269.369 233.685,240.192 247.024,227.000 256.994 C 216.341 265.051,202.494 281.503,204.420 283.824 C 206.333 286.129,217.440 282.366,219.501 278.715 C 221.149 275.794,222.933 274.942,238.600 269.585 C 242.340 268.307,249.630 265.704,254.800 263.802 C 259.970 261.900,274.100 256.952,286.200 252.807 C 298.300 248.662,313.447 243.290,319.859 240.871 C 326.272 238.451,335.272 235.194,339.859 233.632 C 360.255 226.688,361.493 226.073,358.894 224.172 C 358.512 223.893,358.200 223.478,358.200 223.249 C 358.200 223.021,357.840 222.542,357.400 222.185 C 356.792 221.691,356.760 221.585,357.267 221.742 C 357.634 221.856,358.030 221.700,358.147 221.395 C 358.279 221.051,358.159 220.918,357.831 221.043 C 357.541 221.155,357.185 220.938,357.041 220.562 C 356.798 219.930,356.731 219.936,356.164 220.639 C 355.726 221.181,355.490 221.256,355.342 220.900 C 355.227 220.625,354.873 220.400,354.554 220.400 C 354.236 220.400,353.871 220.130,353.745 219.800 C 353.618 219.470,353.325 219.200,353.094 219.200 C 352.468 219.200,345.600 212.093,345.600 211.444 C 345.600 211.137,345.870 210.782,346.200 210.655 C 346.530 210.529,346.800 210.129,346.800 209.767 C 346.800 209.162,346.887 209.165,347.849 209.795 C 348.426 210.174,348.776 210.285,348.627 210.044 C 348.112 209.211,346.949 208.811,346.461 209.299 M56.136 212.717 C 55.440 213.093,53.716 214.480,52.304 215.800 C 48.952 218.933,46.418 221.033,44.455 222.306 C 42.192 223.773,41.268 226.028,42.700 226.588 C 43.085 226.739,46.100 227.830,49.400 229.013 C 52.700 230.196,57.290 231.906,59.600 232.813 C 61.910 233.720,68.390 236.138,74.000 238.186 C 79.610 240.234,87.530 243.160,91.600 244.689 C 100.981 248.212,113.301 252.466,161.000 268.655 C 178.877 274.722,178.574 274.573,180.400 278.145 C 182.506 282.265,186.006 283.749,194.900 284.296 C 200.176 284.620,199.903 283.566,192.386 274.577 C 183.249 263.651,174.772 256.758,161.449 249.419 C 158.562 247.829,154.400 245.513,152.200 244.273 C 143.577 239.413,117.873 229.457,99.800 223.975 C 96.060 222.841,91.970 221.483,90.712 220.957 C 89.454 220.430,87.916 220.000,87.295 220.000 C 85.246 220.000,68.854 215.264,62.932 212.960 C 60.049 211.839,57.902 211.762,56.136 212.717 M351.200 212.925 C 351.200 212.994,351.785 213.579,352.500 214.225 L 353.800 215.400 352.625 214.100 C 351.530 212.888,351.200 212.616,351.200 212.925 M354.800 216.543 C 354.800 216.783,358.899 220.800,359.143 220.800 C 359.270 220.800,358.395 219.810,357.200 218.600 C 355.124 216.498,354.800 216.220,354.800 216.543 " stroke="none" fill="#f2edd4" fill-rule="evenodd"></path><path id="path3" d="M100.633 4.419 C 75.483 8.339,59.168 35.198,68.002 58.139 C 72.300 69.303,80.080 78.373,87.927 81.372 C 91.756 82.835,91.917 83.080,91.061 86.133 C 83.210 114.145,82.841 131.942,89.671 153.200 C 100.337 186.401,133.187 209.692,177.800 215.686 C 185.889 216.773,211.351 216.999,220.200 216.063 C 252.823 212.610,281.363 198.476,296.718 178.167 C 315.199 153.725,319.959 123.794,310.543 91.233 C 308.158 82.986,308.162 82.958,312.200 81.499 C 313.960 80.863,316.351 79.626,317.512 78.749 C 347.472 56.146,335.489 8.326,298.870 4.354 C 283.294 2.665,270.892 8.868,262.352 22.617 C 259.280 27.563,259.363 27.529,255.514 25.428 C 227.763 10.286,174.901 10.105,145.110 25.050 C 141.149 27.038,140.641 26.889,138.790 23.200 C 136.842 19.318,129.043 11.039,125.815 9.428 C 118.207 5.629,107.076 3.415,100.633 4.419 M113.937 6.407 C 124.538 8.895,133.852 15.607,137.643 23.488 C 139.993 28.374,140.414 28.490,146.073 25.809 C 155.874 21.166,169.933 17.546,186.000 15.528 C 192.570 14.703,213.374 14.827,219.200 15.725 C 233.870 17.988,248.197 22.318,255.260 26.622 C 259.218 29.034,260.420 28.632,262.800 24.097 C 269.210 11.889,279.968 5.501,294.200 5.452 C 315.185 5.380,330.917 19.630,333.276 40.848 C 335.041 56.713,324.709 75.877,312.076 80.174 C 306.944 81.920,306.883 82.034,308.295 87.200 C 308.806 89.070,309.670 92.220,310.214 94.200 C 316.744 117.958,314.682 143.656,304.749 162.297 C 293.709 183.012,286.193 190.354,264.000 202.102 C 233.229 218.390,180.136 219.945,144.600 205.598 C 96.882 186.332,76.781 144.708,90.362 93.282 C 90.984 90.927,91.821 87.797,92.223 86.327 C 93.233 82.630,92.912 82.052,88.932 80.405 C 81.675 77.401,75.518 71.049,70.899 61.800 C 56.437 32.845,82.680 -0.932,113.937 6.407 M265.741 28.797 C 263.698 29.622,265.317 31.601,275.231 40.400 C 290.490 53.944,294.025 57.659,299.707 66.123 C 303.673 72.031,304.496 72.353,306.787 68.893 C 308.506 66.300,308.375 65.409,305.798 62.169 C 303.394 59.146,302.893 58.474,298.290 52.104 C 288.249 38.207,271.732 26.380,265.741 28.797 M127.900 29.819 C 124.325 31.129,122.945 31.902,116.226 36.357 C 112.228 39.008,105.049 46.893,97.486 56.942 C 95.742 59.259,92.000 66.793,92.000 67.987 C 92.000 68.451,92.700 69.582,93.556 70.500 C 95.526 72.611,96.519 72.301,98.648 68.909 C 106.754 55.993,114.754 47.458,130.417 35.015 C 132.966 32.990,134.396 31.153,134.399 29.900 C 134.400 29.059,130.122 29.006,127.900 29.819 M146.328 108.953 C 140.134 110.636,136.399 118.815,139.191 124.582 C 143.182 132.826,155.625 132.838,159.459 124.603 C 163.219 116.529,154.907 106.623,146.328 108.953 M246.554 109.447 C 240.605 111.557,237.623 119.054,240.506 124.649 C 246.074 135.455,261.629 131.904,261.591 119.836 C 261.566 111.831,254.194 106.737,246.554 109.447 M152.878 111.038 C 160.837 115.137,161.291 124.741,153.707 128.562 C 147.821 131.527,139.593 126.868,139.602 120.574 C 139.613 113.065,146.796 107.905,152.878 111.038 M255.191 111.203 C 264.286 115.894,260.854 129.580,250.579 129.596 C 239.176 129.614,237.026 113.655,248.023 110.623 C 250.542 109.928,253.123 110.137,255.191 111.203 M191.085 131.015 C 175.327 134.149,176.226 146.157,192.906 155.354 C 196.300 157.225,196.716 157.876,197.235 162.120 C 198.525 172.668,185.712 176.723,178.752 167.970 C 174.404 162.500,171.600 161.886,171.600 166.401 C 171.600 175.991,186.181 181.559,196.731 175.998 C 199.372 174.606,200.666 174.511,202.721 175.560 C 208.114 178.311,215.008 178.778,219.277 176.682 C 223.712 174.504,227.994 169.292,228.089 165.955 C 228.153 163.708,225.816 163.262,224.330 165.237 C 215.213 177.361,202.639 175.409,203.082 161.938 C 203.243 157.015,203.240 157.019,208.442 154.200 C 223.750 145.904,223.759 133.702,208.460 130.974 C 204.579 130.281,194.655 130.305,191.085 131.015 M206.410 132.010 C 222.409 133.947,223.082 145.060,207.690 153.153 C 201.958 156.166,202.074 155.986,201.950 162.028 L 201.848 167.056 203.324 169.742 C 205.195 173.146,205.187 173.200,202.855 173.200 C 199.789 173.200,196.817 173.908,194.000 175.308 C 186.329 179.120,175.064 175.361,173.013 168.303 C 171.558 163.300,173.804 163.087,177.189 167.907 C 181.781 174.446,188.772 176.195,194.948 172.352 C 198.186 170.336,198.918 168.238,198.492 162.199 C 198.083 156.419,198.199 156.611,193.666 154.167 C 172.434 142.720,180.405 128.863,206.410 132.010 M193.600 134.593 C 188.140 135.558,185.200 137.403,185.200 139.866 C 185.200 141.575,186.680 142.613,188.969 142.508 C 189.866 142.467,191.500 142.411,192.600 142.384 C 193.700 142.357,195.860 142.088,197.400 141.786 C 198.940 141.485,203.080 141.124,206.600 140.984 C 214.038 140.689,215.600 140.350,215.600 139.031 C 215.600 135.596,202.680 132.990,193.600 134.593 M227.003 165.605 C 228.364 167.807,219.749 176.000,216.074 176.000 C 214.126 176.000,214.549 175.399,217.167 174.444 C 220.932 173.071,223.548 170.403,225.153 166.300 C 225.583 165.199,226.532 164.843,227.003 165.605 M111.898 200.468 C 110.863 201.201,107.988 203.227,105.508 204.972 C 95.726 211.855,94.742 213.265,98.500 215.014 C 99.655 215.552,100.812 215.994,101.070 215.996 C 102.497 216.008,113.128 219.676,121.447 223.027 C 126.701 225.143,133.250 227.741,136.000 228.800 C 140.492 230.531,149.955 234.584,157.323 237.933 C 176.438 246.622,192.129 259.600,198.330 271.851 C 199.947 275.045,200.788 274.705,204.248 269.464 C 214.856 253.388,235.435 239.867,268.600 227.180 C 281.248 222.341,293.738 218.343,299.200 217.386 C 306.395 216.124,307.975 214.241,303.687 212.039 C 302.869 211.619,300.310 209.673,298.000 207.714 C 286.990 198.378,287.093 198.407,279.902 202.643 C 248.427 221.183,207.882 228.683,175.332 221.986 C 152.247 217.236,136.450 211.574,120.836 202.454 C 114.639 198.834,114.310 198.761,111.898 200.468 M287.726 201.261 C 289.103 201.988,293.093 205.093,296.800 208.322 C 298.670 209.950,301.063 211.722,302.119 212.258 C 305.902 214.180,305.038 215.347,299.188 216.218 C 291.118 217.418,284.819 219.359,265.800 226.502 C 254.090 230.901,238.346 238.437,234.000 241.724 C 232.790 242.639,230.377 244.245,228.637 245.293 C 218.990 251.106,209.331 260.292,202.489 270.163 C 200.808 272.588,200.236 272.461,198.133 269.195 C 190.972 258.077,185.483 253.205,168.237 242.659 C 158.378 236.631,155.467 235.208,140.800 229.244 C 138.050 228.126,130.670 225.120,124.400 222.564 C 112.880 217.868,104.268 214.689,101.817 214.230 C 99.604 213.814,99.222 212.917,100.951 212.195 C 101.748 211.862,102.400 211.338,102.400 211.030 C 102.400 210.395,104.618 208.402,105.331 208.397 C 105.589 208.395,107.510 206.867,109.600 205.000 C 114.298 200.804,113.829 200.805,121.549 204.980 C 133.926 211.671,142.197 215.071,155.049 218.748 C 172.321 223.689,184.363 226.400,189.039 226.400 C 189.979 226.400,191.255 226.601,191.874 226.846 C 199.028 229.680,235.654 223.247,255.600 215.654 C 267.923 210.963,279.193 205.423,284.354 201.521 C 285.456 200.688,286.489 200.608,287.726 201.261 M342.767 209.361 C 341.068 211.053,336.195 212.733,324.000 215.831 C 319.270 217.033,313.600 218.570,311.400 219.247 C 309.200 219.924,302.540 221.902,296.600 223.642 C 257.172 235.194,229.425 249.105,214.800 264.653 C 209.603 270.178,203.527 277.744,202.236 280.300 C 201.421 281.913,201.035 281.933,200.398 280.396 C 200.124 279.733,198.996 278.248,197.893 277.096 C 196.789 275.943,194.407 273.290,192.599 271.200 C 175.181 251.062,149.163 237.161,99.000 221.193 C 96.140 220.283,92.904 218.967,91.809 218.269 C 90.055 217.151,89.461 216.994,86.809 216.953 C 82.854 216.891,66.181 212.238,62.111 210.059 C 60.128 208.998,52.800 209.461,52.800 210.647 C 52.800 210.977,52.653 211.156,52.473 211.045 C 52.039 210.777,49.924 212.754,50.188 213.181 C 50.301 213.364,51.060 212.903,51.875 212.157 C 53.040 211.089,53.696 210.800,54.950 210.800 C 55.826 210.800,57.099 210.599,57.779 210.353 C 58.876 209.956,59.816 210.182,66.207 212.376 C 74.948 215.378,84.743 217.995,87.245 217.998 C 88.543 217.999,90.083 218.461,92.445 219.556 C 94.290 220.412,98.590 221.965,102.000 223.008 C 131.887 232.148,162.095 245.977,176.428 257.081 C 184.225 263.120,196.234 275.746,199.805 281.658 C 201.099 283.799,201.749 283.592,203.374 280.523 C 215.163 258.260,247.129 238.958,295.736 224.750 C 302.591 222.746,310.270 220.492,312.800 219.741 C 315.330 218.990,321.090 217.398,325.600 216.202 C 339.120 212.618,343.407 210.923,344.205 208.844 C 344.596 207.824,344.148 207.985,342.767 209.361 M352.400 214.525 C 352.400 214.594,352.985 215.179,353.700 215.825 L 355.000 217.000 353.825 215.700 C 352.730 214.488,352.400 214.216,352.400 214.525 M46.894 215.598 C 45.886 216.537,45.773 216.846,46.490 216.700 C 47.231 216.549,48.082 215.647,47.926 215.179 C 47.850 214.951,47.386 215.140,46.894 215.598 M39.200 222.636 C 39.200 222.972,39.039 223.148,38.843 223.026 C 38.216 222.639,39.998 227.780,40.665 228.283 C 41.017 228.548,43.667 229.565,46.553 230.542 C 49.439 231.519,54.410 233.338,57.600 234.585 C 60.790 235.832,66.100 237.813,69.400 238.987 C 72.700 240.162,80.530 243.053,86.800 245.413 C 93.070 247.772,100.180 250.382,102.600 251.213 C 105.020 252.044,114.650 255.333,124.000 258.523 C 133.350 261.714,144.060 265.431,147.800 266.785 C 151.540 268.139,157.120 270.069,160.200 271.074 C 175.781 276.156,176.738 276.622,178.289 279.885 C 180.093 283.681,181.689 284.784,187.062 285.947 C 203.058 289.411,218.493 286.926,221.825 280.351 C 222.509 279.002,223.262 278.184,224.304 277.662 C 227.790 275.911,266.994 261.910,295.600 252.198 C 304.510 249.173,312.281 246.454,312.868 246.155 C 315.280 244.930,335.850 237.535,356.318 230.537 C 362.274 228.500,362.677 228.158,363.075 224.797 C 363.277 223.092,363.217 222.727,362.762 222.877 C 362.415 222.992,362.154 223.760,362.080 224.887 C 361.889 227.784,362.247 227.613,341.200 234.867 C 333.845 237.402,316.324 243.767,310.200 246.127 C 308.220 246.891,301.830 249.140,296.000 251.126 C 282.995 255.556,266.953 261.170,249.000 267.573 C 222.640 276.975,222.807 276.904,221.330 279.200 C 219.500 282.044,219.150 282.374,216.700 283.569 C 210.254 286.713,198.107 287.272,187.400 284.917 C 182.569 283.855,180.357 282.253,178.851 278.726 C 177.744 276.133,177.462 275.995,164.297 271.593 C 157.864 269.442,148.280 266.144,143.000 264.266 C 137.720 262.387,127.910 258.967,121.200 256.666 C 100.269 249.488,97.333 248.452,84.800 243.815 C 78.090 241.333,71.880 239.075,71.000 238.797 C 70.120 238.519,65.080 236.622,59.800 234.581 C 54.520 232.540,48.670 230.380,46.800 229.782 C 41.342 228.035,39.453 226.808,40.246 225.526 C 40.383 225.305,40.256 224.679,39.966 224.136 C 39.536 223.332,39.533 223.089,39.952 222.830 C 40.353 222.582,40.327 222.458,39.834 222.268 C 39.426 222.112,39.200 222.243,39.200 222.636 M371.600 230.827 C 365.932 232.854,345.974 239.726,328.200 245.772 C 318.960 248.914,308.520 252.515,305.000 253.773 C 301.480 255.032,295.990 256.931,292.800 257.995 C 287.822 259.654,276.966 263.693,268.595 266.999 C 267.273 267.522,263.583 268.878,260.395 270.012 C 257.208 271.147,252.440 272.857,249.800 273.813 C 247.160 274.768,241.670 276.746,237.600 278.207 C 229.640 281.064,227.650 282.319,228.177 284.145 C 229.148 287.510,229.333 295.809,228.865 314.995 C 228.596 325.998,228.287 342.380,228.178 351.400 C 228.068 360.420,227.783 372.030,227.544 377.200 C 227.090 387.051,226.979 423.319,227.402 424.004 C 227.861 424.745,229.277 424.402,234.742 422.228 C 237.744 421.033,244.160 418.713,249.000 417.073 C 257.810 414.087,269.077 410.048,285.200 404.096 C 300.660 398.389,304.493 397.209,331.146 389.958 C 334.306 389.099,339.256 387.657,342.146 386.754 C 345.036 385.851,349.091 384.585,351.158 383.939 C 357.684 381.902,357.009 383.341,358.817 367.600 C 359.082 365.290,359.653 361.330,360.085 358.800 C 361.745 349.091,361.864 349.545,357.022 347.111 C 342.654 339.891,336.490 325.173,339.553 305.400 C 342.838 284.186,354.783 268.829,369.571 266.804 C 374.750 266.095,374.867 265.958,375.580 259.800 C 375.835 257.600,376.502 252.110,377.062 247.600 C 379.060 231.511,379.054 230.781,376.935 229.975 C 375.544 229.446,375.391 229.471,371.600 230.827 M23.361 231.332 C 21.922 232.570,21.682 235.411,22.551 240.898 C 23.331 245.814,24.800 260.194,24.800 262.906 C 24.800 265.446,26.033 266.800,28.347 266.800 C 47.630 266.800,64.772 294.648,61.037 319.906 C 58.854 334.668,53.922 342.036,42.697 347.307 C 38.346 349.349,38.378 349.156,40.382 361.400 C 40.814 364.040,41.455 368.900,41.808 372.200 C 42.877 382.216,41.663 381.213,59.400 386.727 C 72.135 390.686,76.100 391.890,90.600 396.202 C 100.797 399.234,111.367 402.840,132.200 410.394 C 136.380 411.910,142.140 413.980,145.000 414.995 C 154.460 418.351,164.243 422.005,167.645 423.452 C 173.357 425.883,173.077 425.800,173.742 425.249 C 174.349 424.744,174.416 386.731,173.823 379.000 C 173.630 376.493,173.264 339.473,173.025 298.324 C 172.956 286.401,172.825 283.112,172.400 282.601 C 171.385 281.378,168.443 279.952,163.327 278.204 C 139.331 270.005,129.316 266.462,118.600 262.380 C 104.376 256.961,90.347 252.090,70.400 245.644 C 66.990 244.542,60.060 242.085,55.000 240.183 C 30.484 230.969,25.428 229.554,23.361 231.332 M376.976 231.641 C 377.534 232.162,377.317 236.542,376.427 242.720 C 375.993 245.734,375.429 250.270,375.175 252.800 C 373.938 265.098,374.100 264.787,368.414 265.720 C 355.809 267.789,345.860 278.718,340.027 296.904 C 335.705 310.379,337.610 330.473,344.084 339.702 C 345.074 341.113,344.021 341.808,342.882 340.495 C 340.926 338.239,337.600 340.973,337.600 344.835 C 337.600 346.301,335.893 350.570,331.825 359.281 C 329.530 364.195,321.758 368.630,308.562 372.557 C 306.780 373.087,304.583 373.899,303.677 374.360 C 302.772 374.822,301.526 375.200,300.907 375.200 C 300.289 375.200,298.527 375.561,296.991 376.002 C 295.456 376.442,291.230 377.628,287.600 378.635 C 276.828 381.625,265.038 385.905,257.400 389.600 C 255.200 390.664,252.770 391.639,252.000 391.767 C 251.230 391.895,250.090 392.081,249.467 392.179 C 248.844 392.278,247.420 392.945,246.304 393.662 C 245.159 394.397,243.837 394.928,243.272 394.881 C 242.279 394.799,241.732 395.167,239.680 397.300 C 238.543 398.482,236.186 398.826,235.299 397.939 C 234.771 397.411,231.200 398.563,231.200 399.261 C 231.200 400.224,229.435 399.337,229.090 398.200 C 228.610 396.617,228.674 387.314,229.210 380.687 C 229.445 377.779,229.787 373.398,229.970 370.952 C 230.367 365.646,230.738 364.651,231.840 365.938 C 232.246 366.412,232.764 366.800,232.993 366.800 C 233.831 366.800,235.995 371.685,236.005 373.600 C 236.008 374.207,236.636 375.274,237.605 376.317 C 238.482 377.262,239.200 378.167,239.200 378.328 C 239.200 379.201,240.746 379.914,241.661 379.463 C 244.220 378.202,245.955 380.907,245.989 386.211 C 246.009 389.130,248.142 390.632,249.748 388.857 C 251.520 386.899,252.452 370.166,251.601 355.600 C 251.324 350.870,251.076 344.351,251.049 341.114 C 251.009 336.287,250.884 335.113,250.357 334.586 C 249.328 333.556,248.400 334.783,248.400 337.174 C 248.400 338.228,248.225 340.011,248.012 341.137 C 247.799 342.262,247.426 345.211,247.184 347.691 C 246.254 357.213,245.132 360.360,243.133 359.050 C 242.603 358.703,241.142 358.376,239.885 358.324 C 238.628 358.271,237.600 358.076,237.600 357.890 C 237.600 356.078,233.338 358.969,233.016 361.000 C 232.705 362.963,231.780 364.340,231.177 363.737 C 230.163 362.723,229.610 321.602,230.589 320.018 C 231.167 319.082,231.221 294.976,230.651 292.312 C 228.795 283.639,228.996 282.390,232.424 281.271 C 234.376 280.634,249.233 275.314,259.600 271.540 C 263.230 270.219,271.060 267.272,277.000 264.992 C 288.486 260.582,293.622 258.766,325.800 247.736 C 337.020 243.890,351.960 238.759,359.000 236.334 C 366.040 233.908,372.520 231.684,373.400 231.392 C 374.979 230.868,376.242 230.956,376.976 231.641 M35.012 234.167 C 39.185 235.578,46.880 238.354,52.110 240.336 C 57.341 242.317,65.081 245.054,69.310 246.418 C 88.478 252.597,104.250 258.099,122.000 264.795 C 137.004 270.456,141.409 272.016,161.448 278.765 C 169.040 281.321,170.919 282.282,171.496 283.904 C 171.738 284.583,171.908 299.530,171.942 323.200 C 171.972 344.210,172.207 368.240,172.463 376.600 C 173.098 397.352,172.301 412.108,170.580 411.448 C 170.348 411.358,169.919 411.824,169.627 412.483 C 169.229 413.383,169.011 413.547,168.749 413.140 C 168.482 412.728,168.342 412.813,168.153 413.500 C 168.018 413.995,167.748 414.400,167.553 414.400 C 167.359 414.400,167.200 414.841,167.200 415.380 C 167.200 415.919,166.885 416.544,166.500 416.768 C 166.115 416.992,165.948 417.181,166.129 417.188 C 166.309 417.195,166.188 417.469,165.858 417.799 C 165.511 418.147,164.968 418.286,164.564 418.131 C 164.139 417.968,163.966 418.022,164.120 418.271 C 164.588 419.028,161.429 418.403,156.774 416.815 C 147.191 413.548,145.042 412.767,144.580 412.383 C 144.317 412.165,143.175 411.712,142.042 411.375 C 136.647 409.773,135.592 408.826,138.584 408.271 C 139.301 408.139,139.901 407.407,139.707 406.902 C 139.456 406.247,141.976 406.224,143.390 406.868 C 144.267 407.268,144.592 407.209,145.593 406.468 C 147.106 405.350,147.660 405.375,148.733 406.609 C 149.767 407.799,149.563 409.431,148.331 409.822 C 147.580 410.060,147.575 410.110,148.233 410.836 C 149.528 412.267,151.600 411.455,151.600 409.518 C 151.600 408.977,152.104 408.136,152.787 407.537 C 153.878 406.579,153.955 406.339,153.748 404.548 C 153.492 402.327,154.692 401.346,157.184 401.739 C 158.901 402.009,158.753 401.167,156.800 399.551 C 154.546 397.687,154.391 395.069,156.545 395.255 C 161.908 395.717,159.421 392.177,152.200 389.072 C 150.440 388.315,145.940 386.301,142.200 384.597 C 138.460 382.893,133.510 380.788,131.200 379.920 C 123.316 376.957,118.202 375.172,115.400 374.406 C 113.860 373.985,111.520 373.247,110.200 372.767 C 108.880 372.286,106.270 371.479,104.400 370.973 C 102.530 370.466,99.750 369.595,98.222 369.037 C 96.694 368.479,95.379 368.088,95.299 368.168 C 95.219 368.248,94.143 367.705,92.909 366.962 C 91.675 366.219,90.021 365.500,89.233 365.363 C 88.445 365.227,87.080 364.643,86.200 364.066 C 85.320 363.488,83.970 362.721,83.200 362.360 C 81.170 361.408,75.725 356.608,74.258 354.477 C 73.566 353.472,71.560 350.715,69.800 348.350 C 59.049 333.903,59.338 334.609,61.165 327.277 C 65.248 310.884,62.793 296.660,53.330 281.890 C 46.535 271.284,38.390 265.600,29.984 265.600 C 27.129 265.600,26.361 265.032,26.164 262.776 C 26.079 261.799,25.725 257.490,25.377 253.200 C 25.029 248.910,24.479 244.140,24.156 242.600 C 22.594 235.160,22.562 233.824,23.907 232.300 C 24.945 231.122,27.062 231.478,35.012 234.167 M370.332 272.423 C 346.215 276.044,336.169 325.271,356.726 339.089 C 372.750 349.859,389.500 337.224,395.023 310.200 C 399.523 288.180,387.536 269.839,370.332 272.423 M25.200 272.648 C 15.573 274.425,10.756 277.288,7.747 283.021 C -0.926 299.546,4.560 327.172,18.725 338.302 C 31.719 348.512,48.910 341.396,53.272 324.000 C 59.434 299.427,42.999 269.362,25.200 272.648 M377.783 273.812 C 392.898 277.749,398.559 294.557,391.925 315.800 C 385.536 336.262,375.237 344.714,361.992 340.366 C 351.794 337.018,347.607 328.266,347.464 310.000 C 347.290 287.671,362.283 269.775,377.783 273.812 M34.724 274.944 C 41.415 278.391,49.041 289.400,52.219 300.200 C 53.438 304.344,53.457 316.788,52.251 321.000 C 51.936 322.100,51.567 323.655,51.430 324.455 C 49.413 336.236,35.260 344.857,25.200 340.432 C 2.996 330.667,-3.115 285.406,16.526 276.187 C 22.551 273.359,30.584 272.810,34.724 274.944 M179.118 288.300 C 178.089 289.490,178.007 290.845,178.817 293.252 C 179.869 296.374,180.999 331.985,181.404 374.800 C 181.528 387.890,181.799 400.670,182.007 403.200 C 182.215 405.730,182.570 411.400,182.796 415.800 C 183.622 431.880,183.340 430.747,186.934 432.426 C 194.847 436.125,211.719 435.300,216.754 430.969 L 217.790 430.078 218.297 417.339 C 218.576 410.333,218.964 402.800,219.160 400.600 C 219.355 398.400,219.714 386.340,219.958 373.800 C 220.201 361.260,220.591 343.170,220.823 333.600 C 221.055 324.030,221.327 311.880,221.428 306.600 C 221.528 301.320,221.816 295.252,222.068 293.116 C 222.739 287.415,222.515 287.267,216.400 289.390 C 207.723 292.402,190.137 292.100,183.655 288.828 C 180.867 287.421,179.970 287.316,179.118 288.300 M183.209 290.205 C 190.076 293.684,209.769 293.554,218.641 289.970 C 220.620 289.171,221.329 289.682,221.046 291.703 C 220.345 296.717,219.199 334.353,218.783 366.000 C 218.444 391.843,217.891 403.332,216.855 406.056 C 214.284 412.815,202.504 413.788,191.000 408.191 C 189.020 407.228,186.719 406.167,185.886 405.834 C 182.992 404.677,183.102 405.856,182.769 372.600 C 182.501 345.822,182.188 329.595,181.801 322.400 C 181.724 320.970,181.542 315.930,181.396 311.200 C 181.250 306.470,181.077 301.070,181.011 299.200 C 180.931 296.907,180.616 295.111,180.046 293.685 C 178.330 289.395,179.365 288.256,183.209 290.205 M233.590 293.426 C 232.725 295.701,233.350 301.600,234.456 301.600 C 234.865 301.600,235.200 301.330,235.200 301.000 C 235.200 300.670,235.380 300.400,235.600 300.400 C 235.820 300.400,236.000 299.751,236.000 298.957 C 236.000 297.839,236.135 297.566,236.600 297.745 C 237.342 298.029,237.365 297.335,236.709 294.512 C 236.127 292.010,234.362 291.396,233.590 293.426 M249.464 292.927 C 248.686 293.526,247.999 296.730,247.603 301.600 C 247.158 307.067,246.388 312.121,245.913 312.700 C 245.633 313.040,245.633 313.360,245.910 313.700 C 246.134 313.975,246.409 315.100,246.520 316.200 C 246.632 317.300,246.911 318.920,247.141 319.800 C 248.139 323.614,249.170 328.699,249.184 329.876 C 249.203 331.411,249.928 331.986,250.631 331.025 C 250.967 330.566,251.094 329.359,251.004 327.502 C 250.928 325.949,251.045 324.210,251.264 323.639 C 252.234 321.108,252.343 297.603,251.402 293.929 C 251.078 292.663,250.318 292.270,249.464 292.927 M234.162 307.111 C 233.556 307.510,233.078 309.600,233.592 309.600 C 233.817 309.600,234.005 309.915,234.012 310.300 C 234.024 310.962,234.046 310.962,234.436 310.293 C 234.979 309.360,234.752 306.723,234.162 307.111 M340.698 381.508 C 341.307 381.902,342.059 382.003,343.032 381.820 C 347.576 380.968,347.777 382.691,343.299 384.103 C 339.167 385.405,338.256 385.456,337.239 384.439 C 334.549 381.749,337.373 379.355,340.698 381.508 M67.342 381.978 C 68.422 382.389,68.427 384.000,67.348 384.000 C 66.120 384.000,65.254 383.102,65.737 382.329 C 66.272 381.472,66.107 381.508,67.342 381.978 M332.309 382.992 C 332.710 383.333,331.758 384.400,331.053 384.400 C 329.898 384.400,328.926 382.931,329.913 382.678 C 330.510 382.525,331.988 382.719,332.309 382.992 M263.200 404.200 C 263.200 404.559,262.839 404.795,262.300 404.787 C 261.423 404.775,261.419 404.760,262.176 404.187 C 263.141 403.458,263.200 403.459,263.200 404.200 M258.000 406.856 C 258.000 407.107,257.701 407.531,257.335 407.798 C 256.486 408.419,262.495 408.648,264.057 408.054 C 268.129 406.506,269.148 407.544,265.180 409.198 C 263.761 409.789,261.885 410.591,261.011 410.979 C 258.917 411.910,252.616 413.820,250.617 414.131 L 249.033 414.377 250.017 413.476 C 250.557 412.980,251.996 412.106,253.212 411.534 C 255.592 410.415,256.952 409.188,256.122 408.909 C 255.860 408.821,255.744 408.490,255.865 408.174 C 256.014 407.787,255.811 407.600,255.243 407.600 C 253.788 407.600,254.326 406.856,255.900 406.691 C 256.725 406.605,257.535 406.504,257.700 406.467 C 257.865 406.430,258.000 406.605,258.000 406.856 M135.852 408.518 C 136.240 408.907,135.174 408.821,134.200 408.386 C 133.510 408.078,133.549 408.043,134.485 408.132 C 135.082 408.190,135.697 408.363,135.852 408.518 M163.342 415.073 C 162.550 415.359,163.227 416.801,164.147 416.788 C 164.954 416.776,164.959 416.752,164.252 416.341 C 163.706 416.024,163.636 415.825,163.995 415.603 C 164.558 415.255,164.029 414.825,163.342 415.073 " stroke="none" fill="#6e4c39" fill-rule="evenodd"></path><path id="path4" d="M191.600 118.193 C 173.902 121.027,157.586 135.641,152.921 152.836 C 147.596 172.461,165.073 191.691,190.719 194.426 C 216.331 197.157,237.846 189.296,244.979 174.600 C 254.323 155.350,239.864 128.304,216.000 120.393 C 208.438 117.887,198.891 117.026,191.600 118.193 M207.882 129.800 C 224.990 132.575,225.711 146.109,209.223 155.000 C 204.223 157.696,204.000 158.019,204.000 162.576 C 204.000 174.357,215.143 175.191,223.530 164.037 C 225.431 161.509,230.042 163.089,229.447 166.064 C 227.324 176.680,214.937 182.172,203.855 177.412 C 199.869 175.700,199.777 175.697,196.791 177.204 C 189.121 181.076,180.675 180.032,174.322 174.428 C 169.221 169.927,168.842 162.400,173.717 162.400 C 175.407 162.400,175.983 162.878,179.947 167.565 C 186.289 175.066,197.378 171.238,196.072 161.998 C 195.519 158.092,195.493 158.053,192.062 156.148 C 168.201 142.900,178.889 125.098,207.882 129.800 M343.275 210.190 C 340.902 212.583,338.169 213.640,326.800 216.560 C 323.830 217.323,318.340 218.837,314.600 219.924 C 279.828 230.037,279.408 230.172,265.600 235.681 C 234.279 248.177,212.170 264.555,203.593 281.615 L 201.984 284.814 203.034 285.213 C 207.630 286.960,218.466 283.049,220.573 278.882 C 221.683 276.686,224.891 275.221,239.600 270.195 C 247.105 267.631,252.648 265.661,260.600 262.731 C 263.020 261.840,275.260 257.546,287.800 253.190 C 300.340 248.834,315.280 243.535,321.000 241.414 C 326.720 239.293,335.000 236.322,339.400 234.813 C 348.676 231.631,359.380 227.746,360.456 227.170 C 361.236 226.753,361.489 225.600,360.800 225.600 C 360.580 225.600,360.400 225.330,360.400 225.000 C 360.400 224.670,360.580 224.400,360.800 224.400 C 361.393 224.400,361.285 223.742,360.574 223.032 C 360.230 222.688,360.049 222.244,360.172 222.045 C 360.295 221.846,360.115 221.576,359.772 221.445 C 359.424 221.311,359.276 221.001,359.436 220.741 C 359.614 220.453,359.549 220.384,359.265 220.560 C 359.000 220.723,358.174 220.168,357.304 219.241 C 356.477 218.360,355.537 217.585,355.215 217.520 C 354.893 217.454,354.175 216.995,353.619 216.500 C 353.063 216.005,352.381 215.600,352.104 215.600 C 351.827 215.600,351.600 215.340,351.600 215.022 C 351.600 214.705,351.195 214.021,350.700 213.503 C 350.077 212.850,349.982 212.813,350.394 213.380 C 350.733 213.848,350.438 213.701,349.708 213.039 C 349.004 212.400,348.515 211.738,348.620 211.568 C 348.725 211.397,348.365 210.750,347.818 210.129 C 347.016 209.217,346.823 209.137,346.813 209.713 C 346.806 210.104,346.530 210.529,346.200 210.655 C 345.870 210.782,345.600 211.137,345.600 211.444 C 345.600 212.093,352.468 219.200,353.094 219.200 C 353.325 219.200,353.618 219.470,353.745 219.800 C 353.871 220.130,354.236 220.400,354.554 220.400 C 354.873 220.400,355.227 220.625,355.342 220.900 C 355.490 221.256,355.726 221.181,356.164 220.639 C 356.725 219.943,356.800 219.935,357.036 220.551 C 357.214 221.013,357.549 221.143,358.106 220.966 C 358.809 220.743,358.843 220.788,358.360 221.304 C 358.054 221.632,357.533 221.818,357.202 221.717 C 356.835 221.606,356.912 221.788,357.400 222.185 C 357.840 222.542,358.200 223.021,358.200 223.249 C 358.200 223.478,358.512 223.893,358.894 224.172 C 361.493 226.073,360.255 226.688,339.859 233.632 C 335.272 235.194,326.272 238.451,319.859 240.871 C 313.447 243.290,298.300 248.662,286.200 252.807 C 274.100 256.952,259.970 261.900,254.800 263.802 C 249.630 265.704,242.340 268.307,238.600 269.585 C 222.933 274.942,221.149 275.794,219.501 278.715 C 217.440 282.366,206.333 286.129,204.420 283.824 C 202.494 281.503,216.341 265.051,227.000 256.994 C 240.192 247.024,269.369 233.685,291.291 227.603 C 294.431 226.732,301.950 224.569,308.000 222.798 C 314.050 221.026,322.060 218.767,325.800 217.779 C 337.309 214.736,341.414 213.336,342.467 212.091 C 343.417 210.969,345.760 209.152,346.050 209.312 C 346.138 209.360,345.985 209.202,345.711 208.960 C 345.437 208.719,345.330 208.404,345.473 208.260 C 345.616 208.117,345.658 208.010,345.567 208.023 C 345.475 208.035,344.444 209.010,343.275 210.190 M56.800 211.390 C 56.250 211.708,55.530 212.101,55.200 212.262 C 54.870 212.423,54.370 212.783,54.088 213.061 C 53.807 213.339,53.325 213.469,53.018 213.351 C 52.614 213.196,52.519 213.368,52.676 213.968 C 52.825 214.539,52.704 214.800,52.289 214.800 C 51.957 214.800,51.582 215.070,51.455 215.400 C 51.329 215.730,50.994 216.005,50.713 216.012 C 50.431 216.018,49.120 217.007,47.800 218.209 C 46.480 219.411,45.220 220.549,45.000 220.739 C 44.780 220.929,44.102 220.942,43.492 220.768 C 42.824 220.577,42.476 220.600,42.616 220.826 C 42.815 221.148,42.346 221.349,41.575 221.272 C 41.452 221.260,41.338 221.953,41.322 222.813 C 41.306 223.672,41.184 224.811,41.050 225.342 C 40.700 226.738,41.362 227.132,47.961 229.456 C 51.173 230.587,56.860 232.712,60.600 234.177 C 64.340 235.642,70.370 237.894,74.000 239.181 C 77.630 240.467,84.290 242.904,88.800 244.596 C 93.310 246.287,105.820 250.699,116.600 254.399 C 127.380 258.099,140.275 262.574,145.256 264.343 C 150.236 266.113,158.786 269.032,164.256 270.830 C 177.818 275.289,177.999 275.381,179.623 278.647 C 181.616 282.655,183.767 283.765,191.897 284.985 C 200.209 286.232,201.100 285.909,199.203 282.332 C 195.437 275.228,182.772 262.289,172.200 254.743 C 158.928 245.270,128.829 231.962,101.800 223.617 C 98.060 222.463,93.513 220.906,91.695 220.159 C 89.878 219.412,87.893 218.800,87.285 218.800 C 84.736 218.800,71.703 215.097,62.000 211.615 C 59.367 210.671,58.136 210.617,56.800 211.390 M62.932 212.960 C 68.854 215.264,85.246 220.000,87.295 220.000 C 87.916 220.000,89.454 220.430,90.712 220.957 C 91.970 221.483,96.060 222.841,99.800 223.975 C 117.873 229.457,143.577 239.413,152.200 244.273 C 154.400 245.513,158.562 247.829,161.449 249.419 C 174.772 256.758,183.249 263.651,192.386 274.577 C 199.903 283.566,200.176 284.620,194.900 284.296 C 186.006 283.749,182.506 282.265,180.400 278.145 C 178.574 274.573,178.877 274.722,161.000 268.655 C 113.301 252.466,100.981 248.212,91.600 244.689 C 87.530 243.160,79.610 240.234,74.000 238.186 C 68.390 236.138,61.910 233.720,59.600 232.813 C 57.290 231.906,52.700 230.196,49.400 229.013 C 46.100 227.830,43.085 226.739,42.700 226.588 C 41.268 226.028,42.192 223.773,44.455 222.306 C 46.418 221.033,48.952 218.933,52.304 215.800 C 56.676 211.714,58.485 211.230,62.932 212.960 M196.000 233.456 C 191.277 233.901,180.863 236.575,178.881 237.851 C 177.905 238.480,177.485 238.564,171.691 239.286 C 166.997 239.871,166.895 239.693,175.076 245.200 C 186.735 253.047,194.689 260.614,198.763 267.736 C 200.369 270.543,200.791 270.552,202.607 267.815 C 207.228 260.854,220.848 247.978,227.794 244.004 C 231.649 241.798,231.626 241.339,227.600 240.177 C 226.390 239.828,223.246 238.548,220.614 237.333 C 213.004 233.819,205.189 232.588,196.000 233.456 M323.000 284.060 C 321.020 284.949,318.140 286.182,316.600 286.800 C 315.060 287.417,312.173 288.643,310.184 289.523 C 308.195 290.402,304.145 291.870,301.184 292.785 C 295.457 294.553,292.404 295.618,281.080 299.800 C 269.803 303.965,267.173 305.188,266.115 306.759 C 264.971 308.459,264.917 310.221,265.992 310.796 C 267.193 311.438,275.352 309.267,284.600 305.845 C 287.240 304.868,291.920 303.140,295.000 302.004 C 298.080 300.869,303.055 298.971,306.056 297.788 C 309.057 296.605,314.648 294.659,318.481 293.465 C 328.695 290.282,330.000 289.452,330.000 286.137 C 330.000 281.882,328.704 281.497,323.000 284.060 M182.400 293.124 C 182.400 293.339,182.685 293.624,183.033 293.757 C 183.423 293.907,183.606 293.818,183.508 293.525 C 183.309 292.927,182.400 292.598,182.400 293.124 M314.400 307.577 C 313.410 307.989,310.440 309.045,307.800 309.922 C 305.160 310.800,299.220 312.960,294.600 314.722 C 289.980 316.485,285.102 318.212,283.760 318.559 C 278.651 319.882,276.800 321.029,276.800 322.871 C 276.800 325.822,281.387 324.586,313.524 312.973 C 317.056 311.696,317.918 311.042,318.225 309.406 C 318.738 306.672,317.728 306.189,314.400 307.577 " stroke="none" fill="#e3b392" fill-rule="evenodd"></path><path id="path5" d="M98.250 3.822 C 74.736 8.494,58.963 34.396,66.260 56.354 C 70.017 67.660,78.783 78.673,86.675 82.003 C 90.861 83.769,90.794 83.566,89.096 89.290 C 79.601 121.301,82.939 150.455,98.813 174.158 C 104.831 183.144,116.296 194.000,124.912 198.871 C 137.196 205.816,140.112 207.388,142.200 208.191 C 147.892 210.378,155.231 213.956,152.000 212.969 C 151.450 212.800,150.461 212.700,149.803 212.745 C 148.668 212.823,141.791 210.562,139.559 209.377 C 138.986 209.073,137.006 208.347,135.159 207.764 C 131.518 206.616,127.027 204.468,120.417 200.714 C 115.025 197.651,114.357 197.541,111.795 199.285 C 100.204 207.177,94.569 211.906,94.874 213.487 C 95.076 214.537,97.452 215.936,100.577 216.844 C 113.619 220.633,121.200 223.791,121.200 225.436 C 121.200 225.941,121.600 226.635,122.089 226.977 L 122.978 227.600 122.072 227.600 C 121.574 227.600,118.969 226.892,116.283 226.026 C 113.597 225.160,108.603 223.634,105.185 222.634 C 96.419 220.069,94.698 219.433,91.970 217.749 C 89.692 216.343,89.397 216.267,86.481 216.336 C 84.400 216.385,82.492 216.147,80.601 215.604 C 79.062 215.162,77.532 214.816,77.201 214.835 C 75.254 214.948,83.849 216.858,86.615 216.928 C 89.466 216.999,90.056 217.151,91.815 218.273 C 92.907 218.969,96.140 220.283,99.000 221.193 C 149.163 237.161,175.181 251.062,192.599 271.200 C 194.407 273.290,196.789 275.943,197.893 277.096 C 198.996 278.248,200.124 279.733,200.398 280.396 C 201.035 281.933,201.421 281.913,202.236 280.300 C 203.527 277.744,209.603 270.178,214.800 264.653 C 229.425 249.105,257.172 235.194,296.600 223.642 C 302.540 221.902,309.200 219.924,311.400 219.246 C 313.600 218.569,319.000 217.106,323.400 215.996 C 331.599 213.927,340.561 211.227,340.253 210.920 C 340.158 210.825,338.005 211.395,335.467 212.188 C 329.939 213.913,318.595 216.800,317.342 216.800 C 316.850 216.800,314.052 217.620,311.124 218.623 C 308.196 219.626,300.908 221.869,294.928 223.608 C 280.474 227.812,274.903 229.644,268.200 232.397 C 265.120 233.662,262.150 234.837,261.600 235.007 C 259.055 235.795,248.047 240.961,244.640 242.966 C 242.552 244.195,240.715 245.200,240.557 245.200 C 240.197 245.200,233.714 249.039,229.200 251.925 C 222.524 256.192,215.203 262.906,207.800 271.551 C 202.828 277.357,202.000 278.001,202.000 276.059 C 202.000 273.341,209.394 263.458,215.119 258.524 C 216.593 257.253,218.916 255.189,220.281 253.938 C 229.201 245.758,249.061 235.405,265.800 230.209 C 268.440 229.389,271.500 228.310,272.600 227.810 C 273.700 227.310,275.950 226.358,277.600 225.693 C 279.250 225.029,281.950 223.915,283.600 223.217 C 287.355 221.629,297.349 218.587,300.797 217.984 C 306.775 216.938,308.769 213.983,304.873 211.944 C 304.301 211.645,301.756 209.628,299.217 207.462 C 287.643 197.591,287.158 197.470,278.329 202.251 C 272.019 205.668,265.853 208.545,261.600 210.058 C 256.073 212.024,245.698 215.368,240.600 216.827 C 237.520 217.709,234.113 218.697,233.029 219.023 C 217.014 223.843,187.563 224.341,174.800 220.007 C 173.590 219.596,172.118 219.156,171.528 219.029 C 170.139 218.731,169.011 217.629,169.546 217.094 C 169.968 216.672,175.969 216.884,183.000 217.571 C 188.407 218.099,213.520 218.102,219.878 217.576 C 231.879 216.583,250.129 212.379,255.800 209.300 C 256.240 209.061,258.850 207.752,261.600 206.390 C 268.340 203.054,271.405 201.283,280.113 195.696 C 294.537 186.442,309.166 164.428,313.936 144.800 C 317.583 129.791,316.657 108.610,311.589 91.114 C 309.471 83.803,309.487 83.695,312.893 82.328 C 330.094 75.426,340.175 50.111,333.221 31.282 C 326.607 13.376,313.191 3.553,295.200 3.446 C 279.491 3.352,270.746 8.064,261.766 21.459 C 258.720 26.003,258.959 25.892,255.717 24.259 C 226.782 9.687,176.719 9.469,145.043 23.776 C 141.691 25.290,141.397 25.158,138.826 20.989 C 135.249 15.186,128.049 8.363,124.472 7.385 C 123.222 7.043,121.591 6.493,120.847 6.163 C 115.328 3.713,104.463 2.587,98.250 3.822 M114.293 5.394 C 117.995 6.292,123.146 8.095,125.815 9.428 C 129.043 11.039,136.842 19.318,138.790 23.200 C 140.641 26.889,141.149 27.038,145.110 25.050 C 174.901 10.105,227.763 10.286,255.514 25.428 C 259.363 27.529,259.280 27.563,262.352 22.617 C 267.906 13.675,275.558 7.532,283.800 5.400 C 324.144 -5.038,351.519 43.818,322.388 74.267 C 318.530 78.300,315.913 80.157,312.200 81.499 C 308.162 82.958,308.158 82.986,310.543 91.233 C 319.959 123.794,315.199 153.725,296.718 178.167 C 283.932 195.079,261.372 208.142,235.600 213.558 C 210.241 218.888,176.424 217.707,154.400 210.724 C 124.773 201.330,104.668 185.499,93.792 163.000 C 82.829 140.321,82.047 118.296,91.061 86.133 C 91.917 83.080,91.756 82.835,87.927 81.372 C 81.424 78.887,74.504 71.737,70.035 62.887 C 54.857 32.825,82.000 -2.435,114.293 5.394 M146.304 110.546 C 140.974 112.530,138.096 119.040,140.423 123.848 C 144.896 133.087,158.923 130.318,158.966 120.187 C 158.993 113.673,152.068 108.401,146.304 110.546 M248.023 110.623 C 237.026 113.655,239.176 129.614,250.579 129.596 C 256.270 129.587,260.400 125.467,260.400 119.800 C 260.400 113.243,254.469 108.845,248.023 110.623 M195.000 131.874 C 177.199 134.162,176.554 144.941,193.666 154.167 C 198.199 156.611,198.083 156.419,198.492 162.199 C 198.918 168.238,198.186 170.336,194.948 172.352 C 188.772 176.195,181.781 174.446,177.189 167.907 C 173.804 163.087,171.558 163.300,173.013 168.303 C 175.064 175.361,186.329 179.120,194.000 175.308 C 196.817 173.908,199.789 173.200,202.855 173.200 C 205.187 173.200,205.195 173.146,203.324 169.742 L 201.848 167.056 201.950 162.028 C 202.074 155.986,201.958 156.166,207.690 153.153 C 227.252 142.868,218.865 128.806,195.000 131.874 M209.292 135.170 C 213.859 136.342,215.600 137.407,215.600 139.031 C 215.600 140.350,214.038 140.689,206.600 140.984 C 203.080 141.124,198.940 141.485,197.400 141.786 C 195.860 142.088,193.700 142.357,192.600 142.384 C 191.500 142.411,189.866 142.467,188.969 142.508 C 183.897 142.741,183.919 137.944,189.000 135.799 C 193.401 133.941,203.302 133.634,209.292 135.170 M225.153 166.300 C 223.548 170.403,220.932 173.071,217.167 174.444 C 214.549 175.399,214.126 176.000,216.074 176.000 C 219.749 176.000,228.364 167.807,227.003 165.605 C 226.532 164.843,225.583 165.199,225.153 166.300 M120.836 202.454 C 136.450 211.574,152.247 217.236,175.332 221.986 C 207.882 228.683,248.427 221.183,279.902 202.643 C 287.093 198.407,286.990 198.378,298.000 207.714 C 300.310 209.673,302.869 211.619,303.687 212.039 C 307.975 214.241,306.395 216.124,299.200 217.386 C 293.738 218.343,281.248 222.341,268.600 227.180 C 235.435 239.867,214.856 253.388,204.248 269.464 C 200.788 274.705,199.947 275.045,198.330 271.851 C 192.129 259.600,176.438 246.622,157.323 237.933 C 149.955 234.584,140.492 230.531,136.000 228.800 C 133.250 227.741,126.701 225.143,121.447 223.027 C 113.128 219.676,102.497 216.008,101.070 215.996 C 100.812 215.994,99.655 215.552,98.500 215.014 C 94.742 213.265,95.726 211.855,105.508 204.972 C 107.988 203.227,110.863 201.201,111.898 200.468 C 114.310 198.761,114.639 198.834,120.836 202.454 M341.670 209.670 C 340.460 211.139,341.085 211.137,342.472 209.667 C 343.061 209.043,343.330 208.535,343.071 208.536 C 342.812 208.538,342.181 209.048,341.670 209.670 M54.050 209.130 C 53.686 209.381,54.814 209.528,57.400 209.567 C 59.545 209.599,61.640 209.807,62.056 210.030 C 62.959 210.513,71.859 213.605,72.296 213.588 C 72.975 213.561,71.194 212.809,67.600 211.607 C 65.510 210.908,63.408 210.085,62.930 209.778 C 61.876 209.103,54.837 208.589,54.050 209.130 M74.000 214.200 C 74.770 214.497,75.670 214.739,76.000 214.739 C 76.330 214.739,75.970 214.497,75.200 214.200 C 74.430 213.903,73.530 213.661,73.200 213.661 C 72.870 213.661,73.230 213.903,74.000 214.200 M38.667 223.067 C 38.152 223.581,38.441 225.417,39.316 227.193 C 40.273 229.133,40.742 229.368,48.400 231.756 C 50.050 232.270,54.010 233.714,57.200 234.963 C 60.390 236.213,66.259 238.401,70.242 239.825 C 79.763 243.229,94.922 249.367,95.096 249.887 C 95.253 250.359,92.892 249.979,91.023 249.232 C 90.376 248.973,88.576 248.761,87.023 248.759 C 81.590 248.756,64.568 243.460,46.000 235.996 C 34.181 231.246,25.890 228.821,24.235 229.631 C 21.654 230.894,20.601 233.819,21.221 238.000 C 21.957 242.953,22.730 250.229,23.179 256.400 C 23.426 259.810,23.692 263.385,23.770 264.345 C 23.990 267.054,24.809 267.595,29.654 268.228 C 40.934 269.703,46.789 274.604,54.710 289.200 C 60.521 299.908,61.974 314.122,58.552 326.782 C 56.077 335.942,51.554 341.227,42.266 345.813 C 37.870 347.983,37.391 349.419,38.601 356.800 C 38.907 358.670,39.712 364.520,40.389 369.800 C 41.066 375.080,41.820 379.902,42.065 380.515 C 43.084 383.070,46.382 384.215,89.404 396.948 C 99.264 399.866,107.412 402.595,122.400 408.002 C 128.010 410.025,137.100 413.293,142.600 415.264 C 156.487 420.240,164.020 423.035,168.000 424.686 C 173.257 426.867,173.522 426.914,174.588 425.848 L 175.504 424.932 175.366 404.966 C 175.290 393.985,175.131 384.370,175.013 383.600 C 174.126 377.803,174.153 284.571,175.041 283.133 C 175.980 281.615,177.590 285.965,177.313 289.269 C 177.150 291.214,177.262 292.469,177.709 293.692 C 178.167 294.945,178.449 298.332,178.769 306.400 C 179.008 312.450,179.390 321.900,179.618 327.400 C 179.845 332.900,180.196 352.160,180.397 370.200 C 180.735 400.475,180.989 409.220,181.962 424.062 C 182.401 430.766,182.685 431.421,185.887 433.115 C 193.753 437.276,210.115 436.807,216.931 432.225 C 218.845 430.939,219.071 429.607,219.381 417.812 C 219.537 411.866,219.928 403.940,220.249 400.200 C 220.634 395.728,220.958 383.470,221.196 364.400 C 221.395 348.450,221.739 331.080,221.960 325.800 C 222.181 320.520,222.469 311.430,222.600 305.600 C 222.731 299.770,223.025 293.790,223.254 292.310 C 223.980 287.605,222.516 285.495,219.429 286.796 C 217.813 287.478,214.800 287.795,214.800 287.284 C 214.800 287.065,215.505 286.605,216.366 286.260 C 219.817 284.879,222.339 282.896,222.862 281.152 C 223.618 278.629,225.008 277.900,238.000 273.216 C 240.310 272.384,244.180 270.973,246.600 270.082 C 259.746 265.239,264.195 263.656,272.200 260.972 C 277.040 259.349,282.620 257.463,284.600 256.781 C 286.580 256.099,290.528 254.836,293.374 253.974 C 296.220 253.111,300.630 251.667,303.174 250.764 C 305.718 249.862,308.650 248.888,309.690 248.600 C 310.729 248.313,312.169 247.717,312.890 247.275 C 315.198 245.861,326.294 241.576,337.000 237.964 C 363.174 229.134,362.860 229.282,363.344 225.600 L 363.580 223.800 363.016 225.759 C 362.146 228.785,364.264 227.827,339.800 236.258 C 329.880 239.677,314.479 245.337,312.866 246.156 C 312.280 246.454,304.510 249.173,295.600 252.198 C 266.994 261.910,227.790 275.911,224.304 277.662 C 223.262 278.184,222.509 279.002,221.825 280.351 C 218.493 286.926,203.058 289.411,187.062 285.947 C 181.689 284.784,180.093 283.681,178.289 279.885 C 176.738 276.622,175.781 276.156,160.200 271.074 C 157.120 270.069,151.540 268.139,147.800 266.785 C 144.060 265.431,133.350 261.714,124.000 258.523 C 114.650 255.333,105.020 252.044,102.600 251.213 C 100.180 250.382,93.070 247.772,86.800 245.413 C 80.530 243.053,72.700 240.162,69.400 238.987 C 66.100 237.813,60.790 235.833,57.600 234.586 C 54.410 233.340,49.536 231.551,46.769 230.611 C 44.003 229.671,41.361 228.700,40.898 228.453 C 40.021 227.983,38.560 223.912,39.008 223.186 C 39.281 222.745,39.065 222.669,38.667 223.067 M372.000 229.648 C 370.790 230.098,365.210 232.002,359.600 233.879 C 353.990 235.756,346.970 238.240,344.000 239.398 C 341.030 240.557,335.900 242.350,332.600 243.384 C 327.273 245.052,317.047 248.361,309.600 250.825 C 308.170 251.298,304.930 252.398,302.400 253.269 C 299.870 254.140,296.630 255.195,295.200 255.613 C 291.461 256.708,287.504 258.208,276.200 262.817 C 266.513 266.766,262.482 268.281,252.800 271.609 C 250.270 272.478,245.770 274.104,242.800 275.222 C 239.830 276.340,236.050 277.693,234.400 278.229 C 227.780 280.378,225.922 282.147,227.019 285.252 C 228.169 288.509,228.426 294.386,227.993 307.600 C 227.766 314.530,227.407 332.530,227.194 347.600 C 226.981 362.670,226.627 377.520,226.407 380.600 C 226.186 383.680,226.049 394.835,226.103 405.388 L 226.200 424.576 227.140 425.045 C 228.319 425.633,229.329 425.368,236.400 422.611 C 239.370 421.454,244.680 419.557,248.200 418.398 C 255.548 415.976,266.565 412.089,274.400 409.153 C 297.746 400.404,303.004 398.684,323.800 392.991 C 344.673 387.276,355.232 383.918,356.836 382.483 C 358.087 381.364,358.954 377.334,359.777 368.800 C 360.107 365.382,361.113 358.543,361.829 354.857 C 362.900 349.337,362.621 348.724,357.973 346.387 C 346.636 340.686,342.374 334.178,340.562 319.800 C 339.236 309.281,340.849 299.449,345.385 290.400 C 346.323 288.530,347.328 286.370,347.619 285.600 C 350.906 276.913,359.949 269.608,369.380 268.020 C 376.073 266.893,375.958 267.060,376.995 257.000 C 377.336 253.700,378.061 247.437,378.607 243.082 C 380.380 228.948,379.374 226.903,372.000 229.648 M376.935 229.975 C 379.054 230.781,379.060 231.511,377.062 247.600 C 376.502 252.110,375.835 257.600,375.580 259.800 C 374.867 265.958,374.750 266.095,369.571 266.804 C 348.550 269.682,333.860 300.314,340.632 327.149 C 343.080 336.846,347.635 342.394,357.022 347.111 C 361.864 349.545,361.745 349.091,360.085 358.800 C 359.653 361.330,359.082 365.290,358.817 367.600 C 357.009 383.341,357.684 381.902,351.158 383.939 C 349.091 384.585,345.036 385.851,342.146 386.754 C 339.256 387.657,334.306 389.099,331.146 389.958 C 304.493 397.209,300.660 398.389,285.200 404.096 C 269.077 410.048,257.810 414.087,249.000 417.073 C 244.160 418.713,237.744 421.033,234.742 422.228 C 229.277 424.402,227.861 424.745,227.402 424.004 C 226.979 423.319,227.090 387.051,227.544 377.200 C 227.783 372.030,228.068 360.420,228.178 351.400 C 228.287 342.380,228.596 325.998,228.865 314.995 C 229.333 295.809,229.148 287.510,228.177 284.145 C 227.650 282.319,229.640 281.064,237.600 278.207 C 241.670 276.746,247.160 274.768,249.800 273.813 C 252.440 272.857,257.208 271.147,260.395 270.012 C 263.583 268.878,267.273 267.522,268.595 266.999 C 276.966 263.693,287.822 259.654,292.800 257.995 C 295.990 256.931,301.480 255.032,305.000 253.773 C 308.520 252.515,318.960 248.914,328.200 245.772 C 345.974 239.726,365.932 232.854,371.600 230.827 C 375.391 229.471,375.544 229.446,376.935 229.975 M36.662 233.563 C 41.688 235.302,49.940 238.281,55.000 240.183 C 60.060 242.085,66.990 244.542,70.400 245.644 C 90.347 252.090,104.376 256.961,118.600 262.380 C 129.316 266.462,139.331 270.005,163.327 278.204 C 168.443 279.952,171.385 281.378,172.400 282.601 C 172.825 283.112,172.956 286.401,173.025 298.324 C 173.264 339.473,173.630 376.493,173.823 379.000 C 174.416 386.731,174.349 424.744,173.742 425.249 C 173.077 425.800,173.357 425.883,167.645 423.452 C 164.243 422.005,154.460 418.351,145.000 414.995 C 142.140 413.980,136.380 411.910,132.200 410.394 C 111.367 402.840,100.797 399.234,90.600 396.202 C 48.226 383.601,43.636 381.996,42.856 379.502 C 42.632 378.786,42.160 375.500,41.808 372.200 C 41.455 368.900,40.814 364.040,40.382 361.400 C 38.378 349.156,38.346 349.349,42.697 347.307 C 53.922 342.036,58.854 334.668,61.037 319.906 C 64.772 294.648,47.630 266.800,28.347 266.800 C 26.033 266.800,24.800 265.446,24.800 262.906 C 24.800 260.194,23.331 245.814,22.551 240.898 C 20.731 229.412,22.305 228.594,36.662 233.563 M143.800 235.254 C 146.220 235.907,149.105 236.590,150.211 236.774 C 164.354 239.117,190.468 258.062,194.568 268.954 C 196.215 273.329,195.543 273.161,190.789 268.010 C 184.099 260.759,173.334 252.600,162.800 246.796 C 160.270 245.402,156.220 243.146,153.800 241.783 C 151.380 240.420,147.240 238.355,144.600 237.195 C 140.513 235.399,135.919 232.778,138.600 233.771 C 139.040 233.935,141.380 234.602,143.800 235.254 M100.609 251.529 C 102.338 252.150,103.820 252.859,103.902 253.105 C 104.061 253.584,97.255 251.409,96.620 250.778 C 95.934 250.096,97.373 250.367,100.609 251.529 M117.200 257.146 C 124.902 259.448,142.002 265.188,149.888 268.119 C 152.576 269.118,158.066 271.054,162.088 272.421 C 166.109 273.789,170.210 275.308,171.200 275.799 C 172.190 276.289,173.666 276.906,174.481 277.170 C 176.561 277.843,176.824 278.975,175.237 280.425 L 173.993 281.561 171.693 280.384 C 170.428 279.737,166.515 278.229,162.997 277.033 C 159.478 275.838,152.370 273.392,147.200 271.597 C 142.030 269.803,136.810 268.016,135.600 267.625 C 128.974 265.486,114.800 259.473,114.800 258.802 C 114.800 258.665,114.239 257.978,113.553 257.276 C 112.023 255.712,112.361 255.700,117.200 257.146 M23.938 271.773 C 14.011 273.524,8.201 277.863,5.417 285.600 C -1.999 306.216,6.245 333.613,22.314 341.756 C 33.400 347.374,47.689 341.615,52.734 329.497 C 57.207 318.751,56.522 299.846,51.309 290.200 C 50.953 289.540,50.057 287.887,49.318 286.528 C 46.829 281.943,39.156 274.634,34.681 272.586 C 31.895 271.310,28.160 271.028,23.938 271.773 M369.000 271.493 C 362.524 273.111,355.370 278.493,351.477 284.674 C 350.898 285.594,350.123 286.515,349.756 286.720 C 349.389 286.926,348.943 287.883,348.764 288.847 C 348.585 289.811,347.890 292.580,347.218 295.000 C 341.466 315.737,345.684 334.495,357.493 340.691 C 368.273 346.347,378.560 343.806,386.629 333.492 C 396.647 320.689,399.952 297.056,393.518 284.230 C 389.051 275.324,377.559 269.353,369.000 271.493 M379.506 273.266 C 396.280 278.645,401.133 303.782,389.776 326.464 C 377.441 351.102,350.041 346.930,346.187 319.827 C 342.242 292.082,360.150 267.058,379.506 273.266 M34.945 273.943 C 44.605 278.699,53.627 294.450,54.405 307.916 C 55.553 327.799,49.115 339.314,35.000 342.622 C 15.002 347.310,-2.678 314.378,5.675 288.000 C 8.639 278.641,13.518 274.804,25.200 272.648 C 28.133 272.106,32.354 272.667,34.945 273.943 M183.655 288.828 C 190.137 292.100,207.723 292.402,216.400 289.390 C 222.515 287.267,222.739 287.415,222.068 293.116 C 221.816 295.252,221.528 301.320,221.428 306.600 C 221.327 311.880,221.055 324.030,220.823 333.600 C 220.591 343.170,220.201 361.260,219.958 373.800 C 219.714 386.340,219.355 398.400,219.160 400.600 C 218.964 402.800,218.576 410.333,218.297 417.339 L 217.790 430.078 216.754 430.969 C 211.719 435.300,194.847 436.125,186.934 432.426 C 183.340 430.747,183.622 431.880,182.796 415.800 C 182.570 411.400,182.215 405.730,182.007 403.200 C 181.799 400.670,181.528 387.890,181.404 374.800 C 180.999 331.985,179.869 296.374,178.817 293.252 C 177.148 288.297,179.089 286.523,183.655 288.828 " stroke="none" fill="#55321f" fill-rule="evenodd"></path></g></svg>