<svg id="svg" version="1.1" xmlns="http://www.w3.org/2000/svg" xmlns:xlink="http://www.w3.org/1999/xlink" width="400" height="403.9344262295082" viewBox="0, 0, 400,403.9344262295082"><g id="svgg"><path id="path0" d="M28.400 0.400 C 28.400 0.620,28.040 0.800,27.600 0.800 C 27.156 0.800,26.800 1.067,26.800 1.400 C 26.800 1.800,26.400 2.000,25.600 2.000 C 24.800 2.000,24.400 2.200,24.400 2.600 C 24.400 2.937,24.043 3.200,23.584 3.200 C 22.580 3.200,20.400 4.758,20.400 5.475 C 20.400 5.793,19.921 6.000,19.187 6.000 C 18.479 6.000,17.879 6.249,17.745 6.600 C 17.618 6.930,17.264 7.200,16.957 7.200 C 16.651 7.200,16.400 7.470,16.400 7.800 C 16.400 8.130,16.130 8.400,15.800 8.400 C 15.470 8.400,14.871 8.729,14.469 9.131 C 14.068 9.532,13.438 9.977,13.069 10.118 C 12.701 10.259,12.400 10.561,12.400 10.787 C 12.400 11.014,12.130 11.200,11.800 11.200 C 11.470 11.200,11.200 11.470,11.200 11.800 C 11.200 12.130,10.930 12.400,10.600 12.400 C 10.267 12.400,10.000 12.756,10.000 13.200 C 10.000 13.640,9.799 14.000,9.553 14.000 C 8.950 14.000,6.000 16.981,6.000 17.590 C 6.000 17.856,5.640 18.531,5.200 19.091 C 4.647 19.793,4.400 20.714,4.400 22.066 C 4.400 23.438,4.220 24.094,3.800 24.255 C 3.456 24.387,3.200 24.985,3.200 25.655 C 3.200 26.326,2.944 26.923,2.600 27.055 C 2.162 27.223,2.000 27.912,2.000 29.600 C 2.000 31.288,1.838 31.977,1.400 32.145 C 0.881 32.344,0.800 34.412,0.800 47.387 C 0.800 57.129,0.660 62.400,0.400 62.400 C -0.222 62.400,-0.125 71.083,0.500 71.335 C 0.900 71.496,0.900 71.543,0.500 71.568 C -0.112 71.607,-0.211 76.400,0.400 76.400 C 0.620 76.400,0.800 77.030,0.800 77.800 C 0.800 78.806,0.977 79.200,1.429 79.200 C 1.774 79.200,2.327 79.470,2.657 79.800 C 3.061 80.204,4.065 80.400,5.732 80.400 C 7.774 80.400,8.295 80.540,8.707 81.200 C 9.490 82.454,48.746 82.454,50.000 81.200 C 50.622 80.578,51.333 80.400,53.200 80.400 C 54.983 80.400,55.600 80.257,55.600 79.844 C 55.600 79.506,56.150 79.223,57.000 79.124 C 58.342 78.967,58.400 79.014,58.400 80.238 C 58.400 81.659,58.910 82.000,61.033 82.000 L 62.400 82.000 62.400 155.613 C 62.400 220.677,62.470 229.252,63.000 229.455 C 63.911 229.805,63.911 330.044,63.000 330.800 C 62.094 331.552,62.094 370.708,63.000 371.055 C 63.421 371.217,63.600 371.873,63.600 373.255 C 63.600 374.637,63.779 375.294,64.200 375.455 C 64.594 375.607,64.800 376.232,64.800 377.280 C 64.800 378.538,64.969 378.919,65.600 379.084 C 66.201 379.241,66.400 379.630,66.400 380.647 C 66.400 381.583,66.585 382.000,67.000 382.000 C 67.400 382.000,67.600 382.400,67.600 383.200 C 67.600 384.000,67.800 384.400,68.200 384.400 C 68.601 384.400,68.800 384.801,68.800 385.613 C 68.800 386.321,69.049 386.921,69.400 387.055 C 69.730 387.182,70.000 387.536,70.000 387.843 C 70.000 388.149,70.360 388.400,70.800 388.400 C 71.424 388.400,71.600 388.667,71.600 389.613 C 71.600 390.321,71.849 390.921,72.200 391.055 C 72.530 391.182,72.800 391.536,72.800 391.843 C 72.800 392.149,73.070 392.400,73.400 392.400 C 73.730 392.400,74.000 392.670,74.000 393.000 C 74.000 393.333,74.356 393.600,74.800 393.600 C 75.333 393.600,75.600 393.867,75.600 394.400 C 75.600 394.844,75.867 395.200,76.200 395.200 C 76.530 395.200,76.800 395.470,76.800 395.800 C 76.800 396.130,77.070 396.400,77.400 396.400 C 77.730 396.400,78.000 396.670,78.000 397.000 C 78.000 397.330,78.270 397.600,78.600 397.600 C 78.930 397.600,79.200 397.858,79.200 398.173 C 79.200 398.488,79.560 398.860,80.000 399.000 C 80.440 399.140,80.800 399.512,80.800 399.827 C 80.800 400.265,81.404 400.400,83.357 400.400 C 85.261 400.400,85.973 400.553,86.145 401.000 C 86.302 401.411,86.945 401.600,88.187 401.600 C 89.532 401.600,90.000 401.755,90.000 402.200 C 90.000 402.661,90.511 402.800,92.200 402.800 C 93.410 402.800,94.400 402.980,94.400 403.200 C 94.400 403.466,129.933 403.600,200.200 403.600 C 270.467 403.600,306.000 403.466,306.000 403.200 C 306.000 402.978,307.071 402.800,308.413 402.800 C 310.188 402.800,310.886 402.642,311.055 402.200 C 311.197 401.830,311.805 401.600,312.643 401.600 C 313.583 401.600,314.000 401.415,314.000 401.000 C 314.000 400.599,314.401 400.400,315.213 400.400 C 315.898 400.400,316.521 400.150,316.646 399.824 C 316.767 399.508,317.392 399.134,318.033 398.993 C 318.675 398.852,319.200 398.481,319.200 398.168 C 319.200 397.802,319.632 397.600,320.413 397.600 C 321.121 397.600,321.721 397.351,321.855 397.000 C 321.982 396.670,322.336 396.400,322.643 396.400 C 322.949 396.400,323.200 396.144,323.200 395.832 C 323.200 395.519,323.740 395.145,324.400 395.000 C 325.060 394.855,325.600 394.481,325.600 394.168 C 325.600 393.856,325.960 393.600,326.400 393.600 C 326.844 393.600,327.200 393.333,327.200 393.000 C 327.200 392.670,327.470 392.400,327.800 392.400 C 328.253 392.400,328.400 391.911,328.400 390.400 C 328.400 388.939,328.553 388.400,328.968 388.400 C 329.281 388.400,329.652 387.875,329.793 387.233 C 329.934 386.592,330.308 385.967,330.624 385.846 C 330.941 385.724,331.200 385.164,331.200 384.600 C 331.200 384.036,331.470 383.471,331.800 383.345 C 332.135 383.216,332.400 382.622,332.400 382.000 C 332.400 381.378,332.665 380.784,333.000 380.655 C 333.343 380.524,333.600 379.927,333.600 379.259 C 333.600 378.430,333.831 378.033,334.400 377.884 C 334.948 377.741,335.200 377.338,335.200 376.609 C 335.200 376.023,335.470 375.273,335.800 374.943 C 336.130 374.613,336.400 373.636,336.400 372.771 C 336.400 371.641,336.568 371.200,337.000 371.200 C 337.462 371.200,337.600 370.683,337.600 368.944 C 337.600 367.306,337.781 366.556,338.262 366.204 C 338.699 365.885,338.990 364.921,339.119 363.375 C 339.226 362.085,339.571 360.772,339.886 360.457 C 340.699 359.644,340.476 348.940,339.635 348.421 C 339.158 348.127,339.174 347.969,339.735 347.408 C 340.640 346.503,340.757 329.600,339.858 329.600 C 339.560 329.600,339.148 329.015,338.943 328.300 L 338.570 327.000 323.620 326.895 C 313.398 326.823,308.501 326.650,308.135 326.346 C 307.740 326.019,307.445 326.030,307.011 326.391 C 306.540 326.782,306.294 326.751,305.783 326.240 C 304.988 325.445,304.633 325.437,304.000 326.200 C 303.424 326.894,302.133 327.000,301.923 326.370 C 301.657 325.570,296.749 325.382,296.187 326.151 C 295.756 326.740,295.665 326.747,295.460 326.212 C 295.151 325.406,293.737 325.427,293.279 326.244 C 292.948 326.835,292.899 326.835,292.672 326.244 C 292.486 325.759,291.877 325.600,290.213 325.600 C 288.039 325.600,287.098 324.832,288.577 324.264 C 289.272 323.997,289.436 316.566,288.764 315.757 C 288.480 315.414,288.514 315.000,288.877 314.407 C 289.322 313.678,289.302 313.479,288.742 313.062 C 288.171 312.638,288.158 312.473,288.642 311.810 C 289.361 310.826,289.351 309.809,288.615 309.072 C 288.113 308.571,288.030 304.446,288.026 279.944 C 288.018 237.355,287.868 229.359,287.060 228.466 C 286.697 228.065,286.400 227.076,286.400 226.269 L 286.400 224.800 301.000 224.800 L 315.600 224.800 315.600 238.813 C 315.600 250.899,315.682 252.857,316.200 253.055 C 316.647 253.227,316.800 253.940,316.800 255.855 C 316.800 257.771,316.953 258.484,317.400 258.655 C 317.734 258.784,318.000 259.378,318.000 259.998 C 318.000 260.953,318.198 261.148,319.400 261.374 C 320.238 261.531,320.800 261.870,320.800 262.218 C 320.800 262.641,321.292 262.800,322.600 262.800 C 323.933 262.800,324.400 262.644,324.400 262.200 C 324.400 261.796,324.804 261.600,325.637 261.600 C 326.538 261.600,326.932 261.383,327.084 260.800 C 327.220 260.279,327.630 260.000,328.259 260.000 C 328.790 260.000,329.329 259.730,329.455 259.400 C 329.582 259.070,329.891 258.797,330.143 258.793 C 330.720 258.784,332.400 257.036,332.400 256.444 C 332.400 256.200,332.670 256.000,333.000 256.000 C 333.330 256.000,333.600 255.730,333.600 255.400 C 333.600 255.067,333.956 254.800,334.400 254.800 C 334.844 254.800,335.200 254.533,335.200 254.200 C 335.200 253.870,335.470 253.600,335.800 253.600 C 336.130 253.600,336.400 253.330,336.400 253.000 C 336.400 252.670,336.642 252.400,336.938 252.400 C 337.234 252.400,337.802 252.040,338.200 251.600 C 338.598 251.160,339.069 250.800,339.245 250.800 C 339.757 250.800,342.800 247.772,342.800 247.262 C 342.800 247.008,343.076 246.800,343.413 246.800 C 343.749 246.800,344.129 246.530,344.255 246.200 C 344.382 245.870,344.736 245.600,345.043 245.600 C 345.349 245.600,345.600 245.330,345.600 245.000 C 345.600 244.670,345.870 244.400,346.200 244.400 C 346.530 244.400,346.800 244.130,346.800 243.800 C 346.800 243.470,347.070 243.200,347.400 243.200 C 347.733 243.200,348.000 242.844,348.000 242.400 C 348.000 241.867,348.267 241.600,348.800 241.600 C 349.244 241.600,349.600 241.333,349.600 241.000 C 349.600 240.670,349.870 240.400,350.200 240.400 C 350.530 240.400,350.800 240.130,350.800 239.800 C 350.800 239.429,351.176 239.200,351.786 239.200 C 352.362 239.200,352.950 238.868,353.200 238.400 C 353.435 237.960,353.892 237.600,354.214 237.600 C 354.536 237.600,354.800 237.330,354.800 237.000 C 354.800 236.670,355.070 236.400,355.400 236.400 C 355.730 236.400,356.000 236.130,356.000 235.800 C 356.000 235.470,356.270 235.200,356.600 235.200 C 356.930 235.200,357.200 234.930,357.200 234.600 C 357.200 234.270,357.487 234.000,357.837 234.000 C 358.188 234.000,358.569 233.640,358.684 233.200 C 358.820 232.679,359.230 232.400,359.859 232.400 C 360.390 232.400,360.929 232.130,361.055 231.800 C 361.182 231.470,361.536 231.200,361.843 231.200 C 362.149 231.200,362.400 230.930,362.400 230.600 C 362.400 230.270,362.625 229.997,362.900 229.993 C 363.510 229.985,365.200 228.258,365.200 227.644 C 365.200 227.400,365.470 227.200,365.800 227.200 C 366.130 227.200,366.400 226.930,366.400 226.600 C 366.400 226.267,366.756 226.000,367.200 226.000 C 367.644 226.000,368.000 225.733,368.000 225.400 C 368.000 225.070,368.270 224.800,368.600 224.800 C 368.930 224.800,369.200 224.548,369.200 224.239 C 369.200 223.931,369.740 223.490,370.400 223.260 C 371.060 223.030,371.600 222.652,371.600 222.421 C 371.600 222.189,371.786 222.000,372.013 222.000 C 372.241 222.000,372.955 221.460,373.600 220.800 C 374.245 220.140,374.959 219.600,375.187 219.600 C 375.414 219.600,375.600 219.240,375.600 218.800 C 375.600 218.267,375.867 218.000,376.400 218.000 C 376.844 218.000,377.200 217.733,377.200 217.400 C 377.200 217.070,377.470 216.800,377.800 216.800 C 378.130 216.800,378.400 216.550,378.400 216.243 C 378.400 215.937,378.862 215.571,379.428 215.429 C 379.993 215.287,380.977 214.637,381.614 213.985 C 382.252 213.333,382.959 212.800,383.187 212.800 C 383.414 212.800,383.600 212.530,383.600 212.200 C 383.600 211.870,383.870 211.600,384.200 211.600 C 384.530 211.600,384.800 211.330,384.800 211.000 C 384.800 210.670,385.087 210.400,385.437 210.400 C 385.788 210.400,386.169 210.040,386.284 209.600 C 386.399 209.160,386.723 208.800,387.004 208.800 C 387.285 208.800,387.618 208.530,387.745 208.200 C 387.871 207.870,388.431 207.600,388.987 207.600 C 389.621 207.600,390.000 207.375,390.000 207.000 C 390.000 206.670,390.276 206.400,390.613 206.400 C 390.949 206.400,391.329 206.130,391.455 205.800 C 391.582 205.470,391.936 205.200,392.243 205.200 C 392.549 205.200,392.800 204.840,392.800 204.400 C 392.800 203.956,393.067 203.600,393.400 203.600 C 393.730 203.600,394.000 203.330,394.000 203.000 C 394.000 202.670,394.248 202.400,394.551 202.400 C 394.854 202.400,395.326 202.130,395.600 201.800 C 395.874 201.470,396.453 201.200,396.886 201.200 C 397.329 201.200,397.763 200.861,397.877 200.428 C 397.988 200.003,398.331 199.559,398.639 199.440 C 398.992 199.305,399.200 198.627,399.200 197.613 C 399.200 196.726,399.380 196.000,399.600 196.000 C 399.820 196.000,400.000 195.100,400.000 194.000 C 400.000 192.900,399.820 192.000,399.600 192.000 C 399.380 192.000,399.200 191.370,399.200 190.600 C 399.200 189.622,399.019 189.200,398.600 189.200 C 398.270 189.200,398.000 188.930,398.000 188.600 C 398.000 188.270,397.730 188.000,397.400 188.000 C 397.070 188.000,396.800 187.730,396.800 187.400 C 396.800 187.067,396.444 186.800,396.000 186.800 C 395.556 186.800,395.200 186.533,395.200 186.200 C 395.200 185.870,394.930 185.600,394.600 185.600 C 394.270 185.600,394.000 185.348,394.000 185.039 C 394.000 184.731,393.460 184.290,392.800 184.060 C 392.140 183.830,391.600 183.452,391.600 183.221 C 391.600 182.989,391.240 182.800,390.800 182.800 C 390.356 182.800,390.000 182.533,390.000 182.200 C 390.000 181.870,389.730 181.600,389.400 181.600 C 389.070 181.600,388.800 181.324,388.800 180.987 C 388.800 180.651,388.530 180.271,388.200 180.145 C 387.870 180.018,387.600 179.664,387.600 179.357 C 387.600 179.051,387.324 178.800,386.987 178.800 C 386.651 178.800,386.271 178.530,386.145 178.200 C 386.018 177.870,385.664 177.600,385.357 177.600 C 385.051 177.600,384.800 177.330,384.800 177.000 C 384.800 176.670,384.570 176.400,384.289 176.400 C 384.008 176.400,383.470 176.040,383.093 175.600 C 382.716 175.160,382.046 174.800,381.604 174.800 C 381.156 174.800,380.800 174.534,380.800 174.200 C 380.800 173.870,380.530 173.600,380.200 173.600 C 379.870 173.600,379.600 173.330,379.600 173.000 C 379.600 172.670,379.330 172.400,379.000 172.400 C 378.670 172.400,378.400 172.130,378.400 171.800 C 378.400 171.427,378.023 171.200,377.403 171.200 C 376.840 171.200,376.190 170.852,375.907 170.400 C 375.632 169.960,375.181 169.600,374.904 169.600 C 374.627 169.600,374.400 169.330,374.400 169.000 C 374.400 168.670,374.130 168.400,373.800 168.400 C 373.470 168.400,373.200 168.130,373.200 167.800 C 373.200 167.467,372.844 167.200,372.400 167.200 C 371.948 167.200,371.600 166.933,371.600 166.587 C 371.600 166.251,371.330 165.871,371.000 165.745 C 370.670 165.618,370.400 165.264,370.400 164.957 C 370.400 164.651,370.130 164.400,369.800 164.400 C 369.470 164.400,369.200 164.130,369.200 163.800 C 369.200 163.467,368.844 163.200,368.400 163.200 C 367.956 163.200,367.600 162.933,367.600 162.600 C 367.600 162.268,367.245 162.000,366.803 162.000 C 366.365 162.000,365.782 161.640,365.507 161.200 C 365.232 160.760,364.781 160.400,364.504 160.400 C 364.227 160.400,364.000 160.130,364.000 159.800 C 364.000 159.470,363.749 159.200,363.443 159.200 C 363.136 159.200,362.782 158.930,362.655 158.600 C 362.529 158.270,362.149 158.000,361.813 158.000 C 361.476 158.000,361.200 157.730,361.200 157.400 C 361.200 157.070,360.951 156.800,360.647 156.800 C 360.342 156.800,359.999 156.440,359.884 156.000 C 359.769 155.560,359.407 155.200,359.080 155.200 C 358.753 155.200,358.382 154.930,358.255 154.600 C 358.129 154.270,357.569 154.000,357.013 154.000 C 356.379 154.000,356.000 153.775,356.000 153.400 C 356.000 153.070,355.730 152.800,355.400 152.800 C 355.070 152.800,354.800 152.596,354.800 152.346 C 354.800 151.812,352.930 150.000,352.379 150.000 C 352.171 150.000,352.000 149.730,352.000 149.400 C 352.000 149.000,351.600 148.800,350.800 148.800 C 350.000 148.800,349.600 148.600,349.600 148.200 C 349.600 147.867,349.244 147.600,348.800 147.600 C 348.267 147.600,348.000 147.333,348.000 146.800 C 348.000 146.356,347.733 146.000,347.400 146.000 C 347.070 146.000,346.800 145.730,346.800 145.400 C 346.800 145.070,346.530 144.800,346.200 144.800 C 345.870 144.800,345.600 144.530,345.600 144.200 C 345.600 143.870,345.330 143.600,345.000 143.600 C 344.670 143.600,344.400 143.342,344.400 143.027 C 344.400 142.712,344.040 142.340,343.600 142.200 C 343.160 142.060,342.800 141.688,342.800 141.373 C 342.800 141.058,342.530 140.800,342.200 140.800 C 341.870 140.800,341.600 140.530,341.600 140.200 C 341.600 139.870,341.349 139.600,341.043 139.600 C 340.736 139.600,340.382 139.330,340.255 139.000 C 340.121 138.649,339.521 138.400,338.813 138.400 C 337.867 138.400,337.600 138.224,337.600 137.600 C 337.600 137.156,337.333 136.800,337.000 136.800 C 336.670 136.800,336.400 136.530,336.400 136.200 C 336.400 135.870,336.130 135.600,335.800 135.600 C 335.470 135.600,335.200 135.330,335.200 135.000 C 335.200 134.667,334.844 134.400,334.400 134.400 C 333.956 134.400,333.600 134.133,333.600 133.800 C 333.600 133.470,333.370 133.200,333.089 133.200 C 332.808 133.200,332.270 132.840,331.893 132.400 C 331.516 131.960,330.955 131.600,330.647 131.600 C 330.338 131.600,329.982 131.330,329.855 131.000 C 329.729 130.670,329.349 130.400,329.013 130.400 C 328.676 130.400,328.400 130.130,328.400 129.800 C 328.400 129.470,328.151 129.200,327.847 129.200 C 327.542 129.200,327.199 128.840,327.084 128.400 C 326.932 127.817,326.538 127.600,325.637 127.600 C 324.804 127.600,324.400 127.404,324.400 127.000 C 324.400 126.528,323.844 126.400,321.800 126.400 C 319.844 126.400,319.200 126.538,319.200 126.957 C 319.200 127.264,318.930 127.618,318.600 127.745 C 318.249 127.879,318.000 128.479,318.000 129.187 C 318.000 129.999,317.801 130.400,317.400 130.400 C 316.925 130.400,316.800 130.973,316.800 133.157 C 316.800 135.239,316.653 135.971,316.200 136.145 C 315.692 136.340,315.600 137.729,315.600 145.243 C 315.600 153.228,315.530 154.163,314.900 154.623 C 314.298 155.062,314.182 155.976,314.071 161.167 L 313.942 167.200 310.771 167.200 C 308.347 167.200,307.600 167.070,307.600 166.650 C 307.600 165.781,305.691 165.600,296.550 165.600 L 288.000 165.600 288.000 160.456 C 288.000 153.946,287.700 151.600,286.869 151.600 C 286.379 151.600,286.412 151.480,287.024 151.032 C 288.272 150.119,288.451 36.007,287.207 34.323 C 286.607 33.513,286.400 32.612,286.400 30.816 C 286.400 28.935,286.267 28.400,285.800 28.400 C 285.381 28.400,285.200 27.978,285.200 27.000 C 285.200 26.022,285.019 25.600,284.600 25.600 C 284.270 25.600,284.000 25.330,284.000 25.000 C 284.000 24.670,283.744 24.400,283.432 24.400 C 283.119 24.400,282.742 23.848,282.594 23.173 C 282.446 22.498,282.072 21.849,281.762 21.730 C 281.453 21.612,281.200 21.264,281.200 20.957 C 281.200 20.651,280.930 20.400,280.600 20.400 C 280.270 20.400,280.000 20.130,280.000 19.800 C 280.000 19.470,279.816 19.200,279.590 19.200 C 279.365 19.200,279.007 18.745,278.796 18.190 C 278.585 17.634,278.139 17.075,277.806 16.947 C 277.473 16.819,277.200 16.374,277.200 15.957 C 277.200 15.541,276.930 15.200,276.600 15.200 C 276.270 15.200,276.000 14.930,276.000 14.600 C 276.000 14.270,275.828 14.000,275.618 14.000 C 275.122 14.000,273.200 12.078,273.200 11.582 C 273.200 11.372,272.952 11.200,272.649 11.200 C 272.346 11.200,271.874 10.930,271.600 10.600 C 271.326 10.270,270.764 10.000,270.351 10.000 C 269.931 10.000,269.600 9.719,269.600 9.363 C 269.600 9.012,269.240 8.631,268.800 8.516 C 268.360 8.401,268.000 8.058,268.000 7.753 C 268.000 7.449,267.749 7.200,267.443 7.200 C 267.136 7.200,266.782 6.930,266.655 6.600 C 266.529 6.270,265.989 6.000,265.455 6.000 C 264.922 6.000,264.382 5.730,264.255 5.400 C 264.129 5.070,263.777 4.800,263.475 4.800 C 263.172 4.800,262.598 4.440,262.200 4.000 C 261.802 3.560,261.228 3.200,260.925 3.200 C 260.623 3.200,260.271 2.930,260.145 2.600 C 260.016 2.265,259.422 2.000,258.800 2.000 C 258.178 2.000,257.584 1.735,257.455 1.400 C 257.270 0.917,256.366 0.800,252.813 0.800 C 250.138 0.800,248.400 0.642,248.400 0.400 C 248.400 0.134,211.467 0.000,138.400 0.000 C 65.333 0.000,28.400 0.134,28.400 0.400 M248.883 9.527 C 249.607 9.748,250.988 10.040,251.951 10.177 C 254.033 10.473,257.939 11.750,259.955 12.794 C 260.750 13.205,261.940 13.806,262.600 14.128 C 268.643 17.079,276.497 27.701,278.624 35.800 C 279.566 39.384,279.868 164.091,278.938 165.534 L 278.337 166.468 246.468 166.379 C 211.555 166.282,213.149 166.173,211.244 168.803 L 210.061 170.436 210.018 195.638 L 209.975 220.839 211.625 222.424 L 213.275 224.009 245.666 223.995 L 278.057 223.982 278.845 224.891 C 279.950 226.165,279.606 326.229,278.494 327.096 C 277.992 327.488,262.074 327.586,203.273 327.560 C 130.089 327.528,128.669 327.542,127.644 328.302 C 125.609 329.813,125.619 329.702,125.611 349.950 C 125.604 368.711,125.289 375.075,124.250 377.400 C 121.501 383.554,120.574 384.957,116.800 388.678 C 111.798 393.610,106.109 395.965,99.200 395.965 C 97.550 395.965,95.480 395.705,94.600 395.388 C 93.720 395.071,92.718 394.809,92.374 394.806 C 88.088 394.765,78.033 386.271,75.319 380.400 C 72.244 373.746,72.429 380.576,72.441 274.400 C 72.458 110.689,72.189 33.145,71.597 31.000 C 71.353 30.120,70.978 28.680,70.763 27.800 C 69.937 24.422,66.243 17.122,64.286 15.000 C 62.367 12.919,60.330 9.959,60.504 9.505 C 60.753 8.856,246.750 8.878,248.883 9.527 M41.875 9.810 C 49.507 11.518,56.488 16.918,60.358 24.109 C 61.526 26.281,61.949 27.539,62.809 31.400 C 63.621 35.049,63.277 71.530,62.426 71.986 C 61.358 72.558,12.242 72.558,11.174 71.986 C 9.267 70.965,10.197 31.430,12.221 27.468 C 12.540 26.845,12.800 26.116,12.800 25.849 C 12.800 24.246,17.971 17.912,21.732 14.909 C 22.847 14.019,27.553 11.600,28.171 11.600 C 28.503 11.600,29.456 11.267,30.288 10.860 C 31.119 10.453,32.250 9.925,32.800 9.687 C 34.269 9.051,38.755 9.112,41.875 9.810 M102.600 67.085 C 98.423 68.087,99.344 74.176,103.831 75.217 C 106.043 75.730,244.077 75.716,246.785 75.203 C 252.295 74.158,254.394 70.002,250.713 67.424 C 249.849 66.819,105.092 66.487,102.600 67.085 M102.987 102.823 C 99.245 103.918,98.606 107.441,101.729 109.761 L 102.858 110.600 174.708 110.706 C 221.671 110.775,247.327 110.672,248.779 110.409 C 253.294 109.590,254.272 105.825,250.600 103.394 C 249.292 102.529,105.890 101.973,102.987 102.823 M101.413 139.413 C 99.761 141.066,99.573 142.589,100.841 144.039 C 101.304 144.567,101.908 145.318,102.183 145.706 C 102.659 146.377,106.396 146.412,176.339 146.403 L 249.995 146.394 251.387 144.897 C 253.547 142.574,253.198 140.558,250.314 138.700 C 249.290 138.040,245.055 138.000,176.027 138.000 L 102.827 138.000 101.413 139.413 M327.959 141.482 C 328.971 142.297,330.880 143.979,332.200 145.221 C 333.520 146.462,335.499 148.270,336.599 149.239 C 337.698 150.208,339.588 151.919,340.799 153.043 C 342.009 154.167,344.620 156.504,346.600 158.235 C 348.580 159.967,350.290 161.487,350.400 161.613 C 350.510 161.739,351.944 162.912,353.586 164.221 C 355.228 165.529,356.862 166.870,357.217 167.200 C 357.572 167.530,358.389 168.244,359.031 168.787 C 359.674 169.330,361.370 170.760,362.800 171.966 C 364.230 173.172,365.940 174.645,366.600 175.239 C 367.260 175.834,369.150 177.437,370.800 178.802 C 372.450 180.167,374.880 182.232,376.200 183.390 C 377.520 184.549,379.590 186.346,380.800 187.384 C 382.010 188.422,383.743 189.930,384.651 190.736 C 385.559 191.541,386.639 192.399,387.051 192.641 C 388.751 193.643,388.730 195.169,386.993 196.665 C 385.361 198.071,378.325 203.707,375.678 205.729 C 374.865 206.350,373.570 207.440,372.800 208.151 C 371.446 209.402,364.533 215.605,360.754 218.961 C 359.738 219.862,357.950 221.410,356.780 222.400 C 354.153 224.622,347.959 229.994,347.356 230.573 C 347.111 230.808,346.301 231.525,345.556 232.166 C 342.536 234.763,334.440 242.162,330.038 246.347 C 324.256 251.843,324.000 250.962,324.000 225.611 L 324.000 216.950 322.816 216.075 L 321.632 215.200 270.665 215.200 C 228.574 215.200,219.621 215.107,219.253 214.664 C 218.688 213.983,218.633 175.750,219.197 175.402 C 219.403 175.275,242.573 175.103,270.686 175.020 C 303.764 174.923,322.168 174.728,322.844 174.466 C 324.296 173.905,324.335 173.410,324.347 155.600 C 324.353 147.130,324.367 140.155,324.379 140.100 C 324.500 139.532,326.491 140.301,327.959 141.482 M108.200 173.878 C 101.749 174.187,100.000 175.225,100.000 178.744 C 100.000 180.736,100.650 181.707,102.680 182.754 C 104.572 183.728,184.129 183.339,186.443 182.343 L 188.400 181.501 188.400 178.813 C 188.400 174.035,192.182 174.474,148.600 174.191 C 128.360 174.060,111.530 173.910,111.200 173.858 C 110.870 173.806,109.520 173.815,108.200 173.878 M102.601 210.630 C 99.605 212.192,98.897 215.460,101.100 217.554 L 102.200 218.600 144.541 218.600 L 186.881 218.600 188.235 217.000 C 190.267 214.598,189.716 211.976,186.897 210.632 C 184.892 209.675,104.435 209.674,102.601 210.630 M104.098 246.399 C 99.437 247.099,98.396 253.361,102.785 254.298 C 103.563 254.464,136.960 254.600,177.000 254.600 C 251.820 254.600,251.600 254.604,251.600 253.157 C 251.600 252.929,251.870 252.473,252.200 252.143 C 252.530 251.813,252.800 251.038,252.800 250.420 C 252.800 249.803,252.530 249.074,252.200 248.800 C 251.870 248.526,251.600 248.050,251.600 247.741 C 251.600 247.433,251.105 246.991,250.500 246.759 C 249.284 246.294,107.126 245.944,104.098 246.399 M101.491 283.629 C 99.498 285.272,99.377 287.540,101.177 289.511 L 102.355 290.800 107.877 290.830 C 129.084 290.945,250.164 290.709,250.536 290.552 C 252.386 289.771,253.161 286.658,251.997 284.685 C 250.582 282.286,254.402 282.400,175.545 282.400 L 102.982 282.400 101.491 283.629 M330.374 336.758 C 330.564 337.065,330.726 340.670,330.735 344.767 C 330.744 349.014,330.933 352.698,331.175 353.335 C 331.689 354.686,331.741 361.996,331.246 363.281 C 331.052 363.787,330.504 365.550,330.029 367.200 C 329.554 368.850,328.963 370.830,328.715 371.600 C 328.468 372.370,328.130 373.630,327.964 374.400 C 325.923 383.888,318.239 391.645,307.600 394.960 C 304.291 395.990,124.448 396.509,123.057 395.491 C 122.398 395.009,122.500 394.802,124.397 392.785 C 127.994 388.959,131.600 382.806,133.223 377.724 C 134.068 375.078,134.091 374.461,134.052 356.123 C 134.019 341.063,134.117 337.140,134.534 336.723 C 135.342 335.916,329.875 335.951,330.374 336.758 " stroke="none" fill="#14120f" fill-rule="evenodd"></path><path id="path1" d="M62.005 10.257 C 62.008 10.666,62.906 11.990,64.000 13.200 C 65.094 14.410,65.992 15.625,65.995 15.900 C 65.998 16.175,66.175 16.400,66.388 16.400 C 66.602 16.400,67.239 17.345,67.805 18.500 C 68.370 19.655,68.995 20.870,69.192 21.200 C 70.393 23.209,71.897 27.415,72.697 31.000 C 73.245 33.453,73.352 42.192,73.561 101.600 C 73.735 150.989,73.923 169.608,74.253 170.166 C 74.538 170.648,74.584 171.358,74.377 172.079 C 74.195 172.716,74.222 174.305,74.440 175.653 C 74.739 177.515,74.710 178.226,74.315 178.702 C 73.899 179.204,73.779 197.831,73.693 275.946 L 73.586 372.569 74.428 375.290 C 75.289 378.073,77.841 383.293,78.457 383.533 C 78.646 383.607,78.800 383.899,78.800 384.182 C 78.800 384.806,84.373 390.000,85.042 390.000 C 85.193 390.000,86.236 390.590,87.359 391.310 C 92.614 394.683,104.225 395.849,107.778 393.360 C 108.218 393.052,108.876 392.800,109.240 392.800 C 109.604 392.800,110.126 392.530,110.400 392.200 C 110.674 391.870,111.176 391.600,111.515 391.600 C 111.855 391.600,112.418 391.354,112.766 391.054 C 113.839 390.130,118.965 384.973,119.600 384.179 C 120.903 382.551,123.200 377.910,123.200 376.905 C 123.200 376.495,123.425 375.935,123.700 375.660 C 124.083 375.277,124.247 369.912,124.400 352.680 L 124.600 330.200 125.534 328.891 C 127.799 325.715,120.353 325.990,203.692 326.004 L 277.800 326.017 278.000 276.108 C 278.110 248.659,278.050 225.930,277.866 225.600 C 277.573 225.073,273.729 225.013,246.344 225.110 C 225.110 225.184,214.649 225.082,213.566 224.791 C 211.503 224.235,209.329 222.118,209.019 220.362 C 208.501 217.432,209.006 170.255,209.567 169.200 C 210.292 167.834,212.045 166.000,212.626 166.000 C 212.888 166.000,213.336 165.719,213.621 165.375 C 214.087 164.813,217.347 164.778,245.770 165.036 C 272.697 165.280,277.460 165.239,277.800 164.761 C 278.582 163.664,277.928 35.231,277.134 33.800 C 276.767 33.140,275.798 31.250,274.981 29.600 C 274.164 27.950,272.978 25.944,272.347 25.142 C 271.716 24.341,271.200 23.578,271.200 23.448 C 271.200 22.495,262.711 14.800,261.659 14.800 C 261.438 14.800,261.019 14.575,260.729 14.299 C 259.519 13.152,253.769 11.353,249.400 10.755 C 247.700 10.522,210.605 10.331,155.000 10.268 C 104.620 10.212,63.085 10.019,62.700 9.840 C 62.167 9.592,62.001 9.692,62.005 10.257 M32.575 11.363 C 32.133 11.672,30.923 12.053,29.886 12.208 C 28.849 12.364,28.000 12.642,28.000 12.827 C 28.000 13.012,27.382 13.280,26.628 13.421 C 25.873 13.563,25.159 13.931,25.040 14.239 C 24.922 14.548,24.454 14.800,24.000 14.800 C 23.546 14.800,23.071 15.070,22.945 15.400 C 22.818 15.730,22.504 16.000,22.246 16.000 C 21.989 16.000,21.497 16.315,21.154 16.700 C 20.811 17.085,20.096 17.775,19.565 18.233 C 18.096 19.501,16.423 21.512,15.921 22.613 C 15.674 23.156,15.320 23.600,15.136 23.600 C 14.951 23.600,14.800 23.966,14.800 24.413 C 14.800 24.859,14.551 25.321,14.247 25.437 C 13.943 25.554,13.585 26.334,13.451 27.172 C 13.317 28.009,12.937 29.213,12.606 29.847 C 11.985 31.037,11.650 69.424,12.247 70.979 C 12.470 71.559,12.546 71.553,13.011 70.917 C 13.366 70.431,13.407 69.987,13.142 69.491 C 12.673 68.616,13.093 35.988,13.613 32.923 C 14.614 27.013,16.588 23.339,21.414 18.400 C 23.170 16.603,27.902 14.232,32.400 12.894 C 35.207 12.060,43.313 12.991,46.000 14.456 C 48.111 15.606,50.195 16.929,50.957 17.600 C 55.006 21.169,57.455 24.457,59.000 28.401 C 60.027 31.021,60.110 32.004,60.785 49.514 C 61.068 56.863,61.075 56.908,61.171 52.000 C 61.225 49.250,61.395 45.380,61.548 43.400 C 61.945 38.248,61.353 28.433,60.595 27.594 C 60.268 27.233,60.000 26.652,60.000 26.303 C 60.000 23.723,51.057 14.182,47.895 13.388 C 47.293 13.237,46.800 12.967,46.800 12.789 C 46.800 12.490,45.649 12.150,41.400 11.195 C 38.826 10.616,33.496 10.717,32.575 11.363 M76.978 65.855 C 77.052 74.405,76.997 81.850,76.856 82.400 C 76.548 83.604,76.150 63.739,76.322 55.655 C 76.540 45.328,76.841 49.998,76.978 65.855 M249.028 65.585 C 254.399 65.650,255.155 73.118,250.036 75.541 L 248.200 76.410 174.971 76.305 C 105.844 76.206,101.704 76.161,101.043 75.500 C 100.658 75.115,100.209 74.800,100.046 74.800 C 99.541 74.800,98.398 72.034,98.429 70.886 C 98.475 69.196,99.694 67.485,101.556 66.501 L 103.256 65.602 171.249 65.501 C 208.645 65.446,241.167 65.438,243.521 65.485 C 245.874 65.532,248.353 65.577,249.028 65.585 M60.444 69.747 C 60.099 70.163,60.135 70.414,60.595 70.796 C 61.109 71.222,61.200 71.140,61.200 70.249 C 61.200 69.055,61.083 68.977,60.444 69.747 M15.204 69.939 C 13.913 70.322,14.627 70.750,16.629 70.793 C 21.420 70.897,25.898 70.709,26.412 70.384 C 26.798 70.140,25.622 70.009,23.000 70.002 C 20.800 69.996,18.370 69.913,17.600 69.818 C 16.830 69.722,15.752 69.777,15.204 69.939 M29.111 70.293 C 30.051 70.378,31.491 70.377,32.311 70.291 C 33.130 70.205,32.360 70.136,30.600 70.137 C 28.840 70.139,28.170 70.209,29.111 70.293 M54.691 70.289 C 55.401 70.377,56.661 70.379,57.491 70.292 C 58.321 70.205,57.740 70.133,56.200 70.131 C 54.660 70.129,53.981 70.200,54.691 70.289 M76.687 86.295 C 76.595 86.903,76.517 86.500,76.514 85.400 C 76.511 84.300,76.587 83.803,76.682 84.295 C 76.777 84.786,76.779 85.686,76.687 86.295 M250.985 102.000 C 254.515 103.787,254.973 108.839,251.785 110.809 L 250.441 111.640 176.321 111.720 C 116.328 111.785,102.027 111.701,101.294 111.283 C 99.062 110.008,97.883 106.688,98.940 104.650 C 100.180 102.261,101.333 101.820,106.990 101.569 C 120.000 100.993,249.762 101.381,250.985 102.000 M252.075 138.400 C 253.344 139.602,254.386 141.982,254.005 142.806 C 251.907 147.333,251.969 147.306,243.123 147.399 C 225.049 147.588,104.068 147.537,102.936 147.340 C 98.991 146.653,97.607 140.383,100.898 138.097 L 102.197 137.194 176.608 137.297 L 251.019 137.400 252.075 138.400 M185.804 173.016 C 187.224 173.233,189.200 174.933,189.200 175.936 C 189.200 176.323,189.396 176.836,189.634 177.074 C 190.555 177.995,189.647 181.814,188.260 182.855 L 187.000 183.800 144.200 183.800 L 101.400 183.800 100.300 182.754 C 99.695 182.179,99.200 181.504,99.200 181.254 C 99.200 181.004,99.020 180.800,98.800 180.800 C 98.194 180.800,98.322 177.878,98.985 176.561 C 100.133 174.286,102.187 173.023,105.132 172.782 C 108.269 172.525,184.036 172.745,185.804 173.016 M192.289 178.500 C 192.201 179.215,192.128 178.630,192.128 177.200 C 192.128 175.770,192.201 175.185,192.289 175.900 C 192.378 176.615,192.378 177.785,192.289 178.500 M187.800 209.734 C 191.953 212.273,191.466 217.285,186.875 219.253 C 184.708 220.183,106.203 220.436,103.046 219.524 C 97.102 217.807,96.982 210.609,102.874 209.190 C 106.032 208.430,186.510 208.945,187.800 209.734 M193.088 213.445 C 192.427 214.106,191.736 213.214,191.923 211.942 L 192.119 210.610 192.730 211.901 C 193.066 212.611,193.227 213.306,193.088 213.445 M251.021 245.690 C 253.729 247.220,254.729 251.346,252.865 253.295 C 252.499 253.677,251.873 254.334,251.473 254.755 C 250.406 255.876,248.878 255.896,171.400 255.833 L 102.200 255.776 100.871 254.791 C 100.126 254.239,99.443 253.317,99.319 252.695 C 99.197 252.083,98.940 251.486,98.748 251.368 C 97.682 250.709,100.151 246.060,101.600 246.000 C 101.930 245.986,102.552 245.708,102.982 245.383 C 104.277 244.404,249.277 244.705,251.021 245.690 M254.000 280.600 C 254.000 281.150,253.931 281.600,253.847 281.600 C 253.762 281.600,253.607 281.150,253.502 280.600 C 253.397 280.050,253.466 279.600,253.655 279.600 C 253.845 279.600,254.000 280.050,254.000 280.600 M250.782 281.919 C 250.902 282.084,251.481 282.525,252.070 282.899 C 252.658 283.273,253.269 283.988,253.428 284.488 C 253.587 284.988,254.003 285.606,254.353 285.862 C 254.934 286.287,254.933 286.392,254.342 287.064 C 253.986 287.469,253.571 288.205,253.420 288.700 C 253.270 289.195,252.974 289.600,252.763 289.600 C 252.553 289.600,252.213 290.041,252.008 290.580 C 251.327 292.369,251.943 292.355,175.859 292.360 C 96.290 292.365,102.563 292.543,100.156 290.216 C 97.561 287.706,98.825 282.592,102.300 281.550 C 103.273 281.258,250.568 281.624,250.782 281.919 M255.600 282.576 C 255.600 282.893,255.420 283.264,255.200 283.400 C 254.980 283.536,254.800 283.561,254.800 283.456 C 254.800 283.351,254.691 282.981,254.557 282.633 C 254.398 282.218,254.535 282.000,254.957 282.000 C 255.311 282.000,255.600 282.259,255.600 282.576 M256.800 286.400 C 256.800 286.840,256.620 287.200,256.400 287.200 C 256.180 287.200,256.000 286.840,256.000 286.400 C 256.000 285.960,256.180 285.600,256.400 285.600 C 256.620 285.600,256.800 285.960,256.800 286.400 M135.338 340.500 C 135.480 342.315,135.596 351.444,135.598 360.786 C 135.600 376.237,135.657 377.715,136.229 377.142 C 137.434 375.938,137.648 373.304,137.849 357.200 C 137.961 348.290,138.125 340.775,138.214 340.500 C 138.416 339.871,140.086 339.846,140.703 340.463 C 141.054 340.814,141.326 340.793,141.826 340.378 C 142.394 339.907,142.563 339.934,143.032 340.576 C 143.511 341.232,143.608 341.245,143.821 340.689 C 144.030 340.144,145.120 340.046,151.532 339.995 C 155.640 339.963,160.080 339.873,161.400 339.795 C 177.418 338.848,256.044 339.595,257.300 340.705 C 257.933 341.265,258.000 341.262,258.000 340.681 C 258.000 340.110,258.984 340.035,266.733 340.017 C 271.537 340.006,277.702 339.883,280.433 339.745 C 287.197 339.403,322.427 339.428,323.521 339.775 C 324.166 339.980,324.414 340.393,324.453 341.327 L 324.505 342.600 324.753 341.331 C 324.959 340.271,326.606 338.400,327.331 338.400 C 327.816 338.400,328.109 341.333,328.070 345.800 C 328.029 350.519,328.186 352.000,328.727 352.000 C 328.932 352.000,329.026 339.229,328.833 337.500 C 328.815 337.335,285.213 337.200,231.941 337.200 L 135.081 337.200 135.338 340.500 M141.055 342.317 C 140.607 343.061,140.895 347.981,141.412 348.410 C 141.789 348.723,141.960 349.774,141.953 351.734 C 141.931 357.151,142.000 358.933,142.224 358.710 C 142.799 358.134,143.278 349.696,142.754 349.372 C 142.563 349.253,142.775 348.432,143.227 347.548 C 144.221 345.599,144.126 344.202,143.000 344.195 C 142.417 344.192,142.232 343.961,142.317 343.344 C 142.428 342.539,141.418 341.717,141.055 342.317 M143.200 346.862 C 143.200 347.289,142.360 347.289,141.686 346.862 C 141.397 346.678,141.287 346.238,141.436 345.851 C 141.711 345.134,143.200 345.988,143.200 346.862 M329.460 353.500 C 329.354 353.885,329.409 355.010,329.583 356.000 L 329.900 357.800 329.950 355.300 C 330.000 352.807,329.827 352.173,329.460 353.500 M327.926 366.300 C 327.687 367.301,327.995 368.450,328.430 368.181 C 328.902 367.889,328.917 365.600,328.447 365.600 C 328.252 365.600,328.018 365.915,327.926 366.300 M326.652 370.100 C 326.519 370.595,326.408 371.495,326.405 372.100 C 326.402 372.705,326.238 373.200,326.039 373.200 C 325.519 373.200,324.956 375.212,325.116 376.500 C 325.328 378.204,325.921 377.800,326.230 375.741 C 326.383 374.719,326.753 373.414,327.052 372.841 C 327.660 371.676,327.792 369.200,327.247 369.200 C 327.052 369.200,326.785 369.605,326.652 370.100 M323.785 379.002 C 321.922 382.803,318.639 386.800,317.380 386.800 C 317.129 386.800,316.598 387.160,316.200 387.600 C 315.802 388.040,315.256 388.400,314.987 388.400 C 314.718 388.400,314.278 388.665,314.009 388.989 C 313.741 389.313,312.069 390.299,310.295 391.181 L 307.068 392.784 288.434 392.642 C 278.185 392.565,269.620 392.489,269.400 392.475 C 269.180 392.461,264.860 392.473,259.800 392.502 C 250.107 392.557,233.999 392.487,228.600 392.365 C 225.389 392.293,180.501 392.357,179.000 392.435 C 178.560 392.459,176.760 392.440,175.000 392.394 C 173.240 392.347,162.170 392.343,150.400 392.383 C 125.578 392.468,128.118 392.522,128.720 391.920 C 129.342 391.298,129.333 390.797,128.700 390.813 C 127.444 390.846,125.002 393.936,126.035 394.185 C 128.879 394.872,307.516 394.200,308.290 393.500 C 308.715 393.115,309.364 392.800,309.733 392.800 C 310.101 392.800,311.075 392.440,311.896 392.000 C 312.716 391.560,313.597 391.200,313.851 391.200 C 314.106 391.200,314.418 390.930,314.545 390.600 C 314.671 390.270,315.051 390.000,315.387 390.000 C 315.724 390.000,316.000 389.832,316.000 389.627 C 316.000 389.422,316.361 389.139,316.802 389.000 C 317.872 388.660,323.600 382.829,323.600 382.079 C 323.600 381.754,323.883 381.281,324.229 381.028 C 324.669 380.707,324.815 380.091,324.714 378.984 L 324.570 377.400 323.785 379.002 M319.557 380.437 C 319.037 380.889,318.113 381.357,317.505 381.479 C 316.846 381.611,316.398 381.962,316.395 382.350 C 316.392 382.707,316.281 383.405,316.148 383.900 C 315.766 385.325,316.788 384.973,318.800 382.985 C 319.790 382.007,320.735 381.205,320.900 381.203 C 321.316 381.199,321.278 380.095,320.852 379.832 C 320.660 379.713,320.077 379.986,319.557 380.437 " stroke="none" fill="#ebcfa9" fill-rule="evenodd"></path><path id="path2" d="M325.113 157.154 L 325.226 173.507 323.982 174.554 C 322.871 175.488,322.411 175.598,319.669 175.581 C 310.635 175.524,220.234 176.032,220.126 176.141 C 220.021 176.246,219.871 212.301,219.969 213.896 C 219.994 214.286,230.865 214.413,271.371 214.496 L 322.741 214.600 323.871 215.442 L 325.000 216.285 325.093 223.842 C 325.432 251.318,325.233 248.906,327.065 247.744 C 328.135 247.065,329.039 246.261,334.195 241.400 C 335.362 240.300,336.837 238.950,337.473 238.400 C 339.687 236.486,348.603 228.639,349.039 228.221 C 349.281 227.989,350.536 226.900,351.829 225.800 C 354.865 223.217,360.542 218.289,360.800 218.013 C 360.910 217.895,361.720 217.189,362.600 216.443 C 363.480 215.698,365.293 214.078,366.629 212.844 C 371.555 208.292,372.663 207.321,375.599 204.986 C 377.248 203.674,379.048 202.183,379.599 201.672 C 380.150 201.162,381.365 200.187,382.300 199.505 C 383.235 198.822,384.000 198.115,384.000 197.932 C 384.000 197.749,384.172 197.600,384.383 197.600 C 384.593 197.600,385.507 196.915,386.414 196.078 L 388.062 194.556 385.759 192.578 C 383.000 190.208,376.878 184.841,375.976 184.000 C 375.622 183.670,374.458 182.680,373.390 181.800 C 372.322 180.920,370.537 179.412,369.424 178.450 C 366.752 176.140,365.813 175.347,363.207 173.200 C 362.006 172.210,360.738 171.130,360.389 170.800 C 360.041 170.470,358.956 169.545,357.978 168.744 C 354.102 165.569,350.570 162.636,350.000 162.120 C 349.670 161.820,348.985 161.236,348.478 160.822 C 347.971 160.407,346.008 158.658,344.116 156.934 C 340.264 153.425,339.976 153.166,336.171 149.800 C 334.679 148.480,332.266 146.320,330.808 145.000 C 326.973 141.526,326.054 140.800,325.497 140.800 C 325.107 140.800,325.024 144.330,325.113 157.154 " stroke="none" fill="#81a4c9" fill-rule="evenodd"></path><path id="path3" d="M60.504 9.505 C 60.330 9.959,62.367 12.919,64.286 15.000 C 65.236 16.030,67.217 19.300,68.285 21.600 C 70.021 25.339,70.383 26.244,70.763 27.800 C 70.978 28.680,71.353 30.120,71.597 31.000 C 72.189 33.145,72.458 110.689,72.441 274.400 C 72.429 380.576,72.244 373.746,75.319 380.400 C 78.033 386.271,88.088 394.765,92.374 394.806 C 92.718 394.809,93.720 395.071,94.600 395.388 C 95.480 395.705,97.550 395.965,99.200 395.965 C 106.109 395.965,111.798 393.610,116.800 388.678 C 120.574 384.957,121.501 383.554,124.250 377.400 C 125.289 375.075,125.604 368.711,125.611 349.950 C 125.619 329.702,125.609 329.813,127.644 328.302 C 128.669 327.542,130.089 327.528,203.273 327.560 C 262.074 327.586,277.992 327.488,278.494 327.096 C 279.606 326.229,279.950 226.165,278.845 224.891 L 278.057 223.982 245.666 223.995 L 213.275 224.009 211.625 222.424 L 209.975 220.839 210.018 195.638 L 210.061 170.436 211.244 168.803 C 213.149 166.173,211.555 166.282,246.468 166.379 L 278.337 166.468 278.938 165.534 C 279.868 164.091,279.566 39.384,278.624 35.800 C 276.497 27.701,268.643 17.079,262.600 14.128 C 261.940 13.806,260.750 13.205,259.955 12.794 C 257.939 11.750,254.033 10.473,251.951 10.177 C 250.988 10.040,249.607 9.748,248.883 9.527 C 246.750 8.878,60.753 8.856,60.504 9.505 M32.800 9.687 C 32.250 9.925,31.119 10.453,30.288 10.860 C 29.456 11.267,28.503 11.600,28.171 11.600 C 24.531 11.600,12.800 22.475,12.800 25.849 C 12.800 26.116,12.540 26.845,12.221 27.468 C 10.197 31.430,9.267 70.965,11.174 71.986 C 12.242 72.558,61.358 72.558,62.426 71.986 C 63.277 71.530,63.621 35.049,62.809 31.400 C 61.949 27.539,61.526 26.281,60.358 24.109 C 54.900 13.968,40.418 6.388,32.800 9.687 M249.913 10.325 C 261.001 12.388,267.959 17.270,274.283 27.424 C 274.549 27.851,275.231 29.190,275.799 30.400 C 276.367 31.610,277.010 32.922,277.229 33.316 C 278.367 35.364,278.456 39.898,278.578 101.512 L 278.703 164.824 277.858 165.276 C 277.238 165.608,268.769 165.654,245.981 165.451 L 214.948 165.174 213.174 166.175 C 209.445 168.280,209.691 166.314,209.536 195.200 C 209.388 222.900,209.305 221.810,211.678 223.454 L 213.332 224.600 245.508 224.681 C 275.950 224.758,277.714 224.801,278.226 225.481 C 278.867 226.332,278.608 325.500,277.963 326.178 C 277.739 326.414,249.852 326.514,203.898 326.443 C 121.197 326.315,127.767 326.084,125.800 329.200 L 124.860 330.689 124.723 352.845 C 124.597 373.377,124.533 375.117,123.848 376.600 C 123.441 377.480,122.752 379.006,122.315 379.991 C 116.148 393.912,98.997 399.498,86.880 391.531 C 85.934 390.909,84.990 390.400,84.782 390.400 C 82.741 390.400,76.573 382.064,74.126 376.000 C 73.429 374.272,73.397 367.461,73.315 205.888 C 73.219 17.310,73.466 31.557,70.162 24.140 C 69.853 23.446,69.600 22.781,69.600 22.662 C 69.600 21.954,64.869 14.546,63.195 12.634 C 62.098 11.380,61.200 10.182,61.200 9.973 C 61.200 9.382,246.704 9.727,249.913 10.325 M40.665 10.597 C 43.558 10.873,50.000 13.247,50.000 14.037 C 50.000 14.207,50.358 14.460,50.795 14.598 C 52.042 14.994,56.946 19.967,58.508 22.420 C 62.188 28.197,62.399 29.849,62.399 52.900 L 62.400 71.600 36.800 71.600 L 11.200 71.600 11.200 54.616 C 11.200 37.374,11.578 30.565,12.679 28.000 C 15.123 22.304,17.581 18.896,21.129 16.284 C 25.824 12.828,33.707 9.813,37.000 10.215 C 37.660 10.296,39.309 10.468,40.665 10.597 M102.533 66.439 C 98.639 67.566,97.893 73.032,101.342 75.164 L 102.694 76.000 175.296 76.000 C 247.206 76.000,247.916 75.992,249.720 75.194 C 254.124 73.246,254.318 67.593,250.023 66.400 C 248.168 65.884,104.317 65.923,102.533 66.439 M250.713 67.424 C 254.394 70.002,252.295 74.158,246.785 75.203 C 244.077 75.716,106.043 75.730,103.831 75.217 C 99.344 74.176,98.423 68.087,102.600 67.085 C 105.092 66.487,249.849 66.819,250.713 67.424 M107.800 101.987 C 101.580 102.224,100.224 102.727,99.208 105.182 C 98.259 107.472,100.041 110.457,102.800 111.200 C 105.876 112.028,249.549 111.537,251.093 110.693 C 255.669 108.192,253.784 102.577,248.155 101.943 C 245.137 101.603,116.851 101.644,107.800 101.987 M250.600 103.394 C 254.272 105.825,253.294 109.590,248.779 110.409 C 247.327 110.672,221.671 110.775,174.708 110.706 L 102.858 110.600 101.729 109.761 C 98.606 107.441,99.245 103.918,102.987 102.823 C 105.890 101.973,249.292 102.529,250.600 103.394 M103.392 137.570 C 99.174 138.587,97.992 142.684,101.059 145.657 L 102.444 147.000 176.338 147.000 L 250.232 147.000 251.501 146.000 C 253.895 144.113,254.089 141.002,251.942 138.944 L 250.748 137.800 228.874 137.586 C 195.062 137.255,104.745 137.244,103.392 137.570 M250.314 138.700 C 253.198 140.558,253.547 142.574,251.387 144.897 L 249.995 146.394 176.339 146.403 C 106.396 146.412,102.659 146.377,102.183 145.706 C 101.908 145.318,101.304 144.567,100.841 144.039 C 99.573 142.589,99.761 141.066,101.413 139.413 L 102.827 138.000 176.027 138.000 C 245.055 138.000,249.290 138.040,250.314 138.700 M324.379 140.100 C 324.367 140.155,324.353 147.130,324.347 155.600 C 324.335 173.410,324.296 173.905,322.844 174.466 C 322.168 174.728,303.764 174.923,270.686 175.020 C 242.573 175.103,219.403 175.275,219.197 175.402 C 218.633 175.750,218.688 213.983,219.253 214.664 C 219.621 215.107,228.574 215.200,270.665 215.200 L 321.632 215.200 322.816 216.075 L 324.000 216.950 324.000 225.611 C 324.000 250.962,324.256 251.843,330.038 246.347 C 334.440 242.162,342.536 234.763,345.556 232.166 C 346.301 231.525,347.111 230.808,347.356 230.573 C 347.959 229.994,354.153 224.622,356.780 222.400 C 357.950 221.410,359.738 219.862,360.754 218.961 C 364.533 215.605,371.446 209.402,372.800 208.151 C 373.570 207.440,374.865 206.350,375.678 205.729 C 378.325 203.707,385.361 198.071,386.993 196.665 C 388.730 195.169,388.751 193.643,387.051 192.641 C 386.639 192.399,385.559 191.541,384.651 190.736 C 383.743 189.930,382.010 188.422,380.800 187.384 C 379.590 186.346,377.520 184.549,376.200 183.390 C 374.880 182.232,372.450 180.167,370.800 178.802 C 369.150 177.437,367.260 175.834,366.600 175.239 C 365.940 174.645,364.230 173.172,362.800 171.966 C 361.370 170.760,359.674 169.330,359.031 168.787 C 358.389 168.244,357.572 167.530,357.217 167.200 C 356.862 166.870,355.228 165.529,353.586 164.221 C 351.944 162.912,350.510 161.739,350.400 161.613 C 350.290 161.487,348.580 159.967,346.600 158.235 C 344.620 156.504,342.009 154.167,340.799 153.043 C 339.588 151.919,337.698 150.208,336.599 149.239 C 335.499 148.270,333.520 146.462,332.200 145.221 C 327.715 141.002,324.618 138.975,324.379 140.100 M327.076 141.700 C 327.671 142.195,329.351 143.680,330.808 145.000 C 332.266 146.320,334.679 148.480,336.171 149.800 C 339.976 153.166,340.264 153.425,344.116 156.934 C 346.008 158.658,347.971 160.407,348.478 160.822 C 348.985 161.236,349.670 161.820,350.000 162.120 C 350.570 162.636,354.102 165.569,357.978 168.744 C 358.956 169.545,360.041 170.470,360.389 170.800 C 360.738 171.130,362.006 172.210,363.207 173.200 C 365.813 175.347,366.752 176.140,369.424 178.450 C 370.537 179.412,372.322 180.920,373.390 181.800 C 374.458 182.680,375.622 183.670,375.976 184.000 C 376.878 184.841,383.000 190.208,385.759 192.578 L 388.062 194.556 386.414 196.078 C 385.507 196.915,384.593 197.600,384.383 197.600 C 384.172 197.600,384.000 197.749,384.000 197.932 C 384.000 198.115,383.235 198.822,382.300 199.505 C 381.365 200.187,380.150 201.162,379.599 201.672 C 379.048 202.183,377.248 203.674,375.599 204.986 C 372.663 207.321,371.555 208.292,366.629 212.844 C 365.293 214.078,363.480 215.698,362.600 216.443 C 361.720 217.189,360.910 217.895,360.800 218.013 C 360.542 218.289,354.865 223.217,351.829 225.800 C 350.536 226.900,349.281 227.989,349.039 228.221 C 348.603 228.639,339.687 236.486,337.473 238.400 C 336.837 238.950,335.362 240.300,334.195 241.400 C 329.039 246.261,328.135 247.065,327.065 247.744 C 325.424 248.785,325.410 248.722,325.293 239.667 C 325.235 235.120,325.145 227.999,325.093 223.842 L 325.000 216.285 323.871 215.442 L 322.741 214.600 271.371 214.496 C 230.865 214.413,219.994 214.286,219.969 213.896 C 219.871 212.301,220.021 176.246,220.126 176.141 C 220.234 176.032,310.635 175.524,319.669 175.581 C 322.411 175.598,322.871 175.488,323.982 174.554 L 325.226 173.507 325.113 157.154 C 324.991 139.512,324.939 139.923,327.076 141.700 M105.331 173.108 C 99.802 173.396,96.986 179.330,100.840 182.572 L 102.074 183.611 144.337 183.505 L 186.600 183.400 187.900 182.473 C 190.405 180.686,189.639 175.290,186.702 174.022 C 185.113 173.337,115.897 172.559,105.331 173.108 M148.600 174.191 C 192.182 174.474,188.400 174.035,188.400 178.813 L 188.400 181.501 186.443 182.343 C 184.129 183.339,104.572 183.728,102.680 182.754 C 98.357 180.526,99.270 174.871,104.056 174.228 C 106.163 173.944,110.370 173.727,111.200 173.858 C 111.530 173.910,128.360 174.060,148.600 174.191 M103.000 209.637 C 96.422 211.681,97.970 218.701,105.108 219.196 C 111.746 219.656,184.221 219.679,185.921 219.221 C 190.645 217.949,191.646 212.823,187.693 210.141 C 186.461 209.306,105.616 208.825,103.000 209.637 M186.897 210.632 C 189.716 211.976,190.267 214.598,188.235 217.000 L 186.881 218.600 144.541 218.600 L 102.200 218.600 101.100 217.554 C 98.897 215.460,99.605 212.192,102.601 210.630 C 104.435 209.674,184.892 209.675,186.897 210.632 M102.910 245.859 C 98.642 247.376,97.933 252.508,101.676 254.790 C 103.188 255.711,246.386 256.099,249.658 255.191 C 254.772 253.770,254.468 246.767,249.244 245.647 C 245.737 244.895,105.050 245.099,102.910 245.859 M250.500 246.759 C 251.105 246.991,251.600 247.433,251.600 247.741 C 251.600 248.050,251.870 248.526,252.200 248.800 C 252.530 249.074,252.800 249.803,252.800 250.420 C 252.800 251.038,252.530 251.813,252.200 252.143 C 251.870 252.473,251.600 252.929,251.600 253.157 C 251.600 254.604,251.820 254.600,177.000 254.600 C 136.960 254.600,103.563 254.464,102.785 254.298 C 98.396 253.361,99.437 247.099,104.098 246.399 C 107.126 245.944,249.284 246.294,250.500 246.759 M101.937 282.213 C 98.236 284.210,98.527 289.911,102.400 291.299 C 103.990 291.868,246.917 292.026,249.723 291.461 C 254.118 290.577,254.594 284.566,250.443 282.360 C 248.570 281.365,103.774 281.222,101.937 282.213 M249.651 282.863 C 253.040 283.878,253.656 289.236,250.536 290.552 C 250.164 290.709,129.084 290.945,107.877 290.830 L 102.355 290.800 101.177 289.511 C 99.377 287.540,99.498 285.272,101.491 283.629 L 102.982 282.400 175.545 282.400 C 229.303 282.400,248.507 282.520,249.651 282.863 M134.534 336.723 C 134.117 337.140,134.019 341.063,134.052 356.123 C 134.091 374.461,134.068 375.078,133.223 377.724 C 131.600 382.806,127.994 388.959,124.397 392.785 C 122.500 394.802,122.398 395.009,123.057 395.491 C 124.448 396.509,304.291 395.990,307.600 394.960 C 318.239 391.645,325.923 383.888,327.964 374.400 C 328.130 373.630,328.468 372.370,328.715 371.600 C 328.963 370.830,329.554 368.850,330.029 367.200 C 330.504 365.550,331.052 363.787,331.246 363.281 C 331.741 361.996,331.689 354.686,331.175 353.335 C 330.933 352.698,330.744 349.014,330.735 344.767 C 330.726 340.670,330.564 337.065,330.374 336.758 C 329.875 335.951,135.342 335.916,134.534 336.723 M329.207 337.204 C 329.883 337.565,329.945 338.021,329.817 341.703 C 329.740 343.956,329.849 347.600,330.061 349.800 C 330.626 355.665,330.530 363.313,329.872 364.890 C 329.572 365.611,329.195 366.920,329.034 367.800 C 328.729 369.479,328.398 370.596,326.366 376.800 C 324.843 381.450,324.112 382.700,321.030 385.922 C 317.028 390.105,311.346 393.425,306.368 394.491 C 304.195 394.956,122.748 395.397,123.900 394.934 C 124.175 394.824,124.400 394.552,124.400 394.330 C 124.400 394.108,125.390 392.832,126.600 391.495 C 127.810 390.158,128.800 388.884,128.800 388.663 C 128.800 388.443,129.052 387.979,129.361 387.631 C 130.348 386.519,133.488 380.182,134.257 377.752 C 134.933 375.612,135.006 373.691,135.069 356.400 C 135.107 345.950,135.152 337.267,135.169 337.104 C 135.219 336.632,328.325 336.732,329.207 337.204 " stroke="none" fill="#7f796d" fill-rule="evenodd"></path><path id="path4" d="M61.200 9.978 C 61.200 10.185,61.605 10.779,62.100 11.297 C 62.595 11.815,62.775 11.946,62.500 11.588 C 62.225 11.230,62.000 10.636,62.000 10.269 C 62.000 9.901,61.820 9.600,61.600 9.600 C 61.380 9.600,61.200 9.770,61.200 9.978 M63.118 9.939 C 63.403 10.121,104.713 10.288,154.918 10.311 C 205.123 10.334,247.370 10.444,248.800 10.556 L 251.400 10.760 249.400 10.318 C 247.000 9.787,62.292 9.412,63.118 9.939 M33.600 10.585 C 30.985 11.198,29.171 11.830,27.000 12.885 C 25.637 13.548,25.577 13.624,26.596 13.400 C 27.254 13.255,27.884 12.993,27.996 12.817 C 28.108 12.642,29.010 12.363,30.000 12.199 C 30.990 12.034,32.155 11.652,32.589 11.350 C 33.497 10.717,38.858 10.623,41.400 11.195 C 45.649 12.150,46.800 12.490,46.800 12.789 C 46.800 12.967,47.293 13.237,47.895 13.388 C 51.121 14.198,60.000 23.732,60.000 26.386 C 60.000 26.780,60.270 27.326,60.600 27.600 C 61.355 28.227,61.351 28.058,60.561 26.169 C 58.948 22.308,53.043 15.312,50.795 14.598 C 50.358 14.460,50.000 14.207,50.000 14.037 C 50.000 13.247,43.558 10.873,40.665 10.597 C 39.309 10.468,37.660 10.296,37.000 10.215 C 36.340 10.135,34.810 10.301,33.600 10.585 M253.000 11.414 C 253.660 11.717,254.560 11.964,255.000 11.964 C 255.440 11.965,255.080 11.705,254.200 11.388 C 252.192 10.665,251.400 10.682,253.000 11.414 M257.200 12.600 C 257.750 12.914,258.380 13.172,258.600 13.172 C 258.820 13.172,258.550 12.914,258.000 12.600 C 257.450 12.286,256.820 12.028,256.600 12.028 C 256.380 12.028,256.650 12.286,257.200 12.600 M32.200 12.916 C 27.399 14.480,23.117 16.657,21.414 18.400 C 16.588 23.339,14.614 27.013,13.613 32.923 C 13.059 36.193,12.675 68.619,13.179 69.561 C 13.460 70.085,13.467 70.435,13.201 70.599 C 11.767 71.485,14.560 71.600,37.600 71.600 L 62.400 71.600 62.375 52.700 C 62.357 38.204,62.221 33.148,61.792 31.000 L 61.233 28.200 61.437 31.200 C 61.704 35.140,61.652 41.808,61.290 50.200 L 60.996 57.000 60.685 47.645 C 60.037 28.144,59.434 25.841,53.444 19.970 C 50.460 17.046,49.648 16.444,46.000 14.456 C 43.359 13.016,34.817 12.063,32.200 12.916 M24.223 14.233 C 23.574 14.707,23.554 14.800,24.100 14.800 C 24.459 14.800,24.871 14.608,25.016 14.373 C 25.440 13.687,25.061 13.620,24.223 14.233 M20.748 16.569 C 18.813 18.088,14.800 22.676,14.800 23.370 C 14.800 23.978,15.521 23.491,15.921 22.613 C 16.423 21.512,18.096 19.501,19.565 18.233 C 20.096 17.775,20.811 17.085,21.154 16.700 C 21.497 16.315,21.989 16.000,22.246 16.000 C 22.504 16.000,22.818 15.730,22.945 15.400 C 23.256 14.589,23.298 14.566,20.748 16.569 M263.600 15.862 C 264.370 16.464,266.326 18.280,267.947 19.897 C 269.569 21.515,270.962 22.771,271.044 22.689 C 271.126 22.607,269.919 21.294,268.362 19.770 C 264.852 16.336,264.861 16.345,263.400 15.478 C 262.387 14.878,262.419 14.938,263.600 15.862 M67.095 18.181 C 67.687 19.161,68.231 19.902,68.304 19.829 C 68.537 19.596,66.734 16.400,66.369 16.400 C 66.177 16.400,66.504 17.201,67.095 18.181 M271.200 23.424 C 271.200 23.547,271.830 24.473,272.600 25.482 C 274.328 27.745,274.428 27.475,272.772 25.020 C 271.622 23.317,271.200 22.888,271.200 23.424 M70.013 23.820 C 70.006 24.051,70.163 24.411,70.361 24.620 C 70.560 24.829,70.809 25.360,70.915 25.800 C 71.103 26.580,71.108 26.580,71.154 25.776 C 71.179 25.324,70.936 24.604,70.613 24.176 C 70.290 23.749,70.020 23.589,70.013 23.820 M14.081 24.818 C 13.772 25.313,13.746 25.600,14.009 25.600 C 14.238 25.600,14.532 25.322,14.662 24.983 C 15.022 24.045,14.633 23.934,14.081 24.818 M13.200 26.554 C 13.200 26.859,12.931 27.624,12.602 28.254 C 12.274 28.884,12.005 29.760,12.005 30.200 C 12.005 30.855,12.111 30.797,12.588 29.883 C 13.240 28.632,13.821 26.000,13.445 26.000 C 13.310 26.000,13.200 26.249,13.200 26.554 M71.220 26.800 C 71.216 26.910,71.467 27.810,71.779 28.800 C 72.182 30.077,72.350 30.310,72.359 29.600 C 72.369 28.805,71.250 26.055,71.220 26.800 M275.200 29.847 C 275.200 30.067,275.464 30.596,275.787 31.024 C 276.110 31.451,276.375 31.620,276.375 31.400 C 276.375 31.180,276.110 30.651,275.787 30.224 C 275.464 29.796,275.200 29.627,275.200 29.847 M72.665 32.600 C 72.804 33.480,73.028 63.180,73.163 98.600 L 73.409 163.000 73.488 99.200 C 73.555 44.722,73.482 35.079,72.989 33.200 C 72.607 31.743,72.497 31.540,72.665 32.600 M11.500 34.960 C 10.959 40.656,11.128 71.600,11.700 71.600 C 12.176 71.600,12.259 57.122,11.898 37.200 C 11.803 31.968,11.791 31.899,11.500 34.960 M276.402 32.424 C 276.401 32.766,276.664 33.396,276.987 33.824 C 277.751 34.834,277.759 34.396,277.002 32.946 C 276.674 32.316,276.404 32.081,276.402 32.424 M277.808 36.600 C 278.112 39.969,278.068 164.367,277.762 164.861 C 277.547 165.209,269.616 165.252,245.808 165.036 C 217.351 164.778,214.087 164.813,213.621 165.375 C 213.336 165.719,212.888 166.000,212.626 166.000 C 212.045 166.000,210.292 167.834,209.567 169.200 C 209.006 170.255,208.501 217.432,209.019 220.362 C 209.329 222.118,211.503 224.235,213.566 224.791 C 214.649 225.082,225.110 225.184,246.344 225.110 C 273.729 225.013,277.573 225.073,277.866 225.600 C 278.050 225.930,278.110 248.659,278.000 276.108 L 277.800 326.017 203.692 326.004 C 119.959 325.990,127.731 325.683,125.414 329.094 L 124.400 330.586 124.495 351.193 L 124.589 371.800 124.795 351.200 C 125.028 327.746,124.903 328.617,128.266 327.130 C 130.058 326.337,130.807 326.330,203.839 326.443 C 249.830 326.514,277.739 326.414,277.963 326.178 C 278.608 325.500,278.867 226.332,278.226 225.481 C 277.714 224.801,275.950 224.758,245.508 224.681 L 213.332 224.600 211.678 223.454 C 209.305 221.810,209.388 222.900,209.536 195.200 C 209.691 166.314,209.445 168.280,213.174 166.175 L 214.948 165.174 245.981 165.451 C 268.774 165.654,277.238 165.608,277.859 165.276 L 278.704 164.823 278.551 101.312 C 278.457 62.585,278.247 37.176,278.013 36.200 C 277.628 34.603,277.628 34.604,277.808 36.600 M76.322 55.655 C 76.150 63.739,76.548 83.604,76.856 82.400 C 77.150 81.253,76.947 50.414,76.643 50.110 C 76.533 50.000,76.389 52.495,76.322 55.655 M171.140 65.501 C 133.684 65.557,102.903 65.737,102.739 65.901 C 102.574 66.066,135.056 66.147,174.920 66.083 C 214.784 66.018,248.188 66.078,249.152 66.215 C 254.183 66.932,254.571 73.049,249.720 75.194 C 247.916 75.992,247.206 76.000,175.296 76.000 L 102.694 76.000 101.342 75.164 C 98.653 73.503,98.287 70.033,100.560 67.760 C 101.990 66.330,101.970 65.985,100.517 67.003 C 99.473 67.735,98.400 69.784,98.400 71.048 C 98.400 72.089,99.589 74.800,100.046 74.800 C 100.209 74.800,100.658 75.115,101.043 75.500 C 101.704 76.161,105.844 76.206,174.971 76.305 L 248.200 76.410 250.036 75.541 C 255.155 73.118,254.399 65.650,249.028 65.585 C 248.353 65.577,245.874 65.532,243.521 65.485 C 241.167 65.438,208.596 65.446,171.140 65.501 M61.200 70.249 C 61.200 71.140,61.109 71.222,60.595 70.796 C 60.135 70.414,60.099 70.163,60.444 69.747 C 61.083 68.977,61.200 69.055,61.200 70.249 M23.000 70.002 C 25.622 70.009,26.798 70.140,26.412 70.384 C 25.585 70.907,15.454 71.004,14.633 70.497 C 13.978 70.092,16.028 69.623,17.600 69.818 C 18.370 69.913,20.800 69.996,23.000 70.002 M32.311 70.291 C 31.491 70.377,30.051 70.378,29.111 70.293 C 28.170 70.209,28.840 70.139,30.600 70.137 C 32.360 70.136,33.130 70.205,32.311 70.291 M57.491 70.292 C 56.661 70.379,55.401 70.377,54.691 70.289 C 53.981 70.200,54.660 70.129,56.200 70.131 C 57.740 70.133,58.321 70.205,57.491 70.292 M76.514 85.400 C 76.517 86.500,76.595 86.903,76.687 86.295 C 76.779 85.686,76.777 84.786,76.682 84.295 C 76.587 83.803,76.511 84.300,76.514 85.400 M107.400 101.581 C 104.760 101.701,134.010 101.738,172.400 101.663 C 251.925 101.507,249.953 101.459,252.092 103.598 C 255.029 106.534,253.582 110.352,249.200 111.228 L 247.800 111.508 249.153 111.554 C 254.327 111.730,255.732 104.403,250.985 102.000 C 249.779 101.390,119.905 101.011,107.400 101.581 M100.433 102.832 C 97.072 105.630,98.775 111.724,102.874 111.564 C 103.632 111.534,103.571 111.461,102.533 111.161 C 98.588 110.019,97.785 105.262,101.152 102.974 C 101.941 102.438,102.319 102.006,101.993 102.013 C 101.667 102.021,100.965 102.389,100.433 102.832 M108.500 111.887 C 109.105 111.978,110.095 111.978,110.700 111.887 C 111.305 111.795,110.810 111.720,109.600 111.720 C 108.390 111.720,107.895 111.795,108.500 111.887 M115.100 111.896 C 116.475 111.974,118.725 111.974,120.100 111.896 C 121.475 111.818,120.350 111.754,117.600 111.754 C 114.850 111.754,113.725 111.818,115.100 111.896 M123.505 111.883 C 124.002 111.979,124.722 111.975,125.105 111.875 C 125.487 111.775,125.080 111.696,124.200 111.701 C 123.320 111.705,123.007 111.787,123.505 111.883 M127.500 111.882 C 127.995 111.978,128.805 111.978,129.300 111.882 C 129.795 111.787,129.390 111.709,128.400 111.709 C 127.410 111.709,127.005 111.787,127.500 111.882 M134.518 111.898 C 136.233 111.973,138.933 111.972,140.518 111.897 C 142.103 111.821,140.700 111.759,137.400 111.760 C 134.100 111.761,132.803 111.822,134.518 111.898 M145.712 111.895 C 146.764 111.977,148.384 111.976,149.312 111.892 C 150.240 111.808,149.380 111.741,147.400 111.742 C 145.420 111.743,144.660 111.812,145.712 111.895 M156.476 111.899 C 159.268 111.967,163.948 111.968,166.876 111.899 C 169.804 111.831,167.520 111.775,161.800 111.774 C 156.080 111.774,153.684 111.830,156.476 111.899 M174.100 111.891 C 174.925 111.978,176.275 111.978,177.100 111.891 C 177.925 111.805,177.250 111.734,175.600 111.734 C 173.950 111.734,173.275 111.805,174.100 111.891 M179.900 111.882 C 180.395 111.978,181.205 111.978,181.700 111.882 C 182.195 111.787,181.790 111.709,180.800 111.709 C 179.810 111.709,179.405 111.787,179.900 111.882 M184.707 111.890 C 185.426 111.979,186.506 111.977,187.107 111.886 C 187.708 111.795,187.120 111.722,185.800 111.724 C 184.480 111.726,183.988 111.801,184.707 111.890 M198.300 111.893 C 199.235 111.977,200.765 111.977,201.700 111.893 C 202.635 111.809,201.870 111.740,200.000 111.740 C 198.130 111.740,197.365 111.809,198.300 111.893 M100.893 138.100 C 100.057 138.681,99.447 139.546,99.173 140.540 C 98.611 142.577,98.938 142.851,99.539 140.847 C 100.037 139.185,101.362 138.058,103.392 137.572 L 104.600 137.282 103.394 137.241 C 102.731 137.218,101.606 137.605,100.893 138.100 M229.474 137.588 L 250.748 137.800 251.955 138.956 C 254.604 141.495,253.467 145.709,249.824 146.860 C 249.055 147.103,249.063 147.123,249.940 147.160 C 251.097 147.209,253.600 144.818,253.600 143.664 C 253.600 143.215,253.769 142.743,253.976 142.615 C 254.530 142.273,253.311 139.571,252.075 138.400 L 251.020 137.400 229.610 137.388 L 208.200 137.376 229.474 137.588 M99.246 143.486 C 99.184 144.674,101.447 147.207,102.541 147.175 C 103.374 147.150,103.376 147.139,102.600 146.816 C 101.527 146.369,99.724 144.392,99.485 143.400 C 99.309 142.667,99.289 142.674,99.246 143.486 M104.000 147.512 C 104.330 147.670,134.570 147.708,171.200 147.596 L 237.800 147.392 170.600 147.308 C 133.640 147.262,103.670 147.354,104.000 147.512 M73.498 177.965 C 73.334 185.316,73.243 231.846,73.296 281.365 L 73.391 371.400 73.596 275.361 C 73.761 197.835,73.899 179.203,74.315 178.702 C 74.710 178.226,74.739 177.515,74.440 175.653 C 74.215 174.260,74.193 172.721,74.388 172.043 C 74.574 171.392,74.608 170.742,74.463 170.598 C 74.319 170.454,74.109 169.045,73.998 167.468 C 73.887 165.891,73.662 170.614,73.498 177.965 M105.132 172.771 C 102.188 173.024,100.129 174.294,98.985 176.561 C 98.322 177.878,98.194 180.800,98.800 180.800 C 99.020 180.800,99.200 181.004,99.200 181.254 C 99.200 181.504,99.695 182.179,100.300 182.754 L 101.400 183.800 143.600 183.806 L 185.800 183.813 143.732 183.606 L 101.664 183.400 100.623 182.422 C 96.354 178.411,99.775 173.670,107.449 172.962 C 110.062 172.720,111.210 172.527,110.000 172.532 C 108.790 172.537,106.599 172.644,105.132 172.771 M112.474 172.607 C 112.749 172.882,121.952 172.981,122.221 172.712 C 122.343 172.591,120.155 172.473,117.360 172.452 C 114.565 172.430,112.366 172.500,112.474 172.607 M122.833 172.543 C 122.925 172.621,123.630 172.801,124.400 172.942 C 125.385 173.123,125.622 173.082,125.200 172.806 C 124.658 172.450,122.437 172.203,122.833 172.543 M126.711 172.817 C 127.248 173.032,128.235 173.038,129.111 172.832 C 130.510 172.502,130.455 172.479,128.200 172.466 C 126.361 172.454,126.013 172.536,126.711 172.817 M131.854 172.878 C 132.428 173.031,144.604 173.171,158.914 173.189 C 187.495 173.224,187.805 173.249,188.780 175.680 C 189.047 176.345,189.156 176.411,189.175 175.916 C 189.211 174.948,187.231 173.237,185.804 173.003 C 183.902 172.691,130.692 172.568,131.854 172.878 M192.128 177.200 C 192.128 178.630,192.201 179.215,192.289 178.500 C 192.378 177.785,192.378 176.615,192.289 175.900 C 192.201 175.185,192.128 175.770,192.128 177.200 M189.200 179.149 C 189.200 181.603,188.609 182.481,186.400 183.311 C 185.971 183.472,186.029 183.542,186.600 183.554 C 188.724 183.600,191.306 178.055,189.640 177.025 C 189.339 176.839,189.200 177.508,189.200 179.149 M102.874 209.196 C 100.622 209.729,98.400 212.381,98.400 214.534 C 98.400 216.482,100.907 219.547,102.104 219.064 C 102.424 218.934,102.377 218.852,101.970 218.832 C 98.508 218.658,98.166 212.672,101.488 210.396 L 102.941 209.400 143.971 209.194 L 185.000 208.989 144.600 208.935 C 122.380 208.906,103.603 209.023,102.874 209.196 M186.183 209.492 C 190.227 210.519,191.496 214.609,188.653 217.453 C 187.692 218.414,187.082 219.200,187.299 219.200 C 187.841 219.200,190.339 216.423,190.635 215.491 C 191.404 213.066,188.601 209.110,186.211 209.246 C 185.428 209.291,185.427 209.300,186.183 209.492 M191.923 211.942 C 191.790 212.850,191.904 213.342,192.281 213.486 C 193.208 213.842,193.373 213.259,192.730 211.901 L 192.119 210.610 191.923 211.942 M103.515 219.672 C 104.447 220.042,185.281 220.063,185.860 219.694 C 186.114 219.532,167.535 219.400,144.575 219.400 C 121.615 219.400,103.138 219.522,103.515 219.672 M102.982 245.416 C 102.230 246.017,102.239 246.029,103.200 245.721 C 104.480 245.310,247.736 245.297,249.588 245.708 C 250.708 245.956,250.878 245.917,250.468 245.508 C 249.615 244.655,104.047 244.565,102.982 245.416 M99.700 247.752 C 98.403 249.475,98.043 250.932,98.800 251.400 C 99.020 251.536,99.200 252.007,99.200 252.446 C 99.200 253.357,101.470 255.601,102.389 255.599 C 102.725 255.598,102.404 255.234,101.676 254.790 C 98.967 253.138,98.420 249.500,100.560 247.360 C 101.308 246.612,101.713 246.006,101.460 246.012 C 101.207 246.019,100.415 246.802,99.700 247.752 M252.431 247.700 C 254.344 250.333,252.989 254.256,249.852 255.165 C 248.684 255.504,248.669 255.530,249.625 255.564 C 250.568 255.597,250.969 255.318,252.864 253.305 C 254.448 251.622,253.461 246.000,251.581 246.000 C 251.369 246.000,251.751 246.765,252.431 247.700 M126.500 255.898 C 128.645 255.970,132.155 255.970,134.300 255.898 C 136.445 255.826,134.690 255.767,130.400 255.767 C 126.110 255.767,124.355 255.826,126.500 255.898 M146.500 255.876 C 146.885 255.976,147.515 255.976,147.900 255.876 C 148.285 255.775,147.970 255.693,147.200 255.693 C 146.430 255.693,146.115 255.775,146.500 255.876 M153.300 255.876 C 153.685 255.976,154.315 255.976,154.700 255.876 C 155.085 255.775,154.770 255.693,154.000 255.693 C 153.230 255.693,152.915 255.775,153.300 255.876 M156.705 255.883 C 157.202 255.979,157.922 255.975,158.305 255.875 C 158.687 255.775,158.280 255.696,157.400 255.701 C 156.520 255.705,156.207 255.787,156.705 255.883 M174.100 255.900 C 182.185 255.960,195.415 255.960,203.500 255.900 C 211.585 255.839,204.970 255.790,188.800 255.790 C 172.630 255.790,166.015 255.839,174.100 255.900 M223.100 255.898 C 224.915 255.972,227.885 255.972,229.700 255.898 C 231.515 255.823,230.030 255.763,226.400 255.763 C 222.770 255.763,221.285 255.823,223.100 255.898 M253.502 280.600 C 253.607 281.150,253.762 281.600,253.847 281.600 C 253.931 281.600,254.000 281.150,254.000 280.600 C 254.000 280.050,253.845 279.600,253.655 279.600 C 253.466 279.600,253.397 280.050,253.502 280.600 M102.400 281.481 C 98.759 282.806,97.512 287.660,100.156 290.216 C 102.562 292.543,96.268 292.366,176.059 292.343 C 250.012 292.321,251.448 292.294,251.898 290.917 C 252.001 290.600,251.598 290.666,250.728 291.108 C 248.975 291.997,104.868 292.183,102.400 291.299 C 97.202 289.437,98.645 282.419,104.400 281.572 L 106.200 281.307 104.600 281.285 C 103.720 281.273,102.730 281.361,102.400 281.481 M250.406 282.341 C 253.243 283.848,254.211 286.393,252.816 288.681 C 252.253 289.605,252.193 289.901,252.602 289.744 C 252.914 289.624,253.288 289.138,253.432 288.663 C 253.576 288.188,253.986 287.469,254.342 287.064 C 254.915 286.413,254.920 286.274,254.390 285.864 C 254.060 285.609,253.570 284.902,253.301 284.294 C 253.032 283.686,252.359 282.982,251.806 282.730 C 251.253 282.478,250.800 282.120,250.800 281.936 C 250.800 281.751,250.398 281.600,249.906 281.600 C 249.161 281.600,249.244 281.723,250.406 282.341 M254.557 282.633 C 254.691 282.981,254.800 283.351,254.800 283.456 C 254.800 283.561,254.980 283.536,255.200 283.400 C 255.837 283.006,255.663 282.000,254.957 282.000 C 254.535 282.000,254.398 282.218,254.557 282.633 M256.000 286.400 C 256.000 286.840,256.180 287.200,256.400 287.200 C 256.620 287.200,256.800 286.840,256.800 286.400 C 256.800 285.960,256.620 285.600,256.400 285.600 C 256.180 285.600,256.000 285.960,256.000 286.400 M135.169 337.100 C 135.152 337.265,135.107 345.950,135.069 356.400 C 135.006 373.691,134.933 375.612,134.257 377.752 C 133.488 380.182,130.348 386.519,129.361 387.631 C 129.052 387.979,128.800 388.443,128.800 388.663 C 128.800 388.884,127.810 390.158,126.600 391.495 C 125.390 392.832,124.400 394.108,124.400 394.330 C 124.400 394.552,124.175 394.824,123.900 394.934 C 122.963 395.311,304.155 394.947,306.000 394.569 C 307.114 394.341,273.336 394.242,217.400 394.309 C 167.680 394.369,126.566 394.313,126.035 394.185 C 125.002 393.936,127.444 390.846,128.700 390.813 C 129.333 390.797,129.342 391.298,128.720 391.920 C 128.118 392.522,125.578 392.468,150.400 392.383 C 162.170 392.343,173.240 392.347,175.000 392.394 C 176.760 392.440,178.560 392.459,179.000 392.435 C 180.501 392.357,225.389 392.293,228.600 392.365 C 233.999 392.487,250.107 392.557,259.800 392.502 C 264.860 392.473,269.180 392.461,269.400 392.475 C 269.620 392.489,278.185 392.565,288.434 392.642 L 307.068 392.784 310.295 391.181 C 312.069 390.299,313.741 389.313,314.009 388.989 C 314.278 388.665,314.718 388.400,314.987 388.400 C 315.256 388.400,315.802 388.040,316.200 387.600 C 316.598 387.160,317.129 386.800,317.380 386.800 C 318.639 386.800,321.922 382.803,323.785 379.002 L 324.570 377.400 324.714 378.984 C 324.815 380.091,324.669 380.707,324.229 381.028 C 323.883 381.281,323.600 381.754,323.600 382.079 C 323.600 382.829,317.872 388.660,316.802 389.000 C 316.361 389.139,316.000 389.422,316.000 389.627 C 316.000 389.832,315.724 390.000,315.387 390.000 C 315.051 390.000,314.671 390.270,314.545 390.600 C 314.418 390.930,314.106 391.200,313.851 391.200 C 313.597 391.200,312.716 391.560,311.896 392.000 C 311.075 392.440,310.064 392.800,309.650 392.800 C 309.237 392.800,308.674 393.070,308.400 393.400 C 307.781 394.146,308.321 394.167,309.839 393.456 C 313.480 391.750,314.402 391.254,316.409 389.916 C 321.431 386.568,324.485 382.545,326.366 376.800 C 328.398 370.596,328.729 369.479,329.034 367.800 C 329.195 366.920,329.572 365.611,329.872 364.890 C 330.530 363.313,330.626 355.665,330.061 349.800 C 329.849 347.600,329.740 343.956,329.817 341.703 C 329.945 338.013,329.884 337.566,329.203 337.202 C 328.701 336.933,309.123 336.832,270.924 336.900 L 213.400 337.003 271.100 337.101 C 302.835 337.156,328.815 337.335,328.833 337.500 C 329.026 339.229,328.932 352.000,328.727 352.000 C 328.186 352.000,328.029 350.519,328.070 345.800 C 328.109 341.333,327.816 338.400,327.331 338.400 C 326.606 338.400,324.959 340.271,324.753 341.331 L 324.505 342.600 324.453 341.327 C 324.414 340.393,324.166 339.980,323.521 339.775 C 322.427 339.428,287.197 339.403,280.433 339.745 C 277.702 339.883,271.537 340.006,266.733 340.017 C 258.984 340.035,258.000 340.110,258.000 340.681 C 258.000 341.262,257.933 341.265,257.300 340.705 C 256.044 339.595,177.418 338.848,161.400 339.795 C 160.080 339.873,155.640 339.963,151.532 339.995 C 145.120 340.046,144.030 340.144,143.821 340.689 C 143.608 341.245,143.511 341.232,143.032 340.576 C 142.563 339.934,142.394 339.907,141.826 340.378 C 141.326 340.793,141.054 340.814,140.703 340.463 C 140.086 339.846,138.416 339.871,138.214 340.500 C 138.125 340.775,137.961 348.290,137.849 357.200 C 137.648 373.304,137.434 375.938,136.229 377.142 C 135.657 377.715,135.600 376.237,135.598 360.786 C 135.596 351.444,135.480 342.316,135.338 340.502 L 135.082 337.204 172.241 337.100 L 209.400 336.996 172.300 336.898 C 151.895 336.844,135.186 336.935,135.169 337.100 M210.705 337.083 C 211.202 337.179,211.922 337.175,212.305 337.075 C 212.687 336.975,212.280 336.896,211.400 336.901 C 210.520 336.905,210.207 336.987,210.705 337.083 M142.317 343.344 C 142.232 343.961,142.417 344.192,143.000 344.195 C 144.126 344.202,144.221 345.599,143.227 347.548 C 142.775 348.432,142.563 349.253,142.754 349.372 C 143.278 349.696,142.799 358.134,142.224 358.710 C 142.000 358.933,141.931 357.151,141.953 351.734 C 141.960 349.774,141.789 348.723,141.412 348.410 C 140.895 347.981,140.607 343.061,141.055 342.317 C 141.418 341.717,142.428 342.539,142.317 343.344 M141.436 345.851 C 141.170 346.545,141.770 347.182,142.700 347.194 C 143.422 347.203,143.315 346.628,142.449 345.845 C 141.743 345.206,141.683 345.206,141.436 345.851 M329.950 355.300 L 329.900 357.800 329.583 356.000 C 329.292 354.343,329.409 352.800,329.827 352.800 C 329.922 352.800,329.977 353.925,329.950 355.300 M328.800 366.776 C 328.800 367.423,328.634 368.056,328.430 368.181 C 327.995 368.450,327.687 367.301,327.926 366.300 C 328.196 365.169,328.800 365.498,328.800 366.776 M327.598 370.500 C 327.596 371.215,327.351 372.269,327.052 372.841 C 326.753 373.414,326.383 374.719,326.230 375.741 C 325.921 377.800,325.328 378.204,325.116 376.500 C 324.956 375.212,325.519 373.200,326.039 373.200 C 326.238 373.200,326.402 372.705,326.405 372.100 C 326.413 370.599,326.819 369.200,327.247 369.200 C 327.441 369.200,327.599 369.785,327.598 370.500 M73.636 373.800 C 73.636 374.628,74.715 377.310,74.761 376.600 C 74.776 376.380,74.529 375.480,74.212 374.600 C 73.895 373.720,73.635 373.360,73.636 373.800 M124.060 374.276 C 124.027 374.978,123.820 375.664,123.600 375.800 C 123.380 375.936,123.207 376.352,123.216 376.724 C 123.227 377.176,123.434 377.028,123.840 376.278 C 124.175 375.661,124.375 374.671,124.284 374.078 C 124.133 373.084,124.115 373.099,124.060 374.276 M74.801 377.517 C 74.800 377.802,75.446 379.242,76.235 380.717 C 77.719 383.491,78.800 384.925,78.800 384.119 C 78.800 383.870,78.639 383.607,78.443 383.533 C 78.247 383.460,77.347 381.960,76.444 380.200 C 75.541 378.440,74.801 377.233,74.801 377.517 M321.200 380.624 C 321.200 380.941,321.065 381.201,320.900 381.203 C 320.735 381.205,319.790 382.007,318.800 382.985 C 316.788 384.973,315.766 385.325,316.148 383.900 C 316.281 383.405,316.392 382.707,316.395 382.350 C 316.398 381.962,316.846 381.611,317.505 381.479 C 318.113 381.357,319.037 380.889,319.557 380.437 C 320.549 379.577,321.200 379.651,321.200 380.624 M119.516 384.247 C 117.854 386.331,114.187 390.014,113.583 390.205 C 113.193 390.329,112.763 390.718,112.628 391.071 C 112.409 391.642,115.233 389.558,116.795 387.995 C 117.910 386.880,120.499 383.600,120.264 383.600 C 120.136 383.600,119.799 383.891,119.516 384.247 M80.576 386.691 C 81.663 387.841,82.638 388.696,82.743 388.591 C 82.847 388.486,82.855 388.355,82.759 388.300 C 82.663 388.245,81.688 387.390,80.593 386.400 L 78.600 384.600 80.576 386.691 M83.784 389.583 C 84.191 390.032,84.667 390.400,84.842 390.400 C 85.017 390.400,85.989 390.960,87.003 391.644 C 88.016 392.328,88.925 392.808,89.022 392.711 C 89.252 392.482,85.427 390.000,84.844 390.000 C 84.600 390.000,84.400 389.839,84.400 389.643 C 84.400 389.446,84.095 389.169,83.722 389.026 C 83.129 388.798,83.136 388.867,83.784 389.583 M110.400 392.200 C 110.126 392.530,109.598 392.800,109.227 392.800 C 108.598 392.800,106.683 393.959,107.267 393.987 C 107.631 394.005,110.858 392.547,111.600 392.030 C 112.124 391.665,112.118 391.611,111.549 391.606 C 111.191 391.603,110.674 391.870,110.400 392.200 M90.746 393.416 C 91.486 393.737,92.206 393.994,92.346 393.986 C 92.866 393.957,90.576 392.828,90.000 392.830 C 89.670 392.831,90.006 393.094,90.746 393.416 M94.600 394.594 C 97.147 395.321,101.517 395.325,104.600 394.603 L 107.000 394.041 104.600 394.320 C 101.529 394.678,98.477 394.675,95.200 394.311 L 92.600 394.022 94.600 394.594 " stroke="none" fill="#cfaa86" fill-rule="evenodd"></path></g></svg>